# Blender 5.0.0
# www.blender.org
mtllib Dagger_02.mtl
o Dagger_02
v -0.038673 -0.110772 -0.022710
v 0.038673 -0.110772 -0.022710
v -0.038673 -0.110772 0.022710
v 0.038673 -0.110772 0.022710
v -0.000000 -0.114449 0.030809
v 0.000000 -0.114449 -0.030809
v -0.044306 -0.111680 -0.000000
v 0.044306 -0.111680 0.000000
v -0.032289 0.074751 -0.027007
v 0.033956 0.074730 0.027264
v 0.038159 0.078546 -0.025281
v -0.034530 0.074845 0.023723
v -0.001010 0.074499 -0.030332
v 0.002773 0.075846 0.028993
v -0.041928 0.076398 -0.000969
v 0.042586 0.074121 -0.001524
v -0.034146 -0.038968 -0.026337
v 0.039260 -0.036857 -0.025699
v -0.035349 -0.038780 0.024849
v 0.000642 -0.039042 -0.031493
v 0.002450 -0.038067 0.030854
v -0.041637 -0.038035 -0.000707
v 0.044311 -0.039477 -0.001020
v 0.037183 -0.038737 0.026387
v -0.000000 -0.117776 0.000000
v -0.000000 -0.107413 0.046571
v 0.049669 -0.102851 0.036169
v -0.058756 -0.100000 -0.000000
v -0.049669 -0.102851 0.036169
v 0.058756 -0.100000 0.000000
v 0.049669 -0.102851 -0.036169
v 0.000000 -0.107413 -0.046571
v -0.049669 -0.102851 -0.036169
v 0.041812 0.171765 -0.001810
v -0.041248 0.171736 -0.000865
v 0.003756 0.171777 0.027768
v -0.001467 0.171799 -0.029595
v -0.033056 0.171728 0.022791
v 0.037774 0.171778 -0.024908
v 0.032233 0.171770 0.027941
v -0.030294 0.171768 -0.027325
v -0.018495 0.626943 0.019926
v -0.018495 0.626943 -0.020032
v 0.035982 0.660257 0.014098
v 0.035982 0.660257 -0.014204
v -0.027242 0.227331 0.030036
v -0.027242 0.227331 -0.030142
v -0.017768 0.181469 0.025880
v -0.017768 0.181469 -0.025987
v -0.043804 0.649269 -0.000053
v 0.063630 0.714466 -0.000053
v -0.059059 0.227331 -0.000053
v -0.035748 0.181469 -0.000053
v -0.028490 0.380722 0.029100
v -0.028490 0.380722 -0.029206
v -0.064822 0.380570 -0.000053
v 0.026048 0.227331 0.030036
v 0.026048 0.227331 -0.030142
v 0.016573 0.181469 0.025880
v 0.016573 0.181469 -0.025987
v -0.000000 0.186625 0.000000
v 0.057864 0.227331 -0.000053
v 0.034552 0.181469 -0.000053
v 0.027296 0.380722 0.029100
v 0.027296 0.380722 -0.029206
v 0.063627 0.380570 -0.000053
v 0.053417 0.186625 0.044935
v -0.053417 0.186625 0.044935
v -0.053417 0.186625 -0.044935
v 0.053417 0.186625 -0.044935
v 0.000000 0.186625 -0.049950
v 0.062517 0.186625 0.000000
v -0.062517 0.186625 -0.000000
v -0.000000 0.186625 0.049950
v -0.000000 0.162216 0.049950
v 0.000000 0.162216 0.000000
v 0.000000 0.162216 -0.049950
v -0.062517 0.162216 -0.000000
v 0.062517 0.162216 0.000000
v 0.053417 0.162216 -0.044935
v -0.053417 0.162216 0.044935
v 0.053417 0.162216 0.044935
v -0.053417 0.162216 -0.044935
vn 0.6808 0.1269 -0.7214
vn 0.6872 0.0099 -0.7264
vn 0.9986 0.0131 0.0505
vn 0.9918 0.1251 0.0258
vn -0.6565 0.1545 0.7383
vn -0.6549 0.0125 0.7556
vn -0.9995 0.0090 -0.0294
vn -0.9902 0.1381 -0.0193
vn 0.6493 0.1395 0.7476
vn 0.6216 0.0124 0.7833
vn -0.0422 0.0088 0.9991
vn -0.0149 0.1096 0.9939
vn -0.6364 0.1460 -0.7574
vn -0.6191 0.0067 -0.7853
vn 0.0099 0.0050 -0.9999
vn 0.0027 0.1066 -0.9943
vn 0.9752 0.2208 0.0155
vn 0.6344 0.2483 0.7320
vn -0.0088 0.2097 0.9777
vn -0.6328 0.2766 0.7232
vn -0.0032 0.2017 -0.9794
vn 0.6389 0.2376 -0.7317
vn -0.9636 0.2673 -0.0072
vn -0.6327 0.2696 -0.7260
vn -0.3030 -0.9302 0.2072
vn -0.3881 -0.9216 -0.0000
vn -0.0000 -1.0000 -0.0000
vn -0.0000 -0.9633 0.2684
vn -0.3030 -0.9302 -0.2072
vn -0.0000 -0.9633 -0.2684
vn 0.3030 -0.9302 -0.2072
vn 0.3881 -0.9216 -0.0000
vn 0.3030 -0.9302 0.2072
vn 0.3732 -0.8878 0.2694
vn -0.0000 -0.9147 0.4042
vn -0.3732 -0.8878 0.2694
vn -0.5711 -0.8209 -0.0000
vn 0.3732 -0.8878 -0.2694
vn 0.5711 -0.8209 -0.0000
vn -0.3732 -0.8878 -0.2694
vn -0.0000 -0.9147 -0.4042
vn 0.6872 0.0077 -0.7265
vn 0.9981 0.0091 0.0612
vn -0.6410 0.0146 0.7674
vn -0.9994 0.0130 -0.0309
vn 0.5978 0.0089 0.8016
vn -0.0552 0.0079 0.9984
vn -0.5956 0.0090 -0.8032
vn 0.0149 0.0046 -0.9999
vn -0.6112 0.0509 0.7898
vn -0.6345 0.0187 0.7727
vn -0.6342 0.0192 0.7730
vn 0.0195 0.0251 0.9995
vn 0.0199 0.0255 0.9995
vn 0.0393 0.0445 0.9982
vn -0.2134 0.4033 0.8898
vn -0.6112 0.0509 -0.7898
vn -0.6342 0.0192 -0.7730
vn -0.6345 0.0187 -0.7727
vn -0.7164 -0.2849 -0.6368
vn -0.6902 -0.1329 -0.7113
vn -0.6951 -0.1546 -0.7021
vn 0.0195 0.0251 -0.9995
vn 0.0199 0.0255 -0.9995
vn -0.0000 -0.0387 -0.9993
vn -0.0000 -0.0902 0.9959
vn -0.0000 -0.0387 0.9993
vn -0.7164 -0.2849 0.6368
vn -0.6951 -0.1546 0.7021
vn -0.6902 -0.1329 0.7113
vn -0.2134 0.4033 -0.8898
vn 0.0393 0.0445 -0.9982
vn -0.0000 1.0000 -0.0000
vn 0.7164 -0.2849 -0.6368
vn 0.6951 -0.1547 -0.7021
vn 0.6902 -0.1329 -0.7113
vn 0.7164 -0.2849 0.6368
vn 0.6902 -0.1329 0.7113
vn 0.6951 -0.1547 0.7021
vn 0.6055 -0.0000 0.7958
vn 0.6069 -0.0003 0.7948
vn 0.5532 0.0125 0.8330
vn 0.6069 -0.0003 -0.7948
vn 0.6055 -0.0000 -0.7958
vn 0.5532 0.0125 -0.8330
vn 0.9801 -0.0000 -0.1985
vn 1.0000 -0.0000 -0.0000
vn -0.0000 -0.0000 -1.0000
vn 0.0935 -0.0000 -0.9956
vn 0.0935 -0.0000 0.9956
vn -0.0000 -0.0000 1.0000
vn -0.0935 -0.0000 0.9956
vn -1.0000 -0.0000 -0.0000
vn -0.9801 -0.0000 -0.1985
vn -0.0935 -0.0000 -0.9956
vn 0.9801 -0.0000 0.1985
vn -0.9801 -0.0000 0.1985
vn -0.0000 -0.0902 -0.9959
vt 0.023251 0.533604
vt 0.023564 0.566366
vt 0.022307 0.565110
vt 0.021817 0.532860
vt 0.044432 0.533058
vt 0.044200 0.565315
vt 0.046300 0.565756
vt 0.046217 0.533269
vt 0.023841 0.533070
vt 0.024757 0.565283
vt 0.033609 0.565600
vt 0.033701 0.533260
vt 0.044091 0.533004
vt 0.043563 0.565289
vt 0.034683 0.565217
vt 0.034214 0.532983
vt 0.017716 0.515678
vt 0.020296 0.514868
vt 0.034397 0.513573
vt 0.048498 0.514868
vt 0.051077 0.515678
vt 0.095540 0.634567
vt 0.090680 0.634477
vt 0.128906 0.633878
vt 0.128906 0.634205
vt 0.162273 0.634567
vt 0.167132 0.634477
vt 0.171760 0.635346
vt 0.128906 0.634897
vt 0.086052 0.635346
vt 0.078212 0.635626
vt 0.179600 0.635626
vt 0.023673 0.592834
vt 0.022527 0.592830
vt 0.043781 0.592820
vt 0.046107 0.592822
vt 0.025246 0.592832
vt 0.033331 0.592834
vt 0.042997 0.592831
vt 0.034813 0.592840
vt 0.032744 0.965410
vt 0.037192 0.967812
vt 0.048231 0.903040
vt 0.041037 0.903712
vt 0.040387 0.845519
vt 0.016750 0.944168
vt 0.029048 0.929873
vt 0.023749 0.975866
vt 0.019897 0.991743
vt 0.041037 0.903712
vt 0.041366 0.844133
vt 0.051307 0.860019
vt 0.043915 0.862284
vt 0.036574 0.844133
vt 0.040387 0.845519
vt 0.044321 0.788879
vt 0.034285 0.764062
vt 0.125831 0.861022
vt 0.244559 0.861022
vt 0.227275 0.861022
vt 0.007102 0.861022
vt 0.024386 0.861022
vt 0.007102 0.770840
vt 0.024386 0.770840
vt 0.125831 0.770840
vt 0.227275 0.770840
vt 0.244559 0.770840
s 1
usemtl Material
f 18/1/1 11/2/2 16/3/3 23/4/4
f 19/5/5 12/6/6 15/7/7 22/8/8
f 24/9/9 10/10/10 14/11/11 21/12/12
f 17/13/13 9/14/14 13/15/15 20/16/16
f 22/8/8 15/7/7 9/14/14 17/13/13
f 20/16/16 13/15/15 11/2/2 18/1/1
f 21/12/12 14/11/11 12/6/6 19/5/5
f 23/4/4 16/3/3 10/10/10 24/9/9
f 30/17/17 23/4/4 24/9/9 27/18/18
f 26/19/19 21/12/12 19/5/5 29/20/20
f 32/19/21 20/16/16 18/1/1 31/18/22
f 28/21/23 22/8/8 17/13/13 33/20/24
f 33/20/24 17/13/13 20/16/16 32/19/21
f 27/18/18 24/9/9 21/12/12 26/19/19
f 29/20/20 19/5/5 22/8/8 28/21/23
f 31/18/22 18/1/1 23/4/4 30/17/17
f 3/22/25 7/23/26 25/24/27 5/25/28
f 1/22/29 6/25/30 25/24/27 7/23/26
f 2/26/31 8/27/32 25/24/27 6/25/30
f 4/26/33 5/25/28 25/24/27 8/27/32
f 5/25/28 4/26/33 27/28/34 26/29/35
f 7/23/26 3/22/25 29/30/36 28/31/37
f 8/27/32 2/26/31 31/28/38 30/32/39
f 6/25/30 1/22/29 33/30/40 32/29/41
f 3/22/25 5/25/28 26/29/35 29/30/36
f 2/26/31 6/25/30 32/29/41 31/28/38
f 1/22/29 7/23/26 28/31/37 33/30/40
f 4/26/33 8/27/32 30/32/39 27/28/34
f 11/2/2 39/33/42 34/34/43 16/3/3
f 12/6/6 38/35/44 35/36/45 15/7/7
f 10/10/10 40/37/46 36/38/47 14/11/11
f 9/14/14 41/39/48 37/40/49 13/15/15
f 15/7/7 35/36/45 41/39/48 9/14/14
f 13/15/15 37/40/49 39/33/42 11/2/2
f 14/11/11 36/38/47 38/35/44 12/6/6
f 16/3/3 34/34/43 40/37/46 10/10/10
f 42/41/50 50/42/50 56/43/51 54/44/52
f 54/45/53 64/45/54 44/46/55 42/47/55
f 50/42/56 42/41/56 44/48/56 51/49/56
f 50/42/57 43/41/57 55/50/58 56/43/59
f 53/51/60 52/52/61 47/53/62 49/54/60
f 55/55/63 65/55/64 58/56/65 47/56/65
f 48/57/66 59/57/66 57/56/67 46/56/67
f 48/54/68 46/53/69 52/52/70 53/51/68
f 46/53/69 54/44/52 56/43/51 52/52/70
f 43/41/71 50/42/71 51/49/71 45/48/71
f 45/46/72 65/55/64 55/55/63 43/47/72
f 52/52/61 56/43/59 55/50/58 47/53/62
f 57/56/67 64/45/54 54/45/53 46/56/67
f 61/58/73 73/59/73 68/60/73 74/58/73
f 72/61/73 61/58/73 74/58/73 67/62/73
f 70/62/73 71/58/73 61/58/73 72/61/73
f 63/51/74 60/54/74 58/53/75 62/52/76
f 59/54/77 63/51/77 62/52/78 57/53/79
f 62/52/78 66/43/80 64/44/81 57/53/79
f 44/48/82 64/44/81 66/43/80 51/49/82
f 58/53/75 65/50/83 66/43/84 62/52/76
f 51/49/85 66/43/84 65/50/83 45/48/85
f 71/58/73 69/60/73 73/59/73 61/58/73
f 70/62/86 72/61/87 79/63/87 80/64/86
f 71/58/88 70/62/89 80/64/89 77/65/88
f 67/62/90 74/58/91 75/65/91 82/64/90
f 74/58/91 68/60/92 81/66/92 75/65/91
f 80/64/27 79/63/27 76/65/27 77/65/27
f 77/65/27 76/65/27 78/67/27 83/66/27
f 79/63/27 82/64/27 75/65/27 76/65/27
f 76/65/27 75/65/27 81/66/27 78/67/27
f 73/59/93 69/60/94 83/66/94 78/67/93
f 69/60/95 71/58/88 77/65/88 83/66/95
f 72/61/87 67/62/96 82/64/96 79/63/87
f 68/60/97 73/59/93 78/67/93 81/66/97
f 60/57/98 49/57/98 47/56/65 58/56/65
