# Blender 5.0.0
# www.blender.org
mtllib Dagger_06.mtl
o Dagger_06
v -0.038673 -0.110772 -0.022710
v 0.038673 -0.110772 -0.022710
v -0.038673 -0.110772 0.022710
v 0.038673 -0.110772 0.022710
v -0.000000 -0.114449 0.030809
v 0.000000 -0.114449 -0.030809
v -0.044306 -0.111680 -0.000000
v 0.044306 -0.111680 0.000000
v -0.032289 0.074751 -0.027007
v 0.033956 0.074730 0.027264
v 0.038159 0.078546 -0.025281
v -0.034530 0.074845 0.023723
v -0.001010 0.074499 -0.030332
v 0.002773 0.075846 0.028993
v -0.041928 0.076398 -0.000969
v 0.042586 0.074121 -0.001524
v -0.034146 -0.038968 -0.026337
v 0.039260 -0.036857 -0.025699
v -0.035349 -0.038780 0.024849
v 0.000642 -0.039042 -0.031493
v 0.002450 -0.038067 0.030854
v -0.041637 -0.038035 -0.000707
v 0.044311 -0.039477 -0.001020
v 0.037183 -0.038737 0.026387
v -0.000000 -0.117776 0.000000
v -0.000000 -0.107413 0.046571
v 0.049669 -0.102851 0.036169
v -0.058756 -0.100000 -0.000000
v -0.049669 -0.102851 0.036169
v 0.058756 -0.100000 0.000000
v 0.049669 -0.102851 -0.036169
v 0.000000 -0.107413 -0.046571
v -0.049669 -0.102851 -0.036169
v 0.041812 0.171765 -0.001810
v -0.041248 0.171736 -0.000865
v 0.003756 0.171777 0.027768
v -0.001467 0.171799 -0.029595
v -0.033056 0.171728 0.022791
v 0.037774 0.171778 -0.024908
v 0.032233 0.171770 0.027941
v -0.030294 0.171768 -0.027325
v -0.025785 0.595355 0.019926
v -0.025785 0.595355 -0.020032
v -0.000000 0.635834 0.015459
v 0.000000 0.635834 -0.015566
v -0.050692 0.227331 0.030036
v -0.050692 0.227331 -0.030142
v -0.010894 0.181469 0.025880
v -0.010894 0.181469 -0.025987
v -0.059593 0.617682 -0.000053
v 0.000000 0.714466 -0.000053
v -0.107729 0.227331 -0.000053
v -0.047287 0.181469 -0.000053
v -0.033315 0.323978 0.029100
v -0.033315 0.323978 -0.029206
v -0.080628 0.323826 -0.000053
v -0.000000 0.227331 0.014351
v 0.000000 0.227331 -0.014457
v -0.000000 0.181469 0.018846
v 0.000000 0.181469 -0.018953
v -0.000000 0.186625 0.000000
v -0.000000 0.326343 0.013754
v 0.000000 0.326343 -0.013860
v -0.055650 0.186625 0.034107
v -0.055650 0.186625 -0.034107
v 0.000000 0.186625 -0.037914
v -0.062558 0.186625 -0.000000
v -0.000000 0.186625 0.037914
v -0.000000 0.138127 0.037914
v -0.000000 0.136226 0.000000
v 0.000000 0.138127 -0.037914
v -0.058124 0.136226 -0.000000
v -0.055650 0.138127 0.034107
v -0.055650 0.138127 -0.034107
v -0.040378 0.505456 0.025080
v -0.040378 0.505456 -0.025186
v -0.088173 0.505437 -0.000053
v -0.000000 0.501019 0.010641
v 0.000000 0.501019 -0.010747
v -0.147530 0.179629 0.034107
v -0.153976 0.156086 0.034107
v -0.154192 0.181453 -0.000000
v -0.147530 0.179629 -0.034107
v -0.160638 0.156327 -0.000000
v -0.153976 0.156086 -0.034107
v -0.034295 0.275654 0.029568
v -0.034295 0.275654 -0.029674
v -0.079673 0.275578 -0.000053
v -0.000000 0.276837 0.013976
v 0.000000 0.276837 -0.014082
v -0.043399 0.391578 0.027562
v -0.043399 0.391578 -0.027669
v -0.093329 0.391477 -0.000053
v -0.000000 0.393150 0.012564
v 0.000000 0.393150 -0.012670
v -0.102170 0.136273 -0.034107
v -0.102170 0.172727 -0.034107
v -0.101789 0.174904 -0.000000
v -0.102170 0.172727 0.034107
v -0.102170 0.136273 0.034107
v -0.102427 0.134373 -0.000000
v 0.025785 0.595355 0.019926
v 0.025785 0.595355 -0.020032
v 0.050692 0.227331 0.030036
v 0.050692 0.227331 -0.030142
v 0.010894 0.181469 0.025880
v 0.010894 0.181469 -0.025987
v 0.059593 0.617682 -0.000053
v 0.107729 0.227331 -0.000053
v 0.047287 0.181469 -0.000053
v 0.033315 0.323978 0.029100
v 0.033315 0.323978 -0.029206
v 0.080628 0.323826 -0.000053
v 0.055650 0.186625 0.034107
v 0.055650 0.186625 -0.034107
v 0.062558 0.186625 0.000000
v 0.058124 0.136226 0.000000
v 0.055650 0.138127 0.034107
v 0.055650 0.138127 -0.034107
v 0.040378 0.505456 0.025080
v 0.040378 0.505456 -0.025186
v 0.088173 0.505437 -0.000053
v 0.147530 0.179629 0.034107
v 0.153976 0.156086 0.034107
v 0.154192 0.181453 0.000000
v 0.147530 0.179629 -0.034107
v 0.160638 0.156327 0.000000
v 0.153976 0.156086 -0.034107
v 0.034295 0.275654 0.029568
v 0.034295 0.275654 -0.029674
v 0.079673 0.275578 -0.000053
v 0.043399 0.391578 0.027562
v 0.043399 0.391578 -0.027669
v 0.093329 0.391477 -0.000053
v 0.102170 0.136273 -0.034107
v 0.102170 0.172727 -0.034107
v 0.101789 0.174904 0.000000
v 0.102170 0.172727 0.034107
v 0.102170 0.136273 0.034107
v 0.102427 0.134373 0.000000
v 0.035727 -0.100003 0.025460
v -0.035727 -0.100003 0.025460
v -0.035727 -0.100003 -0.025460
v 0.035727 -0.100003 -0.025460
v 0.000000 -0.100003 -0.033408
v 0.041813 -0.100003 0.000000
v -0.041813 -0.100003 -0.000000
v -0.000000 -0.100003 0.033408
v 0.000000 -0.145948 0.000000
v -0.000000 -0.138185 0.037152
v -0.000000 -0.145948 0.029915
v 0.000000 -0.145948 -0.029915
v 0.000000 -0.138185 -0.037152
v -0.046500 -0.138186 -0.000000
v -0.039424 -0.145948 -0.000000
v 0.046500 -0.138186 0.000000
v 0.039424 -0.145948 0.000000
v 0.034085 -0.145948 -0.022332
v 0.039731 -0.138185 -0.028314
v -0.034085 -0.145948 0.022332
v -0.039731 -0.138185 0.028314
v 0.034085 -0.145948 0.022332
v 0.039731 -0.138185 0.028314
v -0.034085 -0.145948 -0.022332
v -0.039731 -0.138185 -0.028314
vn 0.6808 0.1269 -0.7214
vn 0.6872 0.0099 -0.7264
vn 0.9986 0.0131 0.0505
vn 0.9918 0.1251 0.0258
vn -0.6565 0.1545 0.7383
vn -0.6549 0.0125 0.7556
vn -0.9995 0.0090 -0.0294
vn -0.9902 0.1381 -0.0193
vn 0.6493 0.1395 0.7476
vn 0.6216 0.0124 0.7833
vn -0.0422 0.0088 0.9991
vn -0.0149 0.1096 0.9939
vn -0.6364 0.1460 -0.7574
vn -0.6191 0.0067 -0.7853
vn 0.0099 0.0050 -0.9999
vn 0.0027 0.1066 -0.9943
vn 0.9752 0.2208 0.0155
vn 0.6344 0.2483 0.7320
vn -0.0088 0.2097 0.9777
vn -0.6328 0.2766 0.7232
vn -0.0032 0.2017 -0.9794
vn 0.6389 0.2376 -0.7317
vn -0.9636 0.2673 -0.0072
vn -0.6327 0.2696 -0.7260
vn -0.3030 -0.9302 0.2072
vn -0.3881 -0.9216 -0.0000
vn -0.0000 -1.0000 -0.0000
vn -0.0000 -0.9633 0.2684
vn -0.3030 -0.9302 -0.2072
vn -0.0000 -0.9633 -0.2684
vn 0.3030 -0.9302 -0.2072
vn 0.3881 -0.9216 -0.0000
vn 0.3030 -0.9302 0.2072
vn 0.3732 -0.8878 0.2694
vn -0.0000 -0.9147 0.4042
vn -0.3732 -0.8878 0.2694
vn -0.5711 -0.8209 -0.0000
vn 0.3732 -0.8878 -0.2694
vn 0.5711 -0.8209 -0.0000
vn -0.3732 -0.8878 -0.2694
vn -0.0000 -0.9147 -0.4042
vn 0.6872 0.0077 -0.7265
vn 0.9981 0.0091 0.0612
vn -0.6410 0.0146 0.7674
vn -0.9994 0.0130 -0.0309
vn 0.5978 0.0089 0.8016
vn -0.0552 0.0079 0.9984
vn -0.5956 0.0090 -0.8032
vn 0.0149 0.0046 -0.9999
vn -0.4899 -0.0261 0.8714
vn -0.4889 -0.0221 0.8721
vn -0.5187 -0.0374 0.8541
vn -0.5202 -0.0338 0.8534
vn 0.3077 -0.0014 0.9515
vn 0.3094 -0.0003 0.9509
vn 0.2832 -0.0170 0.9589
vn -0.3749 0.1774 0.9099
vn -0.3930 0.1648 0.9046
vn -0.3084 0.2219 0.9250
vn -0.4889 -0.0221 -0.8721
vn -0.4899 -0.0261 -0.8714
vn -0.5202 -0.0338 -0.8534
vn -0.5187 -0.0374 -0.8541
vn -0.4408 -0.5150 -0.7351
vn 0.3772 -0.0268 -0.9257
vn 0.3819 -0.0233 -0.9239
vn 0.3456 0.0503 -0.9370
vn 0.3458 0.0329 -0.9377
vn 0.3421 0.1519 0.9273
vn 0.3456 0.0503 0.9370
vn 0.3458 0.0329 0.9377
vn -0.4408 -0.5150 0.7351
vn -0.5185 0.1067 0.8484
vn -0.5136 0.1311 0.8479
vn -0.3930 0.1648 -0.9046
vn -0.3749 0.1774 -0.9099
vn -0.3084 0.2219 -0.9250
vn 0.3483 0.0298 -0.9369
vn 0.3898 0.0252 -0.9205
vn 0.3911 0.0241 -0.9200
vn 0.3486 0.0301 -0.9368
vn -0.5136 0.1311 -0.8479
vn -0.5185 0.1067 -0.8484
vn 0.3819 -0.0233 0.9239
vn 0.3898 0.0252 0.9205
vn 0.3911 0.0241 0.9200
vn 0.3772 -0.0268 0.9257
vn -0.0000 1.0000 -0.0000
vn -0.0000 -0.0000 1.0000
vn -0.0376 -0.0000 0.9993
vn -0.0337 -0.0000 0.9994
vn -0.0000 -0.9986 -0.0528
vn 0.0205 -0.9998 -0.0000
vn 0.0181 -0.9984 -0.0533
vn -0.0000 -0.9986 0.0528
vn 0.0181 -0.9984 0.0533
vn -0.0788 0.9969 -0.0000
vn -0.0744 0.9958 -0.0528
vn 0.1362 0.9896 -0.0455
vn 0.1363 0.9907 -0.0000
vn -0.0376 -0.0000 -0.9993
vn -0.0000 -0.0000 -1.0000
vn -0.0337 -0.0000 -0.9994
vn 0.3421 0.1519 -0.9273
vn 0.2832 -0.0170 -0.9589
vn 0.3094 -0.0003 -0.9509
vn 0.3077 -0.0014 -0.9515
vn -0.4651 0.0751 -0.8821
vn -0.4664 0.0691 -0.8819
vn 0.3486 0.0301 0.9368
vn 0.3483 0.0298 0.9369
vn -0.4664 0.0691 0.8819
vn -0.4651 0.0751 0.8821
vn -0.9667 0.2561 -0.0000
vn -0.9485 0.2513 -0.1929
vn -0.9485 0.2513 0.1929
vn -0.0744 0.9958 0.0528
vn 0.1362 0.9896 0.0455
vn -0.1602 -0.9854 -0.0575
vn -0.1601 -0.9871 -0.0000
vn -0.3549 -0.9349 -0.0000
vn -0.3543 -0.9333 -0.0586
vn -0.1602 -0.9854 0.0575
vn -0.3543 -0.9333 0.0586
vn -0.4903 0.2298 -0.8407
vn -0.4903 0.2298 0.8407
vn -0.2858 0.9565 0.0579
vn -0.2863 0.9582 -0.0000
vn -0.2858 0.9565 -0.0579
vn 0.4899 -0.0261 0.8714
vn 0.5202 -0.0338 0.8534
vn 0.5187 -0.0374 0.8541
vn 0.4889 -0.0221 0.8721
vn -0.3077 -0.0014 0.9515
vn -0.2832 -0.0170 0.9589
vn -0.3094 -0.0003 0.9509
vn 0.3749 0.1774 0.9099
vn 0.3084 0.2219 0.9250
vn 0.3930 0.1648 0.9046
vn 0.4889 -0.0221 -0.8721
vn 0.5187 -0.0374 -0.8541
vn 0.5202 -0.0338 -0.8534
vn 0.4899 -0.0261 -0.8714
vn 0.4408 -0.5150 -0.7351
vn -0.3772 -0.0268 -0.9257
vn -0.3458 0.0329 -0.9377
vn -0.3456 0.0503 -0.9370
vn -0.3819 -0.0233 -0.9239
vn -0.3421 0.1519 0.9273
vn -0.3458 0.0329 0.9377
vn -0.3456 0.0503 0.9370
vn 0.4408 -0.5150 0.7351
vn 0.5185 0.1067 0.8484
vn 0.5136 0.1311 0.8479
vn 0.3930 0.1648 -0.9046
vn 0.3084 0.2219 -0.9250
vn 0.3749 0.1774 -0.9099
vn -0.3483 0.0298 -0.9369
vn -0.3486 0.0301 -0.9368
vn -0.3911 0.0241 -0.9200
vn -0.3898 0.0252 -0.9205
vn 0.5136 0.1311 -0.8479
vn 0.5185 0.1067 -0.8484
vn -0.3819 -0.0233 0.9239
vn -0.3772 -0.0268 0.9257
vn -0.3911 0.0241 0.9200
vn -0.3898 0.0252 0.9205
vn 0.0337 -0.0000 0.9994
vn 0.0376 -0.0000 0.9993
vn -0.0181 -0.9984 -0.0533
vn -0.0205 -0.9998 -0.0000
vn -0.0181 -0.9984 0.0533
vn 0.0788 0.9969 -0.0000
vn -0.1363 0.9907 -0.0000
vn -0.1362 0.9896 -0.0455
vn 0.0744 0.9958 -0.0528
vn 0.0376 -0.0000 -0.9993
vn 0.0337 -0.0000 -0.9994
vn -0.3421 0.1519 -0.9273
vn -0.2832 -0.0170 -0.9589
vn -0.3077 -0.0014 -0.9515
vn -0.3094 -0.0003 -0.9509
vn 0.4664 0.0691 -0.8819
vn 0.4651 0.0751 -0.8821
vn -0.3486 0.0301 0.9368
vn -0.3483 0.0298 0.9369
vn 0.4651 0.0751 0.8821
vn 0.4664 0.0691 0.8819
vn 0.9667 0.2561 -0.0000
vn 0.9485 0.2513 -0.1929
vn 0.9485 0.2513 0.1929
vn 0.0744 0.9958 0.0528
vn -0.1362 0.9896 0.0455
vn 0.1602 -0.9854 -0.0575
vn 0.3543 -0.9333 -0.0586
vn 0.3549 -0.9349 -0.0000
vn 0.1601 -0.9871 -0.0000
vn 0.3543 -0.9333 0.0586
vn 0.1602 -0.9854 0.0575
vn 0.4903 0.2298 -0.8407
vn 0.4903 0.2298 0.8407
vn 0.2858 0.9565 0.0579
vn 0.2863 0.9582 -0.0000
vn 0.2858 0.9565 -0.0579
vn 0.7278 -0.6634 -0.1740
vn 0.7391 -0.6736 -0.0000
vn -0.7278 -0.6634 0.1740
vn -0.7391 -0.6736 -0.0000
vn -0.0000 -0.6819 -0.7314
vn 0.1606 -0.6731 -0.7219
vn 0.7278 -0.6634 0.1740
vn 0.1606 -0.6731 0.7219
vn -0.0000 -0.6819 0.7314
vn -0.1606 -0.6731 -0.7219
vn -0.1606 -0.6731 0.7219
vn -0.7278 -0.6634 -0.1740
vn -0.0000 0.0976 0.9952
vn -0.2162 0.0953 0.9717
vn 0.2162 0.0953 0.9717
vn -0.2162 0.0953 -0.9717
vn -0.0000 0.0976 -0.9952
vn 0.2162 0.0953 -0.9717
vn -0.9657 0.1185 0.2309
vn -0.9926 0.1218 -0.0000
vn -0.9657 0.1185 -0.2309
vn 0.9926 0.1218 -0.0000
vn 0.9657 0.1185 0.2309
vn 0.9657 0.1185 -0.2309
vt 0.023251 0.533604
vt 0.023564 0.566366
vt 0.022307 0.565110
vt 0.021817 0.532860
vt 0.044432 0.533058
vt 0.044200 0.565315
vt 0.046300 0.565756
vt 0.046217 0.533269
vt 0.023841 0.533070
vt 0.024757 0.565283
vt 0.033609 0.565600
vt 0.033701 0.533260
vt 0.044091 0.533004
vt 0.043563 0.565289
vt 0.034683 0.565217
vt 0.034214 0.532983
vt 0.017716 0.515678
vt 0.020296 0.514868
vt 0.034397 0.513573
vt 0.048498 0.514868
vt 0.051077 0.515678
vt 0.095540 0.634567
vt 0.090680 0.634477
vt 0.128906 0.633878
vt 0.128906 0.634205
vt 0.162273 0.634567
vt 0.167132 0.634477
vt 0.171760 0.635346
vt 0.128906 0.634897
vt 0.086052 0.635346
vt 0.078212 0.635626
vt 0.179600 0.635626
vt 0.023673 0.592834
vt 0.022527 0.592830
vt 0.043781 0.592820
vt 0.046107 0.592822
vt 0.025246 0.592832
vt 0.033331 0.592834
vt 0.042997 0.592831
vt 0.034813 0.592840
vt 0.039647 0.914051
vt 0.046381 0.913894
vt 0.048231 0.903040
vt 0.041037 0.903712
vt 0.035419 0.882479
vt 0.030031 0.888743
vt 0.018895 0.935217
vt 0.029048 0.929873
vt 0.037192 0.967812
vt 0.032744 0.965410
vt 0.025317 0.969319
vt 0.019897 0.991743
vt 0.039647 0.914051
vt 0.041037 0.903712
vt 0.041366 0.844133
vt 0.051307 0.860019
vt 0.043915 0.862284
vt 0.036574 0.844133
vt 0.042354 0.817199
vt 0.044321 0.788879
vt 0.034285 0.764062
vt 0.042476 0.882998
vt 0.049769 0.881529
vt 0.025317 0.969319
vt 0.036426 0.862050
vt 0.040387 0.845519
vt 0.038487 0.859655
vt 0.042354 0.817199
vt 0.040387 0.845519
vt 0.117811 0.878305
vt 0.155520 0.878305
vt 0.150031 0.878305
vt 0.150031 0.789131
vt 0.117811 0.789131
vt 0.155520 0.789131
vt 0.186697 0.856754
vt 0.187000 0.852750
vt 0.223970 0.827196
vt 0.229459 0.827196
vt 0.187000 0.785723
vt 0.223970 0.782315
vt 0.030031 0.888743
vt 0.035419 0.882479
vt 0.037403 0.930745
vt 0.043394 0.931420
vt 0.038487 0.859655
vt 0.036426 0.862050
vt 0.037403 0.930745
vt 0.229459 0.782315
vt 0.192489 0.785723
vt 0.220033 0.809669
vt 0.236855 0.810867
vt 0.217304 0.819757
vt 0.204302 0.819757
vt 0.022551 0.809669
vt 0.005729 0.810867
vt 0.025280 0.819757
vt 0.038282 0.819757
vt 0.121292 0.809668
vt 0.121292 0.819757
vt 0.220033 0.809669
vt 0.022551 0.809669
vt 0.121292 0.760047
vt 0.022551 0.760048
vt 0.220033 0.760048
vt 0.005729 0.767138
vt 0.236855 0.767138
s 1
usemtl Material
f 18/1/1 11/2/2 16/3/3 23/4/4
f 19/5/5 12/6/6 15/7/7 22/8/8
f 24/9/9 10/10/10 14/11/11 21/12/12
f 17/13/13 9/14/14 13/15/15 20/16/16
f 22/8/8 15/7/7 9/14/14 17/13/13
f 20/16/16 13/15/15 11/2/2 18/1/1
f 21/12/12 14/11/11 12/6/6 19/5/5
f 23/4/4 16/3/3 10/10/10 24/9/9
f 30/17/17 23/4/4 24/9/9 27/18/18
f 26/19/19 21/12/12 19/5/5 29/20/20
f 32/19/21 20/16/16 18/1/1 31/18/22
f 28/21/23 22/8/8 17/13/13 33/20/24
f 33/20/24 17/13/13 20/16/16 32/19/21
f 27/18/18 24/9/9 21/12/12 26/19/19
f 29/20/20 19/5/5 22/8/8 28/21/23
f 31/18/22 18/1/1 23/4/4 30/17/17
f 3/22/25 7/23/26 25/24/27 5/25/28
f 1/22/29 6/25/30 25/24/27 7/23/26
f 2/26/31 8/27/32 25/24/27 6/25/30
f 4/26/33 5/25/28 25/24/27 8/27/32
f 5/25/28 4/26/33 27/28/34 26/29/35
f 7/23/26 3/22/25 29/30/36 28/31/37
f 8/27/32 2/26/31 31/28/38 30/32/39
f 6/25/30 1/22/29 33/30/40 32/29/41
f 3/22/25 5/25/28 26/29/35 29/30/36
f 2/26/31 6/25/30 32/29/41 31/28/38
f 1/22/29 7/23/26 28/31/37 33/30/40
f 4/26/33 8/27/32 30/32/39 27/28/34
f 11/2/2 39/33/42 34/34/43 16/3/3
f 12/6/6 38/35/44 35/36/45 15/7/7
f 10/10/10 40/37/46 36/38/47 14/11/11
f 9/14/14 41/39/48 37/40/49 13/15/15
f 15/7/7 35/36/45 41/39/48 9/14/14
f 13/15/15 37/40/49 39/33/42 11/2/2
f 14/11/11 36/38/47 38/35/44 12/6/6
f 16/3/3 34/34/43 40/37/46 10/10/10
f 91/41/50 93/42/51 56/43/52 54/44/53
f 75/45/54 78/46/55 44/47/56 42/48/56
f 50/49/57 42/50/58 44/51/59 51/52/59
f 93/42/60 92/53/61 55/54/62 56/43/63
f 53/55/64 52/56/64 47/57/64 49/58/64
f 87/59/65 90/59/66 58/60/67 47/60/68
f 48/61/69 59/61/69 57/60/70 46/60/71
f 48/58/72 46/57/72 52/56/72 53/55/72
f 86/62/73 54/44/53 56/43/52 88/63/74
f 43/50/75 50/49/76 51/52/77 45/64/77
f 95/65/78 63/66/79 55/66/80 92/67/81
f 88/63/82 56/43/63 55/54/62 87/62/83
f 89/68/84 62/69/85 54/69/86 86/68/87
f 61/70/88 67/71/88 64/72/88 68/70/88
f 66/70/88 65/72/88 67/71/88 61/70/88
f 68/70/89 64/72/90 73/73/91 69/74/89
f 71/74/92 70/74/27 72/75/93 74/73/94
f 70/74/27 69/74/95 73/73/96 72/75/93
f 98/76/97 97/77/98 83/78/99 82/79/100
f 65/72/101 66/70/102 71/74/102 74/73/103
f 97/77/102 96/80/102 85/81/102 83/78/102
f 60/61/104 49/61/104 47/60/68 58/60/67
f 45/47/105 79/82/106 76/83/107 43/48/105
f 50/49/76 43/50/75 76/84/108 77/85/109
f 91/86/110 94/87/111 78/46/55 75/45/54
f 42/50/58 50/49/57 77/85/112 75/88/113
f 82/79/114 83/78/115 85/81/115 84/89/114
f 80/78/116 82/79/114 84/89/114 81/81/116
f 99/77/117 98/76/97 82/79/100 80/78/118
f 100/80/89 99/77/89 80/78/89 81/81/89
f 96/80/119 101/90/120 84/89/121 85/81/122
f 101/90/120 100/80/123 81/81/124 84/89/121
f 57/60/70 89/68/84 86/68/87 46/60/71
f 52/56/125 88/63/82 87/62/83 47/57/125
f 46/57/126 86/62/73 88/63/74 52/56/126
f 55/66/80 63/66/79 90/59/66 87/59/65
f 54/69/86 62/69/85 94/87/111 91/86/110
f 79/82/106 95/65/78 92/67/81 76/83/107
f 77/85/109 76/84/108 92/53/61 93/42/60
f 75/88/113 77/85/112 93/42/51 91/41/50
f 72/75/93 73/73/96 100/80/123 101/90/120
f 74/73/94 72/75/93 101/90/120 96/80/119
f 73/73/91 64/72/90 99/77/89 100/80/89
f 64/72/127 67/71/128 98/76/97 99/77/117
f 65/72/101 74/73/103 96/80/102 97/77/102
f 67/71/128 65/72/129 97/77/98 98/76/97
f 132/41/130 111/44/131 113/43/132 134/42/133
f 120/45/134 102/48/135 44/47/135 78/46/136
f 108/49/137 51/52/138 44/51/138 102/50/139
f 134/42/140 113/43/141 112/54/142 133/53/143
f 110/55/144 107/58/144 105/57/144 109/56/144
f 130/59/145 105/60/146 58/60/147 90/59/148
f 106/61/149 104/60/150 57/60/151 59/61/149
f 106/58/152 110/55/152 109/56/152 104/57/152
f 129/62/153 131/63/154 113/43/132 111/44/131
f 103/50/155 45/64/156 51/52/156 108/49/157
f 95/65/158 133/67/159 112/66/160 63/66/161
f 131/63/162 130/62/163 112/54/142 113/43/141
f 89/68/164 129/68/165 111/69/166 62/69/167
f 61/70/88 68/70/88 114/72/88 116/71/88
f 66/70/88 61/70/88 116/71/88 115/72/88
f 68/70/89 69/74/89 118/73/168 114/72/169
f 71/74/92 119/73/170 117/75/171 70/74/27
f 70/74/27 117/75/171 118/73/172 69/74/95
f 137/76/173 125/79/174 126/78/175 136/77/176
f 115/72/177 119/73/178 71/74/102 66/70/102
f 136/77/102 126/78/102 128/81/102 135/80/102
f 60/61/179 58/60/147 105/60/146 107/61/179
f 45/47/180 103/48/180 121/83/181 79/82/182
f 108/49/157 122/85/183 121/84/184 103/50/155
f 132/86/185 120/45/134 78/46/136 94/87/186
f 102/50/139 120/88/187 122/85/188 108/49/137
f 125/79/189 127/89/189 128/81/190 126/78/190
f 123/78/191 124/81/191 127/89/189 125/79/189
f 138/77/192 123/78/193 125/79/174 137/76/173
f 139/80/89 124/81/89 123/78/89 138/77/89
f 135/80/194 128/81/195 127/89/196 140/90/197
f 140/90/197 127/89/196 124/81/198 139/80/199
f 57/60/151 104/60/150 129/68/165 89/68/164
f 109/56/200 105/57/200 130/62/163 131/63/162
f 104/57/201 109/56/201 131/63/154 129/62/153
f 112/66/160 130/59/145 90/59/148 63/66/161
f 111/69/166 132/86/185 94/87/186 62/69/167
f 79/82/182 121/83/181 133/67/159 95/65/158
f 122/85/183 134/42/140 133/53/143 121/84/184
f 120/88/187 132/41/130 134/42/133 122/85/188
f 117/75/171 140/90/197 139/80/199 118/73/172
f 119/73/170 135/80/194 140/90/197 117/75/171
f 118/73/168 139/80/89 138/77/89 114/72/169
f 114/72/202 138/77/192 137/76/173 116/71/203
f 115/72/177 136/77/102 135/80/102 119/73/178
f 116/71/203 137/76/173 136/77/176 115/72/204
f 159/91/205 156/92/206 157/93/206 158/94/205
f 161/95/207 154/96/208 155/97/208 160/98/207
f 153/99/209 159/91/210 158/94/210 152/100/209
f 156/92/206 163/101/211 162/94/211 157/93/206
f 163/101/212 150/99/213 151/100/213 162/94/212
f 165/102/214 153/99/209 152/100/209 164/98/214
f 150/99/213 161/95/215 160/98/215 151/100/213
f 154/96/208 165/102/216 164/98/216 155/97/208
f 148/103/217 142/104/218 161/95/218 150/99/217
f 157/93/27 162/94/27 151/100/27 149/100/27
f 141/105/219 148/103/217 150/99/217 163/101/219
f 149/100/27 151/100/27 160/98/27 155/97/27
f 152/100/27 149/100/27 155/97/27 164/98/27
f 158/94/27 157/93/27 149/100/27 152/100/27
f 143/104/220 145/103/221 153/99/221 165/102/220
f 145/103/221 144/105/222 159/91/222 153/99/221
f 142/104/223 147/106/224 154/96/224 161/95/223
f 147/106/224 143/104/225 165/102/225 154/96/224
f 146/107/226 141/105/227 163/101/227 156/92/226
f 144/105/228 146/107/226 156/92/226 159/91/228
