# Blender 5.0.0
# www.blender.org
mtllib Pickaxe_02.mtl
o Pickaxe_02
v -0.042268 0.700000 -0.030779
v -0.038673 -0.110772 -0.022710
v 0.042268 0.700000 -0.030779
v 0.038673 -0.110772 -0.022710
v -0.042268 0.700000 0.030779
v -0.038673 -0.110772 0.022710
v 0.042268 0.700000 0.030779
v 0.038673 -0.110772 0.022710
v -0.000000 -0.114449 0.030809
v 0.000000 0.700000 -0.039631
v -0.000000 0.700000 0.039631
v 0.000000 -0.114449 -0.030809
v -0.044306 -0.111680 -0.000000
v 0.050000 0.700000 0.000000
v 0.044306 -0.111680 0.000000
v -0.050000 0.700000 -0.000000
v -0.041471 0.500869 -0.030291
v -0.032246 0.301346 -0.030992
v -0.035873 0.098168 -0.033765
v 0.034739 0.099181 0.033568
v 0.036667 0.296487 0.034136
v 0.043206 0.505375 0.034071
v 0.039547 0.494047 -0.025277
v 0.039935 0.300099 -0.028227
v 0.042293 0.105205 -0.030593
v -0.042084 0.499282 0.029169
v -0.031744 0.298816 0.026825
v -0.040373 0.098919 0.028422
v -0.000125 0.499836 -0.037130
v 0.001080 0.300091 -0.038371
v -0.003497 0.097954 -0.035790
v 0.004727 0.493966 0.036638
v 0.005813 0.296032 0.036835
v 0.001675 0.101212 0.033710
v -0.049456 0.501897 0.004287
v -0.043186 0.300931 0.004042
v -0.051048 0.101213 -0.002886
v 0.045415 0.493180 0.006378
v 0.046562 0.302938 0.000867
v 0.048304 0.096811 -0.002308
v -0.040376 -0.038938 -0.031761
v 0.042359 -0.036769 -0.030781
v -0.041765 -0.038707 0.030112
v -0.001079 -0.039004 -0.038522
v 0.000517 -0.038000 0.037882
v -0.050421 -0.038000 -0.000890
v 0.049575 -0.039356 -0.000712
v 0.040027 -0.038626 0.031701
v -0.000000 -0.117776 0.000000
v -0.000000 -0.107413 0.046571
v 0.049669 -0.102851 0.036169
v -0.058756 -0.100000 -0.000000
v -0.049669 -0.102851 0.036169
v 0.058756 -0.100000 0.000000
v 0.049669 -0.102851 -0.036169
v 0.000000 -0.107413 -0.046571
v -0.049669 -0.102851 -0.036169
v -0.031626 0.908489 -0.018808
v 0.031626 0.908489 -0.018808
v -0.031626 0.908489 0.018808
v 0.031626 0.908489 0.018808
v 0.000000 0.910740 -0.025431
v -0.000000 0.910740 0.025431
v 0.036351 0.909530 0.000000
v -0.036351 0.909530 -0.000000
v 0.041296 0.822809 -0.030072
v 0.000000 0.822809 -0.038720
v -0.000000 0.822809 0.038720
v 0.041296 0.822809 0.030072
v -0.048851 0.822809 -0.000000
v -0.041296 0.822809 0.030072
v -0.041296 0.822809 -0.030072
v 0.048851 0.822809 0.000000
v -0.000000 0.913071 0.000000
v 0.053404 0.900000 0.000000
v 0.045145 0.900917 0.032874
v 0.000000 0.902851 -0.042329
v 0.045145 0.900917 -0.032874
v -0.000000 0.902851 0.042329
v -0.045145 0.900917 0.032874
v -0.053404 0.900000 -0.000000
v -0.045145 0.900917 -0.032874
v -0.257448 0.813048 -0.029969
v -0.247652 0.771736 -0.029969
v -0.066087 0.752370 0.033145
v -0.066087 0.840866 0.033145
v -0.249519 0.764470 -0.000000
v -0.247652 0.771736 0.029969
v -0.066087 0.752370 -0.033145
v -0.066087 0.840866 -0.033145
v -0.072466 0.748501 -0.000000
v -0.070626 0.844365 -0.000000
v -0.257448 0.813048 0.029969
v -0.262403 0.816841 -0.000000
v 0.000000 0.867620 0.000000
v 0.000000 0.725616 0.000000
v -0.424887 0.695592 -0.016590
v -0.433006 0.704919 -0.016590
v -0.424887 0.695592 0.016590
v -0.433006 0.704919 0.016590
v -0.428672 0.686800 -0.000000
v -0.440597 0.702682 -0.000000
v -0.358128 0.767031 0.025596
v -0.343026 0.728903 -0.000000
v -0.363882 0.769482 -0.000000
v -0.358128 0.767031 -0.025596
v -0.342615 0.736590 0.025596
v -0.342615 0.736590 -0.025596
v -0.147598 0.841118 -0.000000
v -0.140687 0.780326 0.033145
v -0.140687 0.780326 -0.033145
v -0.143438 0.836461 0.033145
v -0.144979 0.773583 -0.000000
v -0.143438 0.836461 -0.033145
v -0.000000 0.733925 0.062789
v -0.000000 0.725616 0.054457
v -0.000000 0.867620 0.054457
v -0.000000 0.859311 0.062789
v 0.000000 0.725616 -0.054457
v 0.000000 0.733925 -0.062789
v 0.000000 0.859311 -0.062789
v 0.000000 0.867620 -0.054457
v -0.055243 0.867620 0.050326
v -0.063760 0.859151 0.050202
v -0.054396 0.859311 0.058721
v -0.063760 0.734085 0.050202
v -0.055243 0.725616 0.050326
v -0.054396 0.733925 0.058721
v -0.070665 0.734016 -0.000000
v -0.061253 0.725616 -0.000000
v -0.069986 0.859164 -0.000000
v -0.061253 0.867620 -0.000000
v -0.055243 0.867620 -0.050326
v -0.054396 0.859311 -0.058721
v -0.063760 0.859151 -0.050202
v -0.054396 0.733925 -0.058721
v -0.055243 0.725616 -0.050326
v -0.063760 0.734085 -0.050202
v 0.257448 0.813048 -0.029969
v 0.247652 0.771736 -0.029969
v 0.066087 0.752370 0.033145
v 0.066087 0.840866 0.033145
v 0.249519 0.764470 0.000000
v 0.247652 0.771736 0.029969
v 0.066087 0.752370 -0.033145
v 0.066087 0.840866 -0.033145
v 0.072466 0.748501 0.000000
v 0.070626 0.844365 0.000000
v 0.257448 0.813048 0.029969
v 0.262403 0.816841 0.000000
v 0.424887 0.695592 -0.016590
v 0.433006 0.704919 -0.016590
v 0.424887 0.695592 0.016590
v 0.433006 0.704919 0.016590
v 0.428672 0.686800 0.000000
v 0.440597 0.702682 0.000000
v 0.358128 0.767031 0.025596
v 0.343026 0.728903 0.000000
v 0.363882 0.769482 0.000000
v 0.358128 0.767031 -0.025596
v 0.342615 0.736590 0.025596
v 0.342615 0.736590 -0.025596
v 0.147598 0.841118 0.000000
v 0.140687 0.780326 0.033145
v 0.140687 0.780326 -0.033145
v 0.143438 0.836461 0.033145
v 0.144979 0.773583 0.000000
v 0.143438 0.836461 -0.033145
v 0.055243 0.867620 0.050326
v 0.063760 0.859151 0.050202
v 0.054396 0.859311 0.058721
v 0.063760 0.734085 0.050202
v 0.055243 0.725616 0.050326
v 0.054396 0.733925 0.058721
v 0.070665 0.734016 0.000000
v 0.061253 0.725616 0.000000
v 0.069986 0.859164 0.000000
v 0.061253 0.867620 0.000000
v 0.055243 0.867620 -0.050326
v 0.054396 0.859311 -0.058721
v 0.063760 0.859151 -0.050202
v 0.054396 0.733925 -0.058721
v 0.055243 0.725616 -0.050326
v 0.063760 0.734085 -0.050202
vn 0.9999 -0.0098 -0.0072
vn 0.9999 -0.0027 -0.0133
vn 0.6961 0.0042 0.7179
vn 0.6855 -0.0047 0.7281
vn -0.0453 -0.0056 0.9990
vn -0.0117 0.0009 0.9999
vn -0.6847 0.0009 0.7288
vn -0.6637 -0.0198 0.7478
vn 0.0355 -0.0051 -0.9994
vn 0.0151 -0.0036 -0.9999
vn 0.7047 -0.0082 -0.7095
vn 0.7277 -0.0066 -0.6859
vn -0.9992 -0.0209 0.0339
vn -1.0000 0.0031 0.0056
vn -0.6914 0.0008 -0.7225
vn -0.6882 -0.0154 -0.7253
vn 0.6772 0.0762 -0.7318
vn 0.6874 0.0082 -0.7262
vn 0.9987 0.0090 0.0510
vn 0.9959 0.0847 0.0323
vn 0.7121 0.0093 -0.7020
vn 0.9998 0.0001 0.0221
vn -0.6611 0.0868 0.7453
vn -0.6466 0.0186 0.7626
vn -0.9995 0.0228 -0.0232
vn -0.9967 0.0766 -0.0267
vn -0.6317 -0.0038 0.7752
vn -0.9994 -0.0033 0.0341
vn 0.6407 0.0888 0.7626
vn 0.6034 0.0054 0.7974
vn -0.0545 0.0057 0.9985
vn -0.0195 0.0657 0.9976
vn 0.6260 -0.0086 0.7798
vn -0.0675 -0.0048 0.9977
vn -0.6339 0.0766 -0.7696
vn -0.6091 0.0139 -0.7930
vn 0.0118 0.0046 -0.9999
vn 0.0051 0.0589 -0.9982
vn -0.6444 0.0006 -0.7647
vn 0.0325 0.0033 -0.9995
vn 0.9887 0.1491 0.0153
vn 0.6550 0.1541 0.7398
vn -0.0063 0.1159 0.9932
vn -0.6526 0.1504 0.7426
vn 0.0016 0.1081 -0.9941
vn 0.6592 0.1434 -0.7382
vn -0.9895 0.1444 -0.0076
vn -0.6524 0.1423 -0.7444
vn -0.3030 -0.9302 0.2072
vn -0.3881 -0.9216 -0.0000
vn -0.0000 -1.0000 -0.0000
vn -0.0000 -0.9633 0.2684
vn -0.3030 -0.9302 -0.2072
vn -0.0000 -0.9633 -0.2684
vn 0.3030 -0.9302 -0.2072
vn 0.3881 -0.9216 -0.0000
vn 0.3030 -0.9302 0.2072
vn 0.3732 -0.8878 0.2694
vn -0.0000 -0.9147 0.4042
vn -0.3732 -0.8878 0.2694
vn -0.5711 -0.8209 -0.0000
vn 0.3732 -0.8878 -0.2694
vn 0.5711 -0.8209 -0.0000
vn -0.3732 -0.8878 -0.2694
vn -0.0000 -0.9147 -0.4042
vn 0.6908 -0.0254 -0.7226
vn -0.0000 -0.0191 -0.9998
vn -0.0000 -0.0456 -0.9990
vn 0.6835 -0.0597 -0.7275
vn -0.0000 -0.0191 0.9998
vn 0.6908 -0.0254 0.7226
vn 0.6835 -0.0597 0.7275
vn -0.0000 -0.0456 0.9990
vn -0.9997 -0.0247 -0.0000
vn -0.6908 -0.0254 0.7226
vn -0.6835 -0.0597 0.7275
vn -0.9983 -0.0585 -0.0000
vn -0.6908 -0.0254 -0.7226
vn -0.6835 -0.0597 -0.7275
vn 0.9997 -0.0247 -0.0000
vn 0.9983 -0.0585 -0.0000
vn 0.2996 0.9541 -0.0000
vn -0.0000 1.0000 -0.0000
vn -0.0000 0.9646 0.2637
vn 0.2306 0.9512 0.2051
vn -0.2996 0.9541 -0.0000
vn -0.2306 0.9512 0.2051
vn 0.2306 0.9512 -0.2051
vn -0.0000 0.9646 -0.2637
vn -0.2306 0.9512 -0.2051
vn 0.2973 0.9190 0.2588
vn 0.4475 0.8943 -0.0000
vn 0.2973 0.9190 -0.2588
vn -0.0000 0.9168 -0.3994
vn -0.2973 0.9190 0.2588
vn -0.0000 0.9168 0.3994
vn -0.2973 0.9190 -0.2588
vn -0.4475 0.8943 -0.0000
vn -0.5537 0.8327 -0.0000
vn -0.5188 0.8327 -0.1935
vn -0.6409 0.7393 -0.2065
vn -0.6551 0.7556 -0.0000
vn -0.0333 -0.0084 -0.9994
vn -0.0335 -0.0086 -0.9994
vn -0.0597 -0.0306 -0.9977
vn -0.0592 -0.0302 -0.9978
vn -0.0597 -0.0306 0.9977
vn -0.0592 -0.0302 0.9978
vn -0.0821 -0.0488 0.9954
vn 0.1973 -0.9551 -0.2211
vn 0.2243 -0.9745 -0.0000
vn 0.3917 -0.9201 -0.0000
vn 0.3697 -0.8920 -0.2601
vn -0.1334 0.9911 -0.0000
vn -0.1209 0.9823 -0.1428
vn -0.3016 0.9382 -0.1696
vn -0.3242 0.9460 -0.0000
vn -0.0126 -0.0016 0.9999
vn -0.0133 -0.0017 0.9999
vn -0.0333 -0.0084 0.9994
vn -0.0335 -0.0086 0.9994
vn -0.1209 0.9823 0.1428
vn -0.3016 0.9382 0.1696
vn -0.1195 -0.9928 -0.0000
vn -0.1449 -0.9671 0.2091
vn 0.1973 -0.9551 0.2211
vn -0.5188 0.8327 0.1935
vn -0.6409 0.7393 0.2065
vn -0.0133 -0.0017 -0.9999
vn -0.0126 -0.0016 -0.9999
vn 0.3697 -0.8920 0.2601
vn 0.4109 -0.8623 0.2960
vn 0.4301 -0.9028 -0.0000
vn -0.0821 -0.0488 -0.9954
vn 0.4109 -0.8623 -0.2960
vn -0.1449 -0.9671 -0.2091
vn -0.7070 -0.5621 0.4293
vn -0.7827 -0.6223 -0.0000
vn -0.7070 -0.5621 -0.4293
vn -0.3322 -0.9215 -0.2010
vn -0.3392 -0.9407 -0.0000
vn -0.0000 -0.0000 -1.0000
vn -0.3322 -0.9215 0.2010
vn -0.0491 0.9905 0.1283
vn -0.0495 0.9988 -0.0000
vn -0.0000 -0.0000 1.0000
vn -0.0491 0.9905 -0.1283
vn -0.5637 0.5580 0.6090
vn -0.5637 -0.5580 0.6090
vn -0.5637 0.5580 -0.6090
vn -0.5637 -0.5580 -0.6090
vn -0.0000 0.7081 0.7061
vn -0.0527 0.7071 0.7051
vn -0.6730 -0.0000 0.7396
vn -0.6856 -0.7280 -0.0000
vn -0.6829 -0.7252 0.0882
vn -0.7006 0.7135 -0.0000
vn -0.6981 0.7109 -0.0851
vn -0.6730 -0.0000 -0.7396
vn -0.0000 -0.7081 -0.7061
vn -0.0527 -0.7071 -0.7051
vn -0.6829 -0.7252 -0.0882
vn -0.6981 0.7109 0.0851
vn -0.0527 -0.7071 0.7051
vn -0.0000 -0.7081 0.7061
vn -0.0527 0.7071 -0.7051
vn -0.0000 0.7081 -0.7061
vn -0.0746 -0.0000 0.9972
vn -0.0746 -0.0000 -0.9972
vn -0.9997 0.0226 -0.0000
vn -0.9912 0.0108 0.1322
vn -0.9912 0.0116 0.1320
vn -0.9890 -0.0199 0.1468
vn -0.9888 -0.0215 0.1477
vn -0.9991 -0.0419 -0.0000
vn -0.9890 -0.0199 -0.1468
vn -0.9888 -0.0215 -0.1477
vn -0.9912 0.0108 -0.1322
vn -0.9912 0.0116 -0.1320
vn 0.5537 0.8327 -0.0000
vn 0.6551 0.7556 -0.0000
vn 0.6409 0.7393 -0.2065
vn 0.5188 0.8327 -0.1935
vn 0.0333 -0.0084 -0.9994
vn 0.0592 -0.0302 -0.9978
vn 0.0597 -0.0306 -0.9977
vn 0.0335 -0.0086 -0.9994
vn 0.0597 -0.0306 0.9977
vn 0.0821 -0.0488 0.9954
vn 0.0592 -0.0302 0.9978
vn -0.1973 -0.9551 -0.2211
vn -0.3697 -0.8920 -0.2601
vn -0.3917 -0.9201 -0.0000
vn -0.2243 -0.9745 -0.0000
vn 0.1334 0.9911 -0.0000
vn 0.3242 0.9460 -0.0000
vn 0.3016 0.9382 -0.1696
vn 0.1209 0.9823 -0.1428
vn 0.0126 -0.0016 0.9999
vn 0.0335 -0.0086 0.9994
vn 0.0333 -0.0084 0.9994
vn 0.0133 -0.0017 0.9999
vn 0.1209 0.9823 0.1428
vn 0.3016 0.9382 0.1696
vn 0.1195 -0.9928 -0.0000
vn -0.1973 -0.9551 0.2211
vn 0.1449 -0.9671 0.2091
vn 0.5188 0.8327 0.1935
vn 0.6409 0.7393 0.2065
vn 0.0133 -0.0017 -0.9999
vn 0.0126 -0.0016 -0.9999
vn -0.4301 -0.9028 -0.0000
vn -0.4109 -0.8623 0.2960
vn -0.3697 -0.8920 0.2601
vn 0.0821 -0.0488 -0.9954
vn -0.4109 -0.8623 -0.2960
vn 0.1449 -0.9671 -0.2091
vn 0.7070 -0.5621 0.4293
vn 0.7827 -0.6223 -0.0000
vn 0.7070 -0.5621 -0.4293
vn 0.3322 -0.9215 -0.2010
vn 0.3392 -0.9407 -0.0000
vn 0.3322 -0.9215 0.2010
vn 0.0491 0.9905 0.1283
vn 0.0495 0.9988 -0.0000
vn 0.0491 0.9905 -0.1283
vn 0.5637 0.5580 0.6090
vn 0.5637 -0.5580 0.6090
vn 0.5637 0.5580 -0.6090
vn 0.5637 -0.5580 -0.6090
vn 0.0527 0.7071 0.7051
vn 0.6730 -0.0000 0.7396
vn 0.6856 -0.7280 -0.0000
vn 0.6829 -0.7252 0.0882
vn 0.7006 0.7135 -0.0000
vn 0.6981 0.7109 -0.0851
vn 0.6730 -0.0000 -0.7396
vn 0.0527 -0.7071 -0.7051
vn 0.6829 -0.7252 -0.0882
vn 0.6981 0.7109 0.0851
vn 0.0527 -0.7071 0.7051
vn 0.0527 0.7071 -0.7051
vn 0.0746 -0.0000 0.9972
vn 0.0746 -0.0000 -0.9972
vn 0.9997 0.0226 -0.0000
vn 0.9912 0.0116 0.1320
vn 0.9912 0.0108 0.1322
vn 0.9888 -0.0215 0.1477
vn 0.9890 -0.0199 0.1468
vn 0.9991 -0.0419 -0.0000
vn 0.9888 -0.0215 -0.1477
vn 0.9890 -0.0199 -0.1468
vn 0.9912 0.0108 -0.1322
vn 0.9912 0.0116 -0.1320
vt 0.020039 0.576088
vt 0.020582 0.600591
vt 0.019666 0.600591
vt 0.019777 0.577533
vt 0.015218 0.576181
vt 0.014658 0.600591
vt 0.009651 0.600591
vt 0.009672 0.576811
vt 0.014644 0.576876
vt 0.019344 0.576190
vt 0.008799 0.577120
vt 0.008734 0.600591
vt 0.009745 0.576999
vt 0.019677 0.513301
vt 0.019669 0.530122
vt 0.020381 0.529127
vt 0.020532 0.512994
vt 0.019390 0.553212
vt 0.020175 0.553548
vt 0.009710 0.513071
vt 0.009875 0.529377
vt 0.008610 0.529648
vt 0.008685 0.513155
vt 0.010897 0.553060
vt 0.009542 0.553311
vt 0.019401 0.513081
vt 0.018774 0.529408
vt 0.014857 0.529648
vt 0.014720 0.513155
vt 0.019002 0.552784
vt 0.015347 0.552730
vt 0.009875 0.513044
vt 0.010408 0.529288
vt 0.014244 0.529262
vt 0.014530 0.513036
vt 0.010838 0.553360
vt 0.014786 0.553211
vt 0.021620 0.505809
vt 0.020543 0.505472
vt 0.014658 0.504931
vt 0.008774 0.505472
vt 0.007697 0.505809
vt 0.095540 0.634567
vt 0.090680 0.634477
vt 0.128906 0.633878
vt 0.128906 0.634205
vt 0.162273 0.634567
vt 0.167132 0.634477
vt 0.171760 0.635346
vt 0.128906 0.634897
vt 0.086052 0.635346
vt 0.078212 0.635626
vt 0.179600 0.635626
vt 0.019551 0.615141
vt 0.014658 0.615141
vt 0.014658 0.624624
vt 0.020007 0.624395
vt 0.008871 0.615141
vt 0.009766 0.615141
vt 0.009310 0.624395
vt 0.008331 0.624287
vt 0.020446 0.615141
vt 0.020985 0.624287
vt 0.160269 0.658750
vt 0.128906 0.659099
vt 0.128906 0.658869
vt 0.156193 0.658648
vt 0.097543 0.658750
vt 0.101620 0.658648
vt 0.167857 0.657903
vt 0.174982 0.657813
vt 0.128906 0.658094
vt 0.089956 0.657903
vt 0.082830 0.657813
vt 0.029379 0.995575
vt 0.031147 0.995575
vt 0.008134 0.995575
vt 0.005801 0.995575
vt 0.062089 0.995575
vt 0.063489 0.755441
vt 0.033685 0.755441
vt 0.007865 0.755441
vt 0.062903 0.755441
vt 0.033556 0.755441
vt 0.095850 0.995575
vt 0.097129 0.995575
vt 0.060567 0.995575
vt 0.097059 0.755441
vt 0.095712 0.755441
vt 0.006677 0.755441
vt 0.120472 0.755441
vt 0.118470 0.755441
vt 0.120902 0.925443
vt 0.119507 0.925443
vt 0.033256 0.993384
vt 0.019380 0.979587
vt 0.034634 0.979848
vt 0.019380 0.775834
vt 0.033256 0.762037
vt 0.034634 0.775573
vt 0.123255 0.993384
vt 0.123255 0.979848
vt 0.023465 0.762037
vt 0.008131 0.775721
vt 0.023465 0.993384
vt 0.009237 0.979608
vt 0.123255 0.762037
vt 0.123255 0.775573
vt 0.008194 0.955498
vt 0.015589 0.949798
vt 0.015589 0.805623
vt 0.005196 0.799320
vt 0.218083 0.995575
vt 0.241661 0.995575
vt 0.239328 0.995575
vt 0.216315 0.995575
vt 0.185372 0.995575
vt 0.213777 0.755441
vt 0.183973 0.755441
vt 0.239597 0.755441
vt 0.213906 0.755441
vt 0.184559 0.755441
vt 0.151612 0.995575
vt 0.186895 0.995575
vt 0.150333 0.995575
vt 0.150403 0.755441
vt 0.151750 0.755441
vt 0.240785 0.755441
vt 0.126990 0.755441
vt 0.128992 0.755441
vt 0.126560 0.925443
vt 0.127955 0.925443
vt 0.213254 0.993384
vt 0.211875 0.979848
vt 0.227130 0.979587
vt 0.227130 0.775834
vt 0.211875 0.775573
vt 0.213254 0.762037
vt 0.223045 0.762037
vt 0.238379 0.775721
vt 0.223045 0.993384
vt 0.237273 0.979608
vt 0.238316 0.955498
vt 0.230921 0.949798
vt 0.230921 0.805623
vt 0.241314 0.799320
s 1
usemtl Material
f 38/1/1 14/2/2 7/3/3 22/4/4
f 32/5/5 11/6/6 5/7/7 26/8/8
f 29/9/9 10/6/10 3/3/11 23/10/12
f 35/11/13 16/12/14 1/7/15 17/13/16
f 17/13/16 1/7/15 10/6/10 29/9/9
f 22/4/4 7/3/3 11/6/6 32/5/5
f 26/8/8 5/7/7 16/12/14 35/11/13
f 23/10/12 3/3/11 14/2/2 38/1/1
f 42/14/17 25/15/18 40/16/19 47/17/20
f 25/15/18 24/18/21 39/19/22 40/16/19
f 24/18/21 23/10/12 38/1/1 39/19/22
f 43/20/23 28/21/24 37/22/25 46/23/26
f 28/21/24 27/24/27 36/25/28 37/22/25
f 27/24/27 26/8/8 35/11/13 36/25/28
f 48/26/29 20/27/30 34/28/31 45/29/32
f 20/27/30 21/30/33 33/31/34 34/28/31
f 21/30/33 22/4/4 32/5/5 33/31/34
f 41/32/35 19/33/36 31/34/37 44/35/38
f 19/33/36 18/36/39 30/37/40 31/34/37
f 18/36/39 17/13/16 29/9/9 30/37/40
f 46/23/26 37/22/25 19/33/36 41/32/35
f 37/22/25 36/25/28 18/36/39 19/33/36
f 36/25/28 35/11/13 17/13/16 18/36/39
f 44/35/38 31/34/37 25/15/18 42/14/17
f 31/34/37 30/37/40 24/18/21 25/15/18
f 30/37/40 29/9/9 23/10/12 24/18/21
f 45/29/32 34/28/31 28/21/24 43/20/23
f 34/28/31 33/31/34 27/24/27 28/21/24
f 33/31/34 32/5/5 26/8/8 27/24/27
f 47/17/20 40/16/19 20/27/30 48/26/29
f 40/16/19 39/19/22 21/30/33 20/27/30
f 39/19/22 38/1/1 22/4/4 21/30/33
f 54/38/41 47/17/20 48/26/29 51/39/42
f 50/40/43 45/29/32 43/20/23 53/41/44
f 56/40/45 44/35/38 42/14/17 55/39/46
f 52/42/47 46/23/26 41/32/35 57/41/48
f 57/41/48 41/32/35 44/35/38 56/40/45
f 51/39/42 48/26/29 45/29/32 50/40/43
f 53/41/44 43/20/23 46/23/26 52/42/47
f 55/39/46 42/14/17 47/17/20 54/38/41
f 6/43/49 13/44/50 49/45/51 9/46/52
f 2/43/53 12/46/54 49/45/51 13/44/50
f 4/47/55 15/48/56 49/45/51 12/46/54
f 8/47/57 9/46/52 49/45/51 15/48/56
f 9/46/52 8/47/57 51/49/58 50/50/59
f 13/44/50 6/43/49 53/51/60 52/52/61
f 15/48/56 4/47/55 55/49/62 54/53/63
f 12/46/54 2/43/53 57/51/64 56/50/65
f 6/43/49 9/46/52 50/50/59 53/51/60
f 4/47/55 12/46/54 56/50/65 55/49/62
f 2/43/53 13/44/50 52/52/61 57/51/64
f 8/47/57 15/48/56 54/53/63 51/49/58
f 66/54/66 67/55/67 77/56/68 78/57/69
f 68/55/70 69/54/71 76/57/72 79/56/73
f 70/58/74 71/59/75 80/60/76 81/61/77
f 72/59/78 70/58/74 81/61/77 82/60/79
f 73/62/80 66/54/66 78/57/69 75/63/81
f 69/54/71 73/62/80 75/63/81 76/57/72
f 67/55/67 72/59/78 82/60/79 77/56/68
f 71/59/75 68/55/70 79/56/73 80/60/76
f 5/7/7 11/6/6 68/55/70 71/59/75
f 10/6/10 1/7/15 72/59/78 67/55/67
f 7/3/3 14/2/2 73/62/80 69/54/71
f 14/2/2 3/3/11 66/54/66 73/62/80
f 1/7/15 16/12/14 70/58/74 72/59/78
f 16/12/14 5/7/7 71/59/75 70/58/74
f 11/6/6 7/3/3 69/54/71 68/55/70
f 3/3/11 10/6/10 67/55/67 66/54/66
f 64/64/82 74/65/83 63/66/84 61/67/85
f 74/65/83 65/68/86 60/69/87 63/66/84
f 59/67/88 62/66/89 74/65/83 64/64/82
f 62/66/89 58/69/90 65/68/86 74/65/83
f 64/64/82 61/67/85 76/70/91 75/71/92
f 62/66/89 59/67/88 78/70/93 77/72/94
f 63/66/84 60/69/87 80/73/95 79/72/96
f 65/68/86 58/69/90 82/73/97 81/74/98
f 58/69/90 62/66/89 77/72/94 82/73/97
f 61/67/85 63/66/84 79/72/96 76/70/91
f 59/67/88 64/64/82 75/71/92 78/70/93
f 60/69/87 65/68/86 81/74/98 80/73/95
f 105/75/99 106/76/100 98/77/101 102/78/102
f 83/79/103 84/80/104 108/81/105 106/76/106
f 107/81/107 103/76/108 100/77/109 99/82/109
f 84/80/110 87/83/111 104/84/112 108/81/113
f 109/85/114 114/86/115 83/79/116 94/87/117
f 110/88/118 112/86/119 93/79/120 88/80/121
f 112/86/122 109/85/114 94/87/117 93/79/123
f 113/89/124 110/88/125 88/80/126 87/83/111
f 103/76/127 105/75/99 102/78/102 100/77/128
f 114/86/129 111/88/130 84/80/104 83/79/103
f 104/84/112 107/81/131 99/82/132 101/90/133
f 106/76/106 108/81/105 97/82/134 98/77/134
f 108/81/113 104/84/112 101/90/133 97/82/135
f 111/88/136 113/89/124 87/83/111 84/80/110
f 99/82/137 100/77/137 102/78/138 101/90/138
f 101/90/138 102/78/138 98/77/139 97/82/139
f 87/83/111 88/80/126 107/81/131 104/84/112
f 93/79/123 94/87/117 105/75/99 103/76/127
f 88/80/121 93/79/120 103/76/108 107/81/107
f 94/87/117 83/79/116 106/76/100 105/75/99
f 89/91/140 91/92/141 113/89/124 111/88/136
f 90/93/142 89/91/142 111/88/130 114/86/129
f 91/92/141 85/91/143 110/88/125 113/89/124
f 86/93/144 92/94/145 109/85/114 112/86/122
f 85/91/146 86/93/146 112/86/119 110/88/118
f 92/94/145 90/93/147 114/86/115 109/85/114
f 123/95/148 124/96/148 125/97/148
f 126/98/149 127/99/149 128/100/149
f 133/95/150 134/97/150 135/96/150
f 136/100/151 137/99/151 138/98/151
f 117/101/152 123/95/153 125/97/153 118/102/152
f 124/96/154 126/98/154 128/100/154 125/97/154
f 130/103/155 127/99/156 126/98/156 129/104/155
f 132/105/157 133/95/158 135/96/158 131/106/157
f 134/97/159 136/100/159 138/98/159 135/96/159
f 119/107/160 137/99/161 136/100/161 120/108/160
f 137/99/162 130/103/155 129/104/155 138/98/162
f 123/95/163 132/105/157 131/106/157 124/96/163
f 127/99/164 116/107/165 115/108/165 128/100/164
f 133/95/166 122/101/167 121/102/167 134/97/166
f 127/99/51 130/103/51 96/107/51 116/107/51
f 115/108/146 118/102/146 125/97/168 128/100/168
f 132/105/83 123/95/83 117/101/83 95/101/83
f 136/100/169 134/97/169 121/102/142 120/108/142
f 130/103/51 137/99/51 119/107/51 96/107/51
f 133/95/83 132/105/83 95/101/83 122/101/83
f 92/109/170 86/110/171 124/96/172 131/106/170
f 86/110/171 85/111/173 126/98/174 124/96/172
f 85/111/173 91/112/175 129/104/175 126/98/174
f 91/112/175 89/111/176 138/98/177 129/104/175
f 90/110/178 92/109/170 131/106/170 135/96/179
f 89/111/176 90/110/178 135/96/179 138/98/177
f 159/113/180 156/114/181 152/115/182 160/116/183
f 139/117/184 160/116/185 162/118/186 140/119/187
f 161/118/188 153/120/189 154/115/189 157/116/190
f 140/119/191 162/118/192 158/121/193 143/122/194
f 163/123/195 150/124/196 139/117/197 168/125/198
f 164/126/199 144/119/200 149/117/201 166/125/202
f 166/125/203 149/117/204 150/124/196 163/123/195
f 167/127/205 143/122/194 144/119/206 164/126/207
f 157/116/208 154/115/209 156/114/181 159/113/180
f 168/125/210 139/117/184 140/119/187 165/126/211
f 158/121/193 155/128/212 153/120/213 161/118/214
f 160/116/185 152/115/215 151/120/215 162/118/186
f 162/118/192 151/120/216 155/128/212 158/121/193
f 165/126/217 140/119/191 143/122/194 167/127/205
f 153/120/218 155/128/219 156/114/219 154/115/218
f 155/128/219 151/120/220 152/115/220 156/114/219
f 143/122/194 158/121/193 161/118/214 144/119/206
f 149/117/204 157/116/208 159/113/180 150/124/196
f 144/119/200 161/118/188 157/116/190 149/117/201
f 150/124/196 159/113/180 160/116/183 139/117/197
f 145/129/221 165/126/217 167/127/205 147/130/222
f 146/131/142 168/125/210 165/126/211 145/129/142
f 147/130/222 167/127/205 164/126/207 141/129/223
f 142/131/224 166/125/203 163/123/195 148/132/225
f 141/129/146 164/126/199 166/125/202 142/131/146
f 148/132/225 163/123/195 168/125/198 146/131/226
f 169/133/227 171/134/227 170/135/227
f 172/136/228 174/137/228 173/138/228
f 179/133/229 181/135/229 180/134/229
f 182/137/230 184/136/230 183/138/230
f 117/101/152 118/102/152 171/134/231 169/133/231
f 170/135/232 171/134/232 174/137/232 172/136/232
f 176/139/233 175/140/233 172/136/234 173/138/234
f 178/141/235 177/142/235 181/135/236 179/133/236
f 180/134/237 181/135/237 184/136/237 182/137/237
f 119/107/160 120/108/160 182/137/238 183/138/238
f 183/138/239 184/136/239 175/140/233 176/139/233
f 169/133/240 170/135/240 177/142/235 178/141/235
f 173/138/241 174/137/241 115/108/165 116/107/165
f 179/133/242 180/134/242 121/102/167 122/101/167
f 173/138/51 116/107/51 96/107/51 176/139/51
f 115/108/146 174/137/243 171/134/243 118/102/146
f 178/141/83 95/101/83 117/101/83 169/133/83
f 182/137/244 120/108/142 121/102/142 180/134/244
f 176/139/51 96/107/51 119/107/51 183/138/51
f 179/133/83 122/101/83 95/101/83 178/141/83
f 148/143/245 177/142/245 170/135/246 142/144/247
f 142/144/247 170/135/246 172/136/248 141/145/249
f 141/145/249 172/136/248 175/140/250 147/146/250
f 147/146/250 175/140/250 184/136/251 145/145/252
f 146/144/253 181/135/254 177/142/245 148/143/245
f 145/145/252 184/136/251 181/135/254 146/144/253
