# Blender 5.0.0
# www.blender.org
mtllib Spear_01.mtl
o Spear_01
v -0.027130 -0.225297 -0.000000
v -0.041909 1.026194 -0.000296
v -0.020335 -0.224931 -0.020664
v -0.031833 1.050000 -0.031833
v 0.000305 -0.224118 -0.027467
v 0.000000 1.016747 -0.042163
v 0.020951 -0.223314 -0.020658
v 0.031748 1.040565 -0.031741
v 0.027752 -0.222940 0.000000
v 0.041909 1.021997 0.000296
v 0.020951 -0.223314 0.020658
v 0.031833 1.050000 0.031833
v 0.000305 -0.224118 0.027467
v -0.000000 1.018222 0.042160
v -0.020335 -0.224931 0.020664
v -0.031737 1.041013 0.031730
v -0.036309 0.155518 0.000467
v -0.041791 0.426132 0.000806
v -0.038813 0.673138 -0.000414
v -0.039814 0.880090 -0.001461
v -0.030001 0.875155 -0.032134
v -0.029246 0.676828 -0.029960
v -0.031490 0.428227 -0.030955
v -0.027360 0.154149 -0.027069
v 0.000000 0.868543 -0.041184
v 0.000000 0.682376 -0.039345
v 0.000000 0.425503 -0.041886
v 0.000000 0.156207 -0.036391
v 0.030001 0.864127 -0.029932
v 0.029246 0.686532 -0.029335
v 0.031490 0.419555 -0.032169
v 0.027360 0.160487 -0.027773
v 0.039814 0.864494 0.001461
v 0.038813 0.686862 0.000414
v 0.041791 0.413868 -0.000806
v 0.036309 0.164482 -0.000467
v 0.030001 0.869429 0.032134
v 0.029246 0.683173 0.029960
v 0.031490 0.411773 0.030955
v 0.027360 0.165852 0.027069
v -0.000000 0.876041 0.041184
v -0.000000 0.677624 0.039345
v 0.000000 0.414497 0.041886
v -0.000000 0.163794 0.036391
v -0.030001 0.880457 0.029932
v -0.029246 0.673468 0.029335
v -0.031490 0.420445 0.032169
v -0.027360 0.159513 0.027773
v -0.043273 -0.218448 -0.000000
v -0.032607 -0.217911 -0.032636
v 0.000000 -0.216615 -0.043312
v 0.032607 -0.215319 -0.032636
v 0.043273 -0.214782 0.000000
v 0.032607 -0.215319 0.032636
v -0.000000 -0.216615 0.043312
v -0.032607 -0.217911 0.032636
v 0.000499 -0.228759 0.000000
v -0.000000 1.300000 -0.000000
v 0.020533 1.160000 -0.020533
v 0.027249 1.160000 0.000000
v -0.000000 1.160000 0.027249
v -0.020533 1.160000 0.020533
v -0.020533 1.160000 -0.020533
v 0.000000 1.160000 -0.027249
v 0.020533 1.160000 0.020533
v -0.027249 1.160000 -0.000000
vn -1.0000 -0.0094 -0.0033
vn -0.9998 -0.0131 -0.0167
vn -0.7406 -0.0082 -0.6719
vn -0.7030 -0.0084 -0.7112
vn 0.0052 -0.0071 -1.0000
vn 0.0193 -0.0085 -0.9998
vn 0.7375 -0.0133 -0.6752
vn 0.7194 -0.0097 -0.6945
vn 0.9998 -0.0122 0.0164
vn 1.0000 -0.0092 0.0038
vn 0.7194 -0.0077 0.6945
vn 0.7021 -0.0091 0.7120
vn -0.0065 -0.0074 1.0000
vn -0.0199 -0.0079 0.9998
vn -0.7478 -0.0144 0.6637
vn -0.7196 -0.0100 0.6943
vn -0.7125 0.0192 0.7014
vn -0.7044 -0.0018 0.7098
vn -1.0000 -0.0003 0.0005
vn -0.9998 0.0186 -0.0004
vn -0.7043 -0.0047 0.7098
vn -1.0000 -0.0037 0.0019
vn -0.7131 0.0042 0.7010
vn -1.0000 0.0035 -0.0004
vn -0.0038 0.0182 0.9998
vn 0.0094 -0.0023 1.0000
vn 0.0095 -0.0065 0.9999
vn -0.0087 0.0007 1.0000
vn 0.7029 0.0199 0.7110
vn 0.7114 -0.0024 0.7028
vn 0.7121 -0.0076 0.7020
vn 0.7066 -0.0006 0.7076
vn 0.9998 0.0184 -0.0011
vn 1.0000 -0.0023 -0.0016
vn 1.0000 -0.0061 -0.0014
vn 1.0000 0.0020 0.0012
vn 0.6982 0.0193 -0.7156
vn 0.7027 -0.0020 -0.7115
vn 0.7040 -0.0052 -0.7101
vn 0.7145 0.0028 -0.6997
vn -0.0144 0.0186 -0.9997
vn -0.0108 -0.0005 -0.9999
vn -0.0094 -0.0046 -0.9999
vn 0.0084 0.0003 -1.0000
vn -0.7155 0.0203 -0.6983
vn -0.7115 0.0004 -0.7027
vn -0.7124 -0.0048 -0.7018
vn -0.7079 0.0005 -0.7063
vn -0.1861 -0.9560 -0.2266
vn -0.2843 -0.9587 -0.0000
vn -0.3893 -0.9211 -0.0000
vn -0.2493 -0.9245 -0.2883
vn 0.0373 -0.9450 -0.3248
vn 0.0358 -0.9032 -0.4278
vn 0.2639 -0.9382 -0.2238
vn 0.3245 -0.9016 -0.2860
vn 0.3648 -0.9311 -0.0000
vn 0.4655 -0.8851 -0.0000
vn 0.2639 -0.9382 0.2238
vn 0.3245 -0.9016 0.2860
vn 0.0373 -0.9450 0.3248
vn 0.0358 -0.9032 0.4278
vn -0.1861 -0.9560 0.2266
vn -0.2493 -0.9245 0.2883
vn 0.0410 -0.9992 -0.0000
vn 0.9885 0.1512 -0.0054
vn 0.6971 0.1616 -0.6985
vn -0.0000 1.0000 -0.0000
vn -0.6961 0.1622 0.6994
vn -0.0058 0.1508 0.9886
vn 0.0059 0.1503 -0.9886
vn -0.6947 0.1656 -0.7000
vn 0.6966 0.1653 0.6981
vn -0.9883 0.1524 0.0052
vn -0.0355 0.1129 0.9930
vn 0.6943 0.1296 0.7079
vn 0.6893 0.1227 -0.7140
vn 0.0366 0.1121 -0.9930
vn -0.6810 0.1301 -0.7206
vn -0.9926 0.1159 0.0371
vn -0.6804 0.1239 0.7223
vn 0.9928 0.1136 -0.0375
vt 0.007967 0.621037
vt 0.007720 0.563875
vt 0.008910 0.563875
vt 0.009126 0.621037
vt 0.012668 0.563875
vt 0.012668 0.621037
vt 0.016416 0.563875
vt 0.016210 0.621037
vt 0.017616 0.563875
vt 0.017369 0.621037
vt 0.016426 0.563875
vt 0.008921 0.563875
vt 0.016518 0.505917
vt 0.015898 0.536710
vt 0.016955 0.536238
vt 0.017777 0.505854
vt 0.016386 0.567516
vt 0.017602 0.568188
vt 0.016121 0.597389
vt 0.017250 0.597350
vt 0.016210 0.620864
vt 0.017369 0.620864
vt 0.012668 0.506070
vt 0.012668 0.537215
vt 0.012668 0.566814
vt 0.012668 0.597880
vt 0.012668 0.620864
vt 0.008818 0.506223
vt 0.009438 0.537458
vt 0.008950 0.566492
vt 0.009215 0.598535
vt 0.009126 0.620864
vt 0.007559 0.506287
vt 0.008381 0.537296
vt 0.007734 0.566740
vt 0.008086 0.598971
vt 0.007967 0.620864
vt 0.009438 0.536824
vt 0.008950 0.567411
vt 0.009215 0.598932
vt 0.012668 0.536319
vt 0.012668 0.568114
vt 0.012668 0.598441
vt 0.015898 0.536076
vt 0.016386 0.568435
vt 0.016121 0.597786
vt 0.015069 0.505088
vt 0.015871 0.505045
vt 0.012632 0.505184
vt 0.010194 0.505279
vt 0.009391 0.505324
vt 0.012609 0.504636
vt 0.017288 0.708334
vt 0.018873 0.708334
vt 0.023719 0.741376
vt 0.028565 0.708334
vt 0.023719 0.708334
vt 0.030150 0.708334
vt 0.023719 0.674872
vt 0.016206 0.682372
vt 0.016226 0.680146
vt 0.023719 0.674524
vt 0.031232 0.682372
vt 0.033610 0.676754
vt 0.031209 0.680251
vt 0.013828 0.675763
s 1
usemtl Material
f 20/1/1 2/2/2 4/3/3 21/4/4
f 21/4/4 4/3/3 6/5/5 25/6/6
f 25/6/6 6/5/5 8/7/7 29/8/8
f 29/8/8 8/7/7 10/9/9 33/10/10
f 33/10/10 10/9/9 12/11/11 37/8/12
f 37/8/12 12/11/11 14/5/13 41/6/14
f 41/6/14 14/5/13 16/12/15 45/4/16
f 45/4/16 16/12/15 2/2/2 20/1/1
f 56/13/17 48/14/18 17/15/19 49/16/20
f 48/14/18 47/17/21 18/18/22 17/15/19
f 47/17/21 46/19/23 19/20/24 18/18/22
f 46/19/23 45/21/16 20/22/1 19/20/24
f 55/23/25 44/24/26 48/14/18 56/13/17
f 44/24/26 43/25/27 47/17/21 48/14/18
f 43/25/27 42/26/28 46/19/23 47/17/21
f 42/26/28 41/27/14 45/21/16 46/19/23
f 54/28/29 40/29/30 44/24/26 55/23/25
f 40/29/30 39/30/31 43/25/27 44/24/26
f 39/30/31 38/31/32 42/26/28 43/25/27
f 38/31/32 37/32/12 41/27/14 42/26/28
f 53/33/33 36/34/34 40/29/30 54/28/29
f 36/34/34 35/35/35 39/30/31 40/29/30
f 35/35/35 34/36/36 38/31/32 39/30/31
f 34/36/36 33/37/10 37/32/12 38/31/32
f 52/28/37 32/38/38 36/34/34 53/33/33
f 32/38/38 31/39/39 35/35/35 36/34/34
f 31/39/39 30/40/40 34/36/36 35/35/35
f 30/40/40 29/32/8 33/37/10 34/36/36
f 51/23/41 28/41/42 32/38/38 52/28/37
f 28/41/42 27/42/43 31/39/39 32/38/38
f 27/42/43 26/43/44 30/40/40 31/39/39
f 26/43/44 25/27/6 29/32/8 30/40/40
f 50/13/45 24/44/46 28/41/42 51/23/41
f 24/44/46 23/45/47 27/42/43 28/41/42
f 23/45/47 22/46/48 26/43/44 27/42/43
f 22/46/48 21/21/4 25/27/6 26/43/44
f 49/16/20 17/15/19 24/44/46 50/13/45
f 17/15/19 18/18/22 23/45/47 24/44/46
f 18/18/22 19/20/24 22/46/48 23/45/47
f 19/20/24 20/22/1 21/21/4 22/46/48
f 3/47/49 1/48/50 49/16/51 50/13/52
f 5/49/53 3/47/49 50/13/52 51/23/54
f 7/50/55 5/49/53 51/23/54 52/28/56
f 9/51/57 7/50/55 52/28/56 53/33/58
f 11/50/59 9/51/57 53/33/58 54/28/60
f 13/49/61 11/50/59 54/28/60 55/23/62
f 15/47/63 13/49/61 55/23/62 56/13/64
f 1/48/50 15/47/63 56/13/64 49/16/51
f 1/48/50 3/47/49 57/52/65
f 3/47/49 5/49/53 57/52/65
f 5/49/53 7/50/55 57/52/65
f 7/50/55 9/51/57 57/52/65
f 9/51/57 11/50/59 57/52/65
f 11/50/59 13/49/61 57/52/65
f 13/49/61 15/47/63 57/52/65
f 15/47/63 1/48/50 57/52/65
f 60/53/66 59/54/67 58/55/68
f 62/56/69 61/57/70 58/55/68
f 64/57/71 63/56/72 58/55/68
f 65/54/73 60/53/66 58/55/68
f 66/58/74 62/56/69 58/55/68
f 63/56/72 66/58/74 58/55/68
f 59/54/67 64/57/71 58/55/68
f 61/57/70 65/54/73 58/55/68
f 14/59/75 12/60/76 65/54/73 61/57/70
f 8/61/77 6/62/78 64/57/71 59/54/67
f 4/63/79 2/64/80 66/58/74 63/56/72
f 2/64/80 16/65/81 62/56/69 66/58/74
f 12/60/76 10/66/82 60/53/66 65/54/73
f 6/62/78 4/63/79 63/56/72 64/57/71
f 16/65/81 14/59/75 61/57/70 62/56/69
f 10/66/82 8/61/77 59/54/67 60/53/66
