# Blender 5.0.0
# www.blender.org
mtllib Shovel_03.mtl
o Shovel_03
v -0.036806 0.510266 -0.026739
v -0.032246 0.301346 -0.030992
v -0.035873 0.098168 -0.033765
v 0.034739 0.099181 0.033568
v 0.036667 0.296487 0.034136
v 0.037858 0.514240 0.030014
v 0.034632 0.504251 -0.022318
v 0.039935 0.300099 -0.028227
v 0.042293 0.105205 -0.030593
v -0.037347 0.508867 0.025692
v -0.031744 0.298816 0.026825
v -0.040373 0.098919 0.028422
v -0.000349 0.509355 -0.032769
v 0.001080 0.300091 -0.038371
v -0.003497 0.097954 -0.035790
v 0.003929 0.504179 0.032277
v 0.005813 0.296032 0.036835
v 0.001675 0.101212 0.033710
v -0.043847 0.511172 0.003751
v -0.043186 0.300931 0.004042
v -0.051048 0.101213 -0.002886
v 0.039806 0.503486 0.005595
v 0.046562 0.302938 0.000867
v 0.048304 0.096811 -0.002308
v 0.025372 0.563604 -0.018476
v 0.000000 0.563604 -0.023790
v -0.000000 0.563604 0.023790
v 0.025372 0.563604 0.018476
v -0.030014 0.563604 -0.000000
v -0.025372 0.563604 0.018476
v -0.025372 0.563604 -0.018476
v 0.030014 0.563604 0.000000
v 0.037101 -0.036942 0.027736
v -0.037885 -0.037572 -0.027851
v 0.042322 -0.033190 -0.025994
v -0.040995 -0.037105 0.024722
v -0.002417 -0.037706 -0.031360
v 0.001158 -0.035676 0.030143
v -0.050768 -0.035676 -0.001690
v 0.048872 -0.038417 -0.001351
v -0.027142 0.531648 0.047011
v -0.015177 0.700261 0.026288
v -0.054284 0.531648 0.000000
v -0.030355 0.700261 0.000000
v -0.027142 0.531648 -0.047011
v -0.015177 0.700261 -0.026288
v 0.027142 0.531648 -0.047011
v 0.015177 0.700261 -0.026288
v 0.054284 0.531648 -0.000000
v 0.030355 0.700261 -0.000000
v 0.027142 0.531648 0.047011
v 0.015177 0.700261 0.026288
v -0.037914 0.693210 0.000000
v -0.018957 0.693210 0.032834
v -0.018957 0.693210 -0.032834
v 0.018957 0.693210 -0.032834
v 0.037914 0.693210 -0.000000
v 0.018957 0.693210 0.032834
v 0.000000 0.700261 0.000000
v 0.000000 0.531648 0.000000
v 0.112750 0.629428 -0.003199
v 0.114331 0.872087 0.002032
v -0.112751 0.629428 -0.003199
v -0.114331 0.872087 0.002032
v 0.131167 0.626640 -0.045273
v 0.131167 0.877203 -0.035691
v -0.131167 0.626640 -0.045273
v -0.131167 0.877203 -0.035691
v -0.000000 0.608750 0.018182
v -0.000000 0.956337 0.026710
v -0.000000 0.606596 -0.017530
v -0.000000 0.999135 0.000381
v -0.000000 0.607539 0.003636
v -0.000000 0.983090 0.016846
v 0.125411 0.875537 -0.014603
v 0.124731 0.627773 -0.021799
v -0.125411 0.875537 -0.014603
v -0.124731 0.627773 -0.021799
v -0.093658 0.905466 0.012838
v -0.055622 0.932226 0.018851
v -0.099788 0.617384 -0.032634
v -0.056503 0.606408 -0.023479
v -0.091599 0.619906 0.005388
v -0.054513 0.608636 0.012376
v -0.056503 0.970117 -0.007573
v -0.099788 0.930879 -0.020974
v 0.054512 0.608636 0.012376
v 0.091599 0.619906 0.005388
v 0.099788 0.930879 -0.020974
v 0.056503 0.970117 -0.007573
v 0.055622 0.932226 0.018851
v 0.093658 0.905466 0.012838
v 0.056503 0.606408 -0.023479
v 0.099788 0.617384 -0.032634
v 0.097095 0.618432 -0.010649
v 0.055967 0.607372 -0.002274
v 0.097856 0.921437 -0.003006
v 0.056388 0.955940 0.008906
v -0.056388 0.955940 0.008906
v -0.097856 0.921437 -0.003006
v -0.055967 0.607372 -0.002274
v -0.097095 0.618432 -0.010649
v -0.140872 0.788155 -0.020219
v -0.140678 0.713719 -0.022221
v 0.140872 0.788155 -0.020219
v 0.140678 0.713719 -0.022221
v 0.128051 0.787514 0.003944
v 0.127624 0.714863 0.004948
v -0.127624 0.714863 0.004948
v -0.128051 0.787514 0.003944
v -0.147765 0.788142 -0.050389
v -0.147765 0.712775 -0.056181
v 0.147765 0.712775 -0.056181
v 0.147765 0.788142 -0.050389
v -0.000000 0.824116 -0.009081
v -0.000000 0.713672 -0.015046
v -0.000000 0.715381 0.038226
v -0.000000 0.812127 0.036710
v -0.112416 0.713189 -0.037202
v -0.112416 0.803489 -0.031108
v -0.063653 0.815360 -0.017476
v -0.063653 0.713485 -0.023628
v -0.061658 0.715240 0.029845
v -0.061893 0.804813 0.028505
v -0.103842 0.796559 0.017877
v -0.103552 0.715127 0.018995
v 0.103551 0.715127 0.018995
v 0.103842 0.796559 0.017877
v 0.061893 0.804813 0.028505
v 0.061657 0.715240 0.029845
v 0.063653 0.713485 -0.023628
v 0.063653 0.815360 -0.017476
v 0.112415 0.803489 -0.031108
v 0.112415 0.713189 -0.037202
v -0.140956 -0.034964 -0.000000
v 0.140956 -0.034964 0.000000
v -0.141102 -0.047992 -0.031391
v 0.141102 -0.047992 -0.031391
v -0.141118 -0.079497 -0.044317
v 0.141118 -0.079497 -0.044317
v -0.140975 -0.110602 -0.031330
v 0.140975 -0.110602 -0.031330
v -0.140975 -0.123580 -0.000000
v 0.140975 -0.123580 0.000000
v -0.140975 -0.110602 0.031330
v 0.140975 -0.110602 0.031330
v -0.141118 -0.079497 0.044317
v 0.141118 -0.079497 0.044317
v -0.141102 -0.047992 0.031391
v 0.141102 -0.047992 0.031391
v 0.055841 -0.022236 -0.035456
v 0.000000 -0.022236 -0.038916
v -0.061363 -0.022236 -0.000000
v -0.055841 -0.022236 0.035456
v 0.000000 -0.022236 0.000000
v 0.061363 -0.022236 0.000000
v 0.055841 -0.022236 0.035456
v -0.000000 -0.022236 0.038916
v 0.147482 -0.079272 0.000000
v -0.147482 -0.079272 -0.000000
v 0.062045 -0.038617 0.000000
v -0.062045 -0.038617 -0.000000
v -0.056662 -0.049203 -0.031791
v 0.056662 -0.049203 -0.031791
v 0.000000 -0.051245 -0.038218
v -0.061994 -0.077571 -0.040748
v 0.061994 -0.077571 -0.040748
v 0.000000 -0.077261 -0.041039
v -0.061809 -0.108013 -0.028741
v 0.061809 -0.108013 -0.028741
v 0.000000 -0.107475 -0.028203
v -0.061809 -0.119917 -0.000000
v 0.061809 -0.119917 0.000000
v -0.000000 -0.119157 0.000000
v -0.061809 -0.108013 0.028741
v 0.061809 -0.108013 0.028741
v -0.000000 -0.107475 0.028203
v -0.061994 -0.077571 0.040748
v 0.061994 -0.077571 0.040748
v -0.000000 -0.077261 0.041039
v -0.056662 -0.049203 0.031791
v 0.056662 -0.049203 0.031791
v -0.000000 -0.051245 0.038218
v -0.055841 -0.022236 -0.035456
vn 0.0413 0.0920 -0.9949
vn 0.0447 0.1551 -0.9869
vn 0.7032 0.1629 -0.6921
vn 0.7325 0.0973 -0.6737
vn -0.9912 0.1253 0.0425
vn -0.9679 0.2511 0.0105
vn -0.6517 0.2416 -0.7189
vn -0.6858 0.1192 -0.7179
vn -0.0508 0.0832 0.9952
vn -0.0415 0.1702 0.9845
vn -0.6266 0.2310 0.7443
vn -0.6582 0.1089 0.7449
vn 0.6813 0.1602 0.7142
vn 0.6747 0.2597 0.6909
vn 0.9812 0.1825 -0.0621
vn 0.9957 0.0914 -0.0145
vn 0.6864 -0.0205 -0.7269
vn 0.6792 -0.0054 -0.7340
vn 0.9982 0.0021 0.0599
vn 0.9962 0.0007 0.0871
vn 0.7123 0.0223 -0.7015
vn 0.9996 0.0154 0.0230
vn -0.6300 -0.0162 0.7765
vn -0.6306 0.0015 0.7761
vn -0.9994 0.0174 -0.0294
vn -0.9983 -0.0042 -0.0579
vn -0.6315 0.0100 0.7753
vn -0.9993 0.0119 0.0356
vn 0.6036 -0.0173 0.7971
vn 0.5836 -0.0139 0.8119
vn -0.0600 -0.0165 0.9981
vn -0.0452 -0.0301 0.9985
vn 0.6258 0.0056 0.7799
vn -0.0683 0.0054 0.9977
vn -0.5622 -0.0250 -0.8266
vn -0.5866 -0.0021 -0.8099
vn 0.0162 -0.0180 -0.9997
vn 0.0167 -0.0352 -0.9992
vn -0.6448 0.0147 -0.7642
vn 0.0323 0.0135 -0.9994
vn -0.8627 0.0874 0.4981
vn -0.8627 0.0874 -0.4981
vn -0.0000 0.0874 -0.9962
vn 0.8627 0.0874 -0.4981
vn -0.0000 -1.0000 -0.0000
vn 0.8627 0.0874 0.4981
vn -0.0000 0.0874 0.9962
vn -0.6347 0.6804 0.3664
vn -0.6347 0.6804 -0.3664
vn -0.0000 0.6804 -0.7328
vn 0.6347 0.6804 -0.3664
vn 0.6347 0.6804 0.3664
vn -0.0000 0.6804 0.7328
vn -0.0000 1.0000 -0.0000
vn 0.3114 -0.9456 0.0946
vn 0.3516 -0.9200 0.1735
vn 0.1486 -0.9848 0.0902
vn 0.1485 -0.9873 0.0563
vn 0.5163 0.2452 0.8206
vn 0.7131 0.4632 0.5262
vn 0.4792 0.5267 0.7021
vn 0.3145 0.2528 0.9150
vn -0.3145 0.2528 0.9150
vn -0.4792 0.5267 0.7021
vn -0.7131 0.4632 0.5262
vn -0.5163 0.2452 0.8206
vn -0.1485 -0.9873 0.0563
vn -0.1486 -0.9848 0.0902
vn -0.3516 -0.9200 0.1735
vn -0.3114 -0.9456 0.0946
vn -0.1329 -0.9845 0.1147
vn -0.3487 -0.9154 0.2012
vn -0.5269 0.6470 0.5512
vn -0.7601 0.5269 0.3803
vn 0.7601 0.5269 0.3803
vn 0.5269 0.6470 0.5512
vn 0.3487 -0.9154 0.2012
vn 0.1329 -0.9845 0.1147
vn -0.8796 0.2666 0.3940
vn -0.7159 0.1784 0.6750
vn -0.0000 0.2529 0.9675
vn -0.0000 0.5953 0.8035
vn -0.3684 -0.9157 0.1607
vn -0.3398 -0.9337 0.1130
vn -0.0000 -0.9990 0.0450
vn -0.0000 -0.9978 0.0662
vn -0.4476 -0.8418 0.3019
vn -0.0000 -0.9964 0.0848
vn -0.0000 0.7361 0.6769
vn -0.9252 0.2712 0.2656
vn 0.3684 -0.9157 0.1607
vn 0.4476 -0.8418 0.3019
vn 0.8796 0.2666 0.3940
vn 0.9252 0.2712 0.2656
vn 0.7159 0.1784 0.6750
vn 0.3398 -0.9337 0.1130
vn -0.7275 0.0552 0.6839
vn -0.9328 0.0663 0.3542
vn -0.9343 -0.0911 0.3446
vn -0.7149 -0.0884 0.6936
vn 0.9721 0.0601 0.2268
vn 0.9328 0.0663 0.3542
vn 0.9343 -0.0911 0.3446
vn 0.9708 -0.0886 0.2230
vn 0.7275 0.0552 0.6839
vn 0.7149 -0.0884 0.6936
vn -0.9721 0.0601 0.2268
vn -0.9708 -0.0886 0.2230
vn 0.3494 0.0557 -0.9353
vn 0.1920 0.0558 -0.9798
vn 0.1892 0.0334 -0.9814
vn 0.3552 0.0295 -0.9343
vn -0.1933 0.0457 0.9801
vn -0.3960 0.0525 0.9167
vn -0.3720 -0.0805 0.9247
vn -0.1873 -0.0796 0.9791
vn 0.3960 0.0525 0.9167
vn 0.1933 0.0457 0.9801
vn 0.1873 -0.0796 0.9791
vn 0.3720 -0.0805 0.9247
vn -0.1920 0.0558 -0.9798
vn -0.3494 0.0557 -0.9353
vn -0.3552 0.0295 -0.9343
vn -0.1892 0.0334 -0.9814
vn -0.0000 -0.0806 0.9967
vn -0.0000 0.0476 0.9989
vn 0.4474 0.0585 -0.8924
vn 0.4471 0.0297 -0.8940
vn -0.0000 0.0565 -0.9984
vn -0.0000 0.0361 -0.9993
vn -0.4471 0.0297 -0.8940
vn -0.4474 0.0585 -0.8924
vn -0.9165 -0.1727 0.3609
vn -0.6653 -0.1818 0.7241
vn -0.9585 -0.1660 0.2317
vn 0.9165 -0.1727 0.3609
vn 0.9585 -0.1660 0.2317
vn 0.6653 -0.1818 0.7241
vn 0.3257 -0.1726 0.9296
vn -0.3257 -0.1726 0.9296
vn 0.4273 -0.0083 -0.9041
vn 0.3113 -0.0026 -0.9503
vn 0.4131 0.0485 -0.9094
vn 0.2809 0.0504 -0.9584
vn -0.2809 0.0504 -0.9584
vn -0.4131 0.0485 -0.9094
vn -0.3113 -0.0026 -0.9503
vn -0.4273 -0.0083 -0.9041
vn -0.0000 0.0149 -0.9999
vn -0.1725 0.0087 -0.9850
vn 0.1725 0.0087 -0.9850
vn -0.0000 0.0561 -0.9984
vn -0.1557 0.0544 -0.9863
vn 0.1557 0.0544 -0.9863
vn 0.1720 -0.1736 0.9697
vn -0.0000 -0.1772 0.9842
vn -0.1720 -0.1736 0.9697
vn -0.0000 -0.0764 -0.9971
vn -0.0887 -0.0761 -0.9932
vn -0.0887 -0.0761 0.9931
vn -0.0000 -0.0764 0.9971
vn -0.9893 0.1457 -0.0000
vn -0.9898 0.1024 -0.0991
vn -1.0000 -0.0008 -0.0000
vn 0.0887 -0.0761 0.9932
vn 0.9998 0.0207 -0.0000
vn 0.9864 0.0204 -0.1632
vn 0.9898 0.1024 -0.0991
vn 0.9893 0.1457 -0.0000
vn 1.0000 -0.0008 -0.0000
vn 0.9898 0.1024 0.0991
vn 0.9898 -0.0025 0.1421
vn 0.9894 -0.1045 0.1010
vn 0.9894 -0.1453 -0.0000
vn 0.9894 -0.1045 -0.1010
vn 0.9898 -0.0025 -0.1421
vn -0.9898 -0.0025 -0.1421
vn -0.9894 -0.1045 -0.1010
vn -0.9894 -0.1453 -0.0000
vn -0.9894 -0.1045 0.1010
vn -0.9898 -0.0025 0.1421
vn -0.9898 0.1024 0.0991
vn -0.9998 0.0207 -0.0000
vn -0.9864 0.0204 0.1632
vn -0.9864 0.0204 -0.1632
vn -0.0064 -0.0462 0.9989
vn 0.0064 0.5306 0.8476
vn -0.0000 0.2165 0.9763
vn -0.0000 -0.0843 0.9964
vn -0.0064 0.5306 0.8476
vn 0.0064 -0.0462 0.9989
vn -0.0286 -0.7048 0.7088
vn -0.0000 -0.7057 0.7085
vn 0.0286 -0.7048 0.7088
vn -0.0294 -0.9996 -0.0000
vn 0.0294 -0.9996 -0.0000
vn -0.0286 -0.7048 -0.7088
vn -0.0000 -0.7057 -0.7085
vn 0.0286 -0.7048 -0.7088
vn -0.0064 -0.0462 -0.9989
vn -0.0000 -0.0843 -0.9964
vn 0.0064 -0.0462 -0.9989
vn 0.0064 0.5306 -0.8476
vn -0.0000 0.2165 -0.9763
vn -0.0064 0.5306 -0.8476
vn 0.0887 -0.0761 -0.9932
vn 0.9864 0.0204 0.1632
vn -0.0241 0.7067 0.7072
vn -0.0289 0.9996 -0.0000
vn 0.0289 0.9996 -0.0000
vn 0.0241 0.7067 -0.7072
vn -0.0241 0.7067 -0.7072
vn 0.0241 0.7067 0.7072
vn -0.0342 -0.0231 -0.9991
vn 0.0342 -0.0231 -0.9991
vn -0.0485 -0.7033 -0.7092
vn 0.0485 -0.7033 -0.7092
vn -0.0462 -0.9989 -0.0000
vn 0.0462 -0.9989 -0.0000
vn -0.0485 -0.7033 0.7092
vn 0.0485 -0.7033 0.7092
vn -0.0342 -0.0231 0.9991
vn 0.0342 -0.0231 0.9991
vt 0.014644 0.576876
vt 0.014658 0.615141
vt 0.019551 0.615141
vt 0.019344 0.576190
vt 0.008799 0.577120
vt 0.008871 0.615141
vt 0.009766 0.615141
vt 0.009745 0.576999
vt 0.015218 0.576181
vt 0.014658 0.615141
vt 0.009766 0.615141
vt 0.009672 0.576811
vt 0.019777 0.577533
vt 0.019551 0.615141
vt 0.020446 0.615141
vt 0.020039 0.576088
vt 0.019673 0.522607
vt 0.019669 0.530122
vt 0.020381 0.529127
vt 0.020449 0.521920
vt 0.019390 0.553212
vt 0.020175 0.553548
vt 0.009801 0.522093
vt 0.009875 0.529377
vt 0.008610 0.529648
vt 0.008643 0.522281
vt 0.010897 0.553060
vt 0.009542 0.553311
vt 0.019054 0.522114
vt 0.018774 0.529408
vt 0.014857 0.529649
vt 0.014795 0.522281
vt 0.019002 0.552784
vt 0.015347 0.552730
vt 0.010170 0.522031
vt 0.010408 0.529288
vt 0.014244 0.529262
vt 0.014372 0.522014
vt 0.010838 0.553360
vt 0.014786 0.553211
vt 0.164848 0.786634
vt 0.155218 0.923205
vt 0.177521 0.923205
vt 0.196781 0.786634
vt 0.110613 0.923205
vt 0.100983 0.786634
vt 0.088309 0.923205
vt 0.069050 0.786634
vt 0.132915 0.786634
vt 0.150772 0.931500
vt 0.168628 0.931500
vt 0.150772 0.931500
vt 0.115059 0.931500
vt 0.097202 0.931500
vt 0.115059 0.931500
vt 0.132915 0.931500
vt 0.073001 0.791442
vt 0.074407 0.791989
vt 0.095882 0.786214
vt 0.095601 0.785711
vt 0.076202 0.941856
vt 0.074010 0.950195
vt 0.095662 0.968210
vt 0.096062 0.955828
vt 0.154144 0.955828
vt 0.154544 0.968210
vt 0.176195 0.950195
vt 0.174004 0.941856
vt 0.154604 0.785711
vt 0.154324 0.786214
vt 0.175798 0.791989
vt 0.177204 0.791442
vt 0.153565 0.786875
vt 0.172929 0.792758
vt 0.154604 0.975611
vt 0.177204 0.955124
vt 0.073001 0.955124
vt 0.095601 0.975611
vt 0.077277 0.792758
vt 0.096641 0.786875
vt 0.190583 0.926229
vt 0.184798 0.924428
vt 0.125103 0.968417
vt 0.125103 0.982385
vt 0.190228 0.796866
vt 0.193588 0.796275
vt 0.125103 0.785809
vt 0.125103 0.786302
vt 0.183972 0.797730
vt 0.125103 0.786934
vt 0.125103 0.990763
vt 0.193588 0.927099
vt 0.059978 0.796866
vt 0.066233 0.797730
vt 0.059623 0.926229
vt 0.056618 0.927099
vt 0.065408 0.924428
vt 0.056618 0.796275
vt 0.191961 0.880270
vt 0.198655 0.880605
vt 0.198554 0.841740
vt 0.191738 0.842338
vt 0.047951 0.880598
vt 0.051551 0.880605
vt 0.051652 0.841740
vt 0.047951 0.841248
vt 0.058245 0.880270
vt 0.058468 0.842338
vt 0.202254 0.880598
vt 0.202254 0.841248
vt 0.183797 0.888611
vt 0.158338 0.894810
vt 0.158338 0.841618
vt 0.183797 0.841464
vt 0.157419 0.889303
vt 0.179321 0.884993
vt 0.179169 0.842476
vt 0.157296 0.842535
vt 0.070885 0.884993
vt 0.092787 0.889303
vt 0.092910 0.842535
vt 0.071036 0.842476
vt 0.091868 0.894810
vt 0.066408 0.888611
vt 0.066408 0.841464
vt 0.091868 0.841618
vt 0.125103 0.842608
vt 0.125103 0.893121
vt 0.125103 0.899381
vt 0.125103 0.841716
vt 0.126112 0.779153
vt 0.227473 0.779153
vt 0.226005 0.978091
vt 0.126112 0.978091
vt 0.235884 0.978091
vt 0.016339 0.978091
vt 0.026219 0.978091
vt 0.219095 0.979183
vt 0.219200 0.955598
vt 0.223754 0.898969
vt 0.024750 0.779153
vt 0.015120 0.779153
vt 0.017756 0.955598
vt 0.017861 0.979183
vt 0.013202 0.898969
vt 0.017745 0.898561
vt 0.017847 0.842248
vt 0.017847 0.818753
vt 0.219210 0.898561
vt 0.219108 0.842248
vt 0.219108 0.818753
vt 0.237104 0.779153
vt 0.074225 0.902048
vt 0.078031 0.953405
vt 0.118478 0.949709
vt 0.118478 0.902608
vt 0.158924 0.953405
vt 0.162730 0.902048
vt 0.074357 0.846936
vt 0.118478 0.847909
vt 0.162598 0.846936
vt 0.074357 0.825383
vt 0.118478 0.826760
vt 0.162598 0.825383
vt 0.074189 0.972570
vt 0.162767 0.972570
s 1
usemtl Material
f 13/1/1 26/2/2 25/3/3 7/4/4
f 19/5/5 29/6/6 31/7/7 1/8/8
f 16/9/9 27/10/10 30/11/11 10/12/12
f 1/8/8 31/7/7 26/2/2 13/1/1
f 6/13/13 28/14/14 27/10/10 16/9/9
f 7/4/4 25/3/3 32/15/15 22/16/16
f 10/12/12 30/11/11 29/6/6 19/5/5
f 35/17/17 9/18/18 24/19/19 40/20/20
f 9/18/18 8/21/21 23/22/22 24/19/19
f 8/21/21 7/4/4 22/16/16 23/22/22
f 36/23/23 12/24/24 21/25/25 39/26/26
f 12/24/24 11/27/27 20/28/28 21/25/25
f 11/27/27 10/12/12 19/5/5 20/28/28
f 33/29/29 4/30/30 18/31/31 38/32/32
f 4/30/30 5/33/33 17/34/34 18/31/31
f 5/33/33 6/13/13 16/9/9 17/34/34
f 34/35/35 3/36/36 15/37/37 37/38/38
f 3/36/36 2/39/39 14/40/40 15/37/37
f 2/39/39 1/8/8 13/1/1 14/40/40
f 39/26/26 21/25/25 3/36/36 34/35/35
f 21/25/25 20/28/28 2/39/39 3/36/36
f 20/28/28 19/5/5 1/8/8 2/39/39
f 37/38/38 15/37/37 9/18/18 35/17/17
f 15/37/37 14/40/40 8/21/21 9/18/18
f 14/40/40 13/1/1 7/4/4 8/21/21
f 38/32/32 18/31/31 12/24/24 36/23/23
f 18/31/31 17/34/34 11/27/27 12/24/24
f 17/34/34 16/9/9 10/12/12 11/27/27
f 40/20/20 24/19/19 4/30/30 33/29/29
f 24/19/19 23/22/22 5/33/33 4/30/30
f 23/22/22 22/16/16 6/13/13 5/33/33
f 22/16/16 32/15/15 28/14/14 6/13/13
s 0
f 41/41/41 54/42/41 53/43/41 43/44/41
f 43/44/42 53/43/42 55/42/42 45/41/42
f 45/41/43 55/42/43 56/45/43 47/46/43
f 47/46/44 56/45/44 57/47/44 49/48/44
f 41/41/45 43/44/45 60/49/45
f 49/48/46 57/47/46 58/45/46 51/46/46
f 51/46/47 58/45/47 54/42/47 41/41/47
f 42/50/48 44/51/48 53/43/48 54/42/48
f 44/51/49 46/52/49 55/42/49 53/43/49
f 46/52/50 48/53/50 56/45/50 55/42/50
f 48/53/51 50/54/51 57/47/51 56/45/51
f 50/54/52 52/55/52 58/45/52 57/47/52
f 52/55/53 42/50/53 54/42/53 58/45/53
f 44/51/54 42/50/54 59/56/54
f 42/50/54 52/55/54 59/56/54
f 52/55/54 50/54/54 59/56/54
f 50/54/54 48/53/54 59/56/54
f 48/53/54 46/52/54 59/56/54
f 46/52/54 44/51/54 59/56/54
f 43/44/45 45/41/45 60/49/45
f 45/41/45 47/46/45 60/49/45
f 47/46/45 49/48/45 60/49/45
f 49/48/45 51/46/45 60/49/45
f 51/46/45 41/41/45 60/49/45
s 1
f 94/57/55 95/58/56 96/59/57 93/60/58
f 92/61/59 97/62/60 98/63/61 91/64/62
f 80/65/63 99/66/64 100/67/65 79/68/66
f 82/69/67 101/70/68 102/71/69 81/72/70
f 101/70/68 84/73/71 83/74/72 102/71/69
f 99/66/64 85/75/73 86/76/74 100/67/65
f 97/62/60 89/77/75 90/78/76 98/63/61
f 95/58/56 88/79/77 87/80/78 96/59/57
f 77/81/79 64/82/80 79/68/66 100/67/65
f 99/66/64 80/65/63 70/83/81 74/84/82
f 78/85/83 67/86/84 81/72/70 102/71/69
f 101/70/68 82/69/67 71/87/85 73/88/86
f 63/89/87 78/85/83 102/71/69 83/74/72
f 84/73/71 101/70/68 73/88/86 69/90/88
f 85/75/73 99/66/64 74/84/82 72/91/89
f 68/92/90 77/81/79 100/67/65 86/76/74
f 69/90/88 73/88/86 96/59/57 87/80/78
f 88/79/77 95/58/56 76/93/91 61/94/92
f 89/77/75 97/62/60 75/95/93 66/96/94
f 72/91/89 74/84/82 98/63/61 90/78/76
f 74/84/82 70/83/81 91/64/62 98/63/61
f 97/62/60 92/61/59 62/97/95 75/95/93
f 73/88/86 71/87/85 93/60/58 96/59/57
f 95/58/56 94/57/55 65/98/96 76/93/91
f 110/99/97 103/100/98 104/101/99 109/102/100
f 114/103/101 105/104/102 106/105/103 113/106/104
f 105/104/102 107/107/105 108/108/106 106/105/103
f 103/100/98 111/109/107 112/110/108 104/101/99
f 120/111/109 121/112/110 122/113/111 119/114/112
f 124/115/113 125/116/114 126/117/115 123/118/116
f 128/119/117 129/120/118 130/121/119 127/122/120
f 132/123/121 133/124/122 134/125/123 131/126/124
f 123/118/116 117/127/125 118/128/126 124/115/113
f 109/102/100 126/117/115 125/116/114 110/99/97
f 111/109/127 120/111/109 119/114/112 112/110/128
f 121/112/110 115/129/129 116/130/130 122/113/111
f 107/107/105 128/119/117 127/122/120 108/108/106
f 129/120/118 118/128/126 117/127/125 130/121/119
f 131/126/124 116/130/130 115/129/129 132/123/121
f 113/106/131 134/125/123 133/124/122 114/103/132
f 109/102/100 104/101/99 78/85/133 63/89/134
f 104/101/99 112/110/108 67/86/135 78/85/133
f 110/99/97 64/82/80 77/81/79 103/100/98
f 103/100/98 77/81/79 68/92/90 111/109/107
f 114/103/101 66/96/94 75/95/93 105/104/102
f 113/106/104 106/105/103 76/93/136 65/98/137
f 105/104/102 75/95/93 62/97/95 107/107/105
f 106/105/103 108/108/106 61/94/138 76/93/136
f 107/107/105 62/97/95 92/61/59 128/119/117
f 61/94/138 108/108/106 127/122/120 88/79/139
f 83/74/140 126/117/115 109/102/100 63/89/134
f 125/116/114 79/68/66 64/82/80 110/99/97
f 67/86/141 112/110/128 119/114/112 81/72/142
f 111/109/127 68/92/143 86/76/144 120/111/109
f 133/124/122 89/77/145 66/96/146 114/103/132
f 94/57/147 134/125/123 113/106/131 65/98/148
f 71/87/149 116/130/130 131/126/124 93/60/150
f 82/69/151 122/113/111 116/130/130 71/87/149
f 115/129/129 72/91/152 90/78/153 132/123/121
f 121/112/110 85/75/154 72/91/152 115/129/129
f 87/80/155 130/121/119 117/127/125 69/90/156
f 118/128/126 70/83/81 80/65/63 124/115/113
f 69/90/156 117/127/125 123/118/116 84/73/157
f 129/120/118 91/64/62 70/83/81 118/128/126
f 85/75/154 121/112/110 120/111/109 86/76/144
f 122/113/111 82/69/151 81/72/142 119/114/112
f 79/68/66 125/116/114 124/115/113 80/65/63
f 126/117/115 83/74/140 84/73/157 123/118/116
f 91/64/62 129/120/118 128/119/117 92/61/59
f 130/121/119 87/80/155 88/79/139 127/122/120
f 89/77/145 133/124/122 132/123/121 90/78/153
f 134/125/123 94/57/147 93/60/150 131/126/124
f 165/131/158 163/132/159 184/133/159 152/134/158
f 181/132/160 183/131/161 158/134/161 154/133/160
f 155/134/54 152/134/54 184/133/54 153/135/54
f 156/136/54 151/137/54 152/134/54 155/134/54
f 157/137/54 156/136/54 155/134/54 158/134/54
f 135/138/162 137/139/163 160/140/164
f 183/131/161 182/141/165 157/137/165 158/134/161
f 161/142/166 164/141/167 151/137/167 156/136/166
f 158/134/54 155/134/54 153/135/54 154/133/54
f 138/143/168 136/144/169 159/145/170
f 136/144/169 150/143/171 159/145/170
f 150/143/171 148/146/172 159/145/170
f 148/146/172 146/147/173 159/145/170
f 146/147/173 144/148/174 159/145/170
f 144/148/174 142/147/175 159/145/170
f 142/147/175 140/146/176 159/145/170
f 140/146/176 138/143/168 159/145/170
f 137/139/163 139/149/177 160/140/164
f 139/149/177 141/150/178 160/140/164
f 141/150/178 143/151/179 160/140/164
f 143/151/179 145/150/180 160/140/164
f 145/150/180 147/149/181 160/140/164
f 147/149/181 149/139/182 160/140/164
f 149/139/182 135/138/162 160/140/164
f 162/152/183 181/132/184 154/133/184 153/135/183
f 163/132/185 162/152/183 153/135/183 184/133/185
f 179/153/186 182/154/187 183/155/188 180/156/189
f 180/156/189 183/155/188 181/157/190 178/158/191
f 176/159/192 179/153/186 180/156/189 177/160/193
f 177/160/193 180/156/189 178/158/191 175/161/194
f 173/162/195 176/159/192 177/160/193 174/163/45
f 174/163/45 177/160/193 175/161/194 172/164/196
f 170/159/197 173/162/195 174/163/45 171/160/198
f 171/160/198 174/163/45 172/164/196 169/161/199
f 167/153/200 170/159/197 171/160/198 168/156/201
f 168/156/201 171/160/198 169/161/199 166/158/202
f 164/154/203 167/153/200 168/156/201 165/155/204
f 165/155/204 168/156/201 166/158/202 163/157/205
f 164/141/206 165/131/158 152/134/158 151/137/206
f 182/141/207 161/142/166 156/136/166 157/137/207
f 182/154/187 150/143/208 136/144/209 161/165/209
f 135/138/210 162/166/210 163/157/205 137/139/211
f 161/165/209 136/144/209 138/143/212 164/154/203
f 149/139/213 181/157/190 162/166/210 135/138/210
f 164/154/203 138/143/212 140/146/214 167/153/200
f 137/139/211 163/157/205 166/158/202 139/149/215
f 167/153/200 140/146/214 142/147/216 170/159/197
f 139/149/215 166/158/202 169/161/199 141/150/217
f 170/159/197 142/147/216 144/148/218 173/162/195
f 141/150/217 169/161/199 172/164/196 143/151/219
f 173/162/195 144/148/218 146/147/220 176/159/192
f 143/151/219 172/164/196 175/161/194 145/150/221
f 176/159/192 146/147/220 148/146/222 179/153/186
f 145/150/221 175/161/194 178/158/191 147/149/223
f 179/153/186 148/146/222 150/143/208 182/154/187
f 147/149/223 178/158/191 181/157/190 149/139/213
