# Blender 5.0.0
# www.blender.org
mtllib Mace_01.mtl
o Mace_01
v -0.042268 0.700000 -0.030779
v -0.038673 -0.110772 -0.022710
v 0.042268 0.700000 -0.030779
v 0.038673 -0.110772 -0.022710
v -0.042268 0.700000 0.030779
v -0.038673 -0.110772 0.022710
v 0.042268 0.700000 0.030779
v 0.038673 -0.110772 0.022710
v -0.000000 -0.114449 0.030809
v 0.000000 0.700000 -0.039631
v -0.000000 0.700000 0.039631
v 0.000000 -0.114449 -0.030809
v -0.044306 -0.111680 -0.000000
v 0.050000 0.700000 0.000000
v 0.044306 -0.111680 0.000000
v -0.050000 0.700000 -0.000000
v -0.041471 0.500869 -0.030291
v -0.032246 0.301346 -0.030992
v -0.035873 0.098168 -0.033765
v 0.034739 0.099181 0.033568
v 0.036667 0.296487 0.034136
v 0.043206 0.505375 0.034071
v 0.039547 0.494047 -0.025277
v 0.039935 0.300099 -0.028227
v 0.042293 0.105205 -0.030593
v -0.042084 0.499282 0.029169
v -0.031744 0.298816 0.026825
v -0.040373 0.098919 0.028422
v -0.000125 0.499836 -0.037130
v 0.001080 0.300091 -0.038371
v -0.003497 0.097954 -0.035790
v 0.004727 0.493966 0.036638
v 0.005813 0.296032 0.036835
v 0.001675 0.101212 0.033710
v -0.049456 0.501897 0.004287
v -0.043186 0.300931 0.004042
v -0.051048 0.101213 -0.002886
v 0.045415 0.493180 0.006378
v 0.046562 0.302938 0.000867
v 0.048304 0.096811 -0.002308
v -0.040376 -0.038938 -0.031761
v 0.042359 -0.036769 -0.030781
v -0.041765 -0.038707 0.030112
v -0.001079 -0.039004 -0.038522
v 0.000517 -0.038000 0.037882
v -0.050421 -0.038000 -0.000890
v 0.049575 -0.039356 -0.000712
v 0.040027 -0.038626 0.031701
v -0.000000 -0.117776 0.000000
v -0.000000 -0.107413 0.046571
v 0.049669 -0.102851 0.036169
v -0.058756 -0.100000 -0.000000
v -0.049669 -0.102851 0.036169
v 0.058756 -0.100000 0.000000
v 0.049669 -0.102851 -0.036169
v 0.000000 -0.107413 -0.046571
v -0.049669 -0.102851 -0.036169
v 0.000000 0.906151 0.000000
v 0.004344 0.526002 0.000001
v 0.094024 0.663608 0.065157
v -0.029910 0.663607 0.105426
v -0.106507 0.663608 0.000001
v -0.029910 0.663607 -0.105425
v 0.094024 0.663608 -0.065155
v 0.046488 0.840148 0.129710
v -0.105994 0.840148 0.080165
v -0.105994 0.840148 -0.080163
v 0.046488 0.840148 -0.129709
v 0.140729 0.840147 0.000001
v 0.004344 0.954637 0.000001
v -0.015790 0.589764 0.061968
v 0.057056 0.589764 0.038298
v 0.044501 0.633847 0.123590
v 0.134294 0.633847 0.000001
v 0.057056 0.589764 -0.038296
v -0.060813 0.589764 0.000001
v -0.100788 0.633847 0.076383
v -0.015790 0.589764 -0.061966
v -0.100788 0.633847 -0.076382
v 0.044501 0.633847 -0.123588
v 0.115538 0.745514 0.000001
v 0.038705 0.745514 0.105753
v -0.085614 0.745514 0.065359
v -0.085614 0.745514 -0.065357
v 0.038705 0.745514 -0.105751
v 0.089635 0.841695 0.061968
v -0.028235 0.841695 0.100266
v -0.101082 0.841695 0.000001
v -0.028235 0.841695 -0.100264
v 0.089635 0.841695 -0.061966
v 0.022535 0.891282 0.055990
v 0.063215 0.891281 0.000001
v -0.043284 0.891282 0.034604
v -0.043284 0.891282 -0.034602
v 0.022535 0.891282 -0.055988
vn 0.9999 -0.0098 -0.0072
vn 0.9995 -0.0146 -0.0264
vn 0.6990 -0.0014 0.7151
vn 0.6855 -0.0047 0.7281
vn -0.0453 -0.0056 0.9990
vn -0.0233 -0.0055 0.9997
vn -0.6759 -0.0079 0.7369
vn -0.6637 -0.0198 0.7478
vn 0.0355 -0.0051 -0.9994
vn 0.0303 -0.0146 -0.9994
vn 0.7157 -0.0260 -0.6979
vn 0.7277 -0.0066 -0.6859
vn -0.9992 -0.0209 0.0339
vn -0.9999 -0.0032 0.0111
vn -0.6894 -0.0082 -0.7244
vn -0.6882 -0.0154 -0.7253
vn 0.6772 0.0762 -0.7318
vn 0.6874 0.0082 -0.7262
vn 0.9987 0.0090 0.0510
vn 0.9959 0.0847 0.0323
vn 0.7121 0.0093 -0.7020
vn 0.9998 0.0001 0.0221
vn -0.6611 0.0868 0.7453
vn -0.6466 0.0186 0.7626
vn -0.9995 0.0228 -0.0232
vn -0.9967 0.0766 -0.0267
vn -0.6317 -0.0038 0.7752
vn -0.9994 -0.0033 0.0341
vn 0.6407 0.0888 0.7626
vn 0.6034 0.0054 0.7974
vn -0.0545 0.0057 0.9985
vn -0.0195 0.0657 0.9976
vn 0.6260 -0.0086 0.7798
vn -0.0675 -0.0048 0.9977
vn -0.6339 0.0766 -0.7696
vn -0.6091 0.0139 -0.7930
vn 0.0118 0.0046 -0.9999
vn 0.0051 0.0589 -0.9982
vn -0.6444 0.0006 -0.7647
vn 0.0325 0.0033 -0.9995
vn 0.9887 0.1491 0.0153
vn 0.6550 0.1541 0.7398
vn -0.0063 0.1159 0.9932
vn -0.6526 0.1504 0.7426
vn 0.0016 0.1081 -0.9941
vn 0.6592 0.1434 -0.7382
vn -0.9895 0.1444 -0.0076
vn -0.6524 0.1423 -0.7444
vn -0.3030 -0.9302 0.2072
vn -0.3881 -0.9216 -0.0000
vn -0.0000 -1.0000 -0.0000
vn -0.0000 -0.9633 0.2684
vn -0.3030 -0.9302 -0.2072
vn -0.0000 -0.9633 -0.2684
vn 0.3030 -0.9302 -0.2072
vn 0.3881 -0.9216 -0.0000
vn 0.3030 -0.9302 0.2072
vn 0.3732 -0.8878 0.2694
vn -0.0000 -0.9147 0.4042
vn -0.3732 -0.8878 0.2694
vn -0.5711 -0.8209 -0.0000
vn 0.3732 -0.8878 -0.2694
vn 0.5711 -0.8209 -0.0000
vn -0.3732 -0.8878 -0.2694
vn -0.0000 -0.9147 -0.4042
vn 0.2382 -0.6372 0.7330
vn 0.1984 -0.7667 0.6106
vn 0.6880 -0.5262 0.4998
vn 0.5989 -0.5210 0.6081
vn -0.6235 -0.6372 0.4530
vn -0.5194 -0.7667 0.3774
vn -0.6235 -0.6372 -0.4530
vn -0.5194 -0.7667 -0.3774
vn 0.2382 -0.6372 -0.7330
vn 0.1984 -0.7667 -0.6106
vn 0.7955 0.1820 0.5780
vn 0.8700 0.1461 0.4709
vn 0.8181 0.0097 0.5750
vn -0.3039 0.1820 0.9352
vn -0.1791 0.1461 0.9729
vn -0.2941 0.0097 0.9557
vn -0.9833 0.1820 -0.0000
vn -0.9806 0.1461 0.1304
vn -0.9998 0.0097 0.0156
vn -0.3039 0.1820 -0.9352
vn -0.4270 0.1461 -0.8924
vn -0.3238 0.0097 -0.9461
vn 0.7955 0.1820 -0.5780
vn 0.7167 0.1461 -0.6819
vn 0.7997 0.0097 -0.6003
vn 0.7997 0.0097 0.6003
vn -0.3238 0.0097 0.9461
vn -0.9998 0.0097 -0.0156
vn -0.2941 0.0097 -0.9557
vn 0.8181 0.0097 -0.5750
vn 0.5342 0.7660 0.3577
vn 0.5217 0.7643 0.3790
vn 0.5751 0.7086 0.4090
vn -0.1751 0.7660 0.6186
vn -0.1993 0.7643 0.6133
vn -0.2112 0.7086 0.6733
vn -0.6424 0.7660 0.0246
vn -0.6449 0.7643 -0.0000
vn -0.7056 0.7086 0.0072
vn -0.2219 0.7660 -0.6034
vn -0.1993 0.7643 -0.6133
vn -0.2249 0.7086 -0.6689
vn 0.5053 0.7660 -0.3975
vn 0.5217 0.7643 -0.3790
vn 0.5667 0.7086 -0.4206
vn 0.5751 0.7086 -0.4090
vn 0.6467 0.6009 -0.4698
vn 0.5342 0.7660 -0.3577
vn -0.2112 0.7086 -0.6733
vn -0.2470 0.6009 -0.7602
vn -0.1751 0.7660 -0.6186
vn -0.7056 0.7086 -0.0072
vn -0.7993 0.6009 -0.0000
vn -0.6424 0.7660 -0.0246
vn -0.2249 0.7086 0.6689
vn -0.2470 0.6009 0.7602
vn -0.2219 0.7660 0.6034
vn 0.5667 0.7086 0.4206
vn 0.6467 0.6009 0.4698
vn 0.5053 0.7660 0.3975
vn 0.7950 -0.1850 -0.5776
vn 0.7534 -0.2005 -0.6262
vn 0.8284 -0.2005 -0.5230
vn -0.3037 -0.1850 -0.9346
vn -0.3628 -0.2005 -0.9101
vn -0.2415 -0.2005 -0.9495
vn -0.9827 -0.1850 -0.0000
vn -0.9776 -0.2005 0.0638
vn -0.9776 -0.2005 -0.0638
vn -0.3037 -0.1850 0.9346
vn -0.2414 -0.2005 0.9495
vn -0.3628 -0.2006 0.9100
vn 0.7950 -0.1850 0.5776
vn 0.8284 -0.2005 0.5230
vn 0.7534 -0.2005 0.6262
vn -0.1791 0.1461 -0.9729
vn -0.9806 0.1461 -0.1304
vn -0.4270 0.1461 0.8924
vn 0.7167 0.1461 0.6819
vn 0.8700 0.1461 -0.4709
vn 0.6880 -0.5262 -0.4998
vn 0.7635 -0.5210 -0.3817
vn 0.1532 -0.8685 -0.4714
vn -0.2628 -0.5262 -0.8087
vn -0.3933 -0.5210 -0.7575
vn -0.1271 -0.5210 -0.8440
vn -0.4010 -0.8685 -0.2914
vn -0.8504 -0.5262 -0.0000
vn -0.8420 -0.5210 0.1400
vn -0.8420 -0.5210 -0.1400
vn -0.4010 -0.8685 0.2914
vn -0.2628 -0.5262 0.8087
vn -0.1271 -0.5210 0.8440
vn 0.5989 -0.5210 -0.6081
vn 0.4957 -0.8685 -0.0000
vn 0.6421 -0.7667 -0.0000
vn 0.7707 -0.6372 -0.0000
vn -0.3933 -0.5210 0.7575
vn 0.1532 -0.8685 0.4714
vn 0.7635 -0.5210 0.3817
vt 0.020039 0.576088
vt 0.020582 0.600591
vt 0.019666 0.600591
vt 0.019777 0.577533
vt 0.015218 0.576181
vt 0.014658 0.600591
vt 0.009651 0.600591
vt 0.009672 0.576811
vt 0.014644 0.576876
vt 0.019344 0.576190
vt 0.008799 0.577120
vt 0.008734 0.600591
vt 0.009745 0.576999
vt 0.019677 0.513301
vt 0.019669 0.530122
vt 0.020381 0.529127
vt 0.020532 0.512994
vt 0.019390 0.553212
vt 0.020175 0.553548
vt 0.009710 0.513071
vt 0.009875 0.529377
vt 0.008610 0.529648
vt 0.008685 0.513155
vt 0.010897 0.553060
vt 0.009542 0.553311
vt 0.019401 0.513081
vt 0.018774 0.529408
vt 0.014857 0.529648
vt 0.014720 0.513155
vt 0.019002 0.552784
vt 0.015347 0.552730
vt 0.009875 0.513044
vt 0.010408 0.529288
vt 0.014244 0.529262
vt 0.014530 0.513036
vt 0.010838 0.553360
vt 0.014786 0.553211
vt 0.021620 0.505809
vt 0.020543 0.505472
vt 0.014658 0.504931
vt 0.008774 0.505472
vt 0.007697 0.505809
vt 0.095540 0.634567
vt 0.090680 0.634477
vt 0.128906 0.633878
vt 0.128906 0.634205
vt 0.162273 0.634567
vt 0.167132 0.634477
vt 0.171760 0.635346
vt 0.128906 0.634897
vt 0.086052 0.635346
vt 0.078212 0.635626
vt 0.179600 0.635626
vt 0.051787 0.614870
vt 0.039775 0.622651
vt 0.056376 0.622651
vt 0.031350 0.631663
vt 0.022173 0.628031
vt 0.066636 0.622651
vt 0.026447 0.641659
vt 0.059594 0.631663
vt 0.042636 0.628031
vt 0.051635 0.641659
vt 0.077049 0.631663
vt 0.075746 0.628031
vt 0.077033 0.641659
vt 0.067543 0.641659
vt 0.036279 0.641659
vt 0.036279 0.641659
vt 0.067543 0.641659
vt 0.051635 0.641659
vt 0.042183 0.653208
vt 0.032350 0.653397
vt 0.047642 0.659449
vt 0.076932 0.653208
vt 0.059212 0.653397
vt 0.062641 0.659449
vt 0.075813 0.653397
vt 0.020706 0.653208
vt 0.038371 0.659449
vt 0.051787 0.667181
s 1
usemtl Material
f 38/1/1 14/2/2 7/3/3 22/4/4
f 32/5/5 11/6/6 5/7/7 26/8/8
f 29/9/9 10/6/10 3/3/11 23/10/12
f 35/11/13 16/12/14 1/7/15 17/13/16
f 17/13/16 1/7/15 10/6/10 29/9/9
f 22/4/4 7/3/3 11/6/6 32/5/5
f 26/8/8 5/7/7 16/12/14 35/11/13
f 23/10/12 3/3/11 14/2/2 38/1/1
f 42/14/17 25/15/18 40/16/19 47/17/20
f 25/15/18 24/18/21 39/19/22 40/16/19
f 24/18/21 23/10/12 38/1/1 39/19/22
f 43/20/23 28/21/24 37/22/25 46/23/26
f 28/21/24 27/24/27 36/25/28 37/22/25
f 27/24/27 26/8/8 35/11/13 36/25/28
f 48/26/29 20/27/30 34/28/31 45/29/32
f 20/27/30 21/30/33 33/31/34 34/28/31
f 21/30/33 22/4/4 32/5/5 33/31/34
f 41/32/35 19/33/36 31/34/37 44/35/38
f 19/33/36 18/36/39 30/37/40 31/34/37
f 18/36/39 17/13/16 29/9/9 30/37/40
f 46/23/26 37/22/25 19/33/36 41/32/35
f 37/22/25 36/25/28 18/36/39 19/33/36
f 36/25/28 35/11/13 17/13/16 18/36/39
f 44/35/38 31/34/37 25/15/18 42/14/17
f 31/34/37 30/37/40 24/18/21 25/15/18
f 30/37/40 29/9/9 23/10/12 24/18/21
f 45/29/32 34/28/31 28/21/24 43/20/23
f 34/28/31 33/31/34 27/24/27 28/21/24
f 33/31/34 32/5/5 26/8/8 27/24/27
f 47/17/20 40/16/19 20/27/30 48/26/29
f 40/16/19 39/19/22 21/30/33 20/27/30
f 39/19/22 38/1/1 22/4/4 21/30/33
f 54/38/41 47/17/20 48/26/29 51/39/42
f 50/40/43 45/29/32 43/20/23 53/41/44
f 56/40/45 44/35/38 42/14/17 55/39/46
f 52/42/47 46/23/26 41/32/35 57/41/48
f 57/41/48 41/32/35 44/35/38 56/40/45
f 51/39/42 48/26/29 45/29/32 50/40/43
f 53/41/44 43/20/23 46/23/26 52/42/47
f 55/39/46 42/14/17 47/17/20 54/38/41
f 6/43/49 13/44/50 49/45/51 9/46/52
f 2/43/53 12/46/54 49/45/51 13/44/50
f 4/47/55 15/48/56 49/45/51 12/46/54
f 8/47/57 9/46/52 49/45/51 15/48/56
f 9/46/52 8/47/57 51/49/58 50/50/59
f 13/44/50 6/43/49 53/51/60 52/52/61
f 15/48/56 4/47/55 55/49/62 54/53/63
f 12/46/54 2/43/53 57/51/64 56/50/65
f 6/43/49 9/46/52 50/50/59 53/51/60
f 4/47/55 12/46/54 56/50/65 55/49/62
f 2/43/53 13/44/50 52/52/61 57/51/64
f 8/47/57 15/48/56 54/53/63 51/49/58
f 59/54/66 72/55/67 71/56/67
f 60/57/68 72/55/68 74/58/69
f 59/54/70 71/56/71 76/59/71
f 59/54/72 76/59/73 78/56/73
f 59/54/74 78/56/75 75/55/75
f 60/57/76 74/58/77 81/60/78
f 61/61/79 73/62/80 82/63/81
f 62/64/82 77/65/83 83/66/84
f 63/61/85 79/65/86 84/67/87
f 64/57/88 80/62/89 85/68/90
f 60/57/76 81/60/78 82/69/91
f 61/61/79 82/63/81 83/70/92
f 62/64/82 83/66/84 84/66/93
f 63/61/85 84/67/87 85/71/94
f 64/57/88 85/68/90 81/60/95
f 65/72/96 86/73/97 91/74/98
f 66/75/99 87/76/100 93/77/101
f 67/75/102 88/78/103 94/77/104
f 68/72/105 89/76/106 95/74/107
f 69/79/108 90/73/109 92/80/110
f 92/80/110 95/74/111 70/81/112
f 92/80/110 90/73/109 95/74/111
f 90/73/109 68/72/113 95/74/111
f 95/74/107 94/77/114 70/81/115
f 95/74/107 89/76/106 94/77/114
f 89/76/106 67/75/116 94/77/114
f 94/77/104 93/77/117 70/81/118
f 94/77/104 88/78/103 93/77/117
f 88/78/103 66/75/119 93/77/117
f 93/77/101 91/74/120 70/81/121
f 93/77/101 87/76/100 91/74/120
f 87/76/100 65/72/122 91/74/120
f 91/74/98 92/80/123 70/81/124
f 91/74/98 86/73/97 92/80/123
f 86/73/97 69/79/125 92/80/123
f 81/60/95 90/73/126 69/79/127
f 81/60/95 85/68/90 90/73/126
f 85/68/90 68/72/128 90/73/126
f 85/71/94 89/76/129 68/72/130
f 85/71/94 84/67/87 89/76/129
f 84/67/87 67/75/131 89/76/129
f 84/66/93 88/78/132 67/75/133
f 84/66/93 83/66/84 88/78/132
f 83/66/84 66/75/134 88/78/132
f 83/70/92 87/76/135 66/75/136
f 83/70/92 82/63/81 87/76/135
f 82/63/81 65/72/137 87/76/135
f 82/69/91 86/73/138 65/72/139
f 82/69/91 81/60/78 86/73/138
f 81/60/78 69/79/140 86/73/138
f 80/62/141 63/61/85 85/71/94
f 79/65/142 62/64/82 84/66/93
f 77/65/143 61/61/79 83/70/92
f 73/62/144 60/57/76 82/69/91
f 74/58/145 64/57/88 81/60/95
f 75/55/146 80/62/147 64/57/146
f 75/55/75 78/56/75 80/62/148
f 78/56/149 63/61/149 80/62/150
f 78/56/149 79/65/151 63/61/149
f 78/56/73 76/59/73 79/65/152
f 76/59/153 62/64/153 79/65/154
f 76/59/153 77/65/155 62/64/153
f 76/59/71 71/56/71 77/65/156
f 71/56/157 61/61/157 77/65/158
f 74/58/159 75/55/146 64/57/146
f 74/58/160 72/55/161 75/55/161
f 72/55/161 59/54/162 75/55/161
f 71/56/157 73/62/163 61/61/157
f 71/56/67 72/55/67 73/62/164
f 72/55/68 60/57/68 73/62/165
