# Blender 5.0.0
# www.blender.org
mtllib Sabre_04.mtl
o Sabre_04
v -0.032289 0.074751 -0.027007
v 0.033956 0.074730 0.027264
v 0.038159 0.078546 -0.025281
v -0.034530 0.074845 0.023723
v -0.001010 0.074499 -0.030332
v 0.002773 0.075846 0.028993
v -0.041928 0.076398 -0.000969
v 0.042586 0.074121 -0.001524
v -0.034146 -0.018336 -0.026337
v 0.039260 -0.016226 -0.025699
v -0.035349 -0.018148 0.024849
v 0.000642 -0.018410 -0.031493
v 0.002450 -0.017435 0.030854
v -0.041637 -0.017403 -0.000707
v 0.044311 -0.018846 -0.001020
v 0.037183 -0.018106 0.026387
v -0.000000 -0.094381 0.043183
v 0.046055 -0.094381 0.033537
v -0.054481 -0.094381 -0.000000
v -0.046055 -0.094381 0.033537
v 0.054481 -0.094381 0.000000
v 0.046055 -0.094381 -0.033537
v 0.000000 -0.094381 -0.043183
v -0.046055 -0.094381 -0.033537
v 0.041812 0.171765 -0.001810
v -0.041248 0.171736 -0.000865
v 0.003756 0.171777 0.027768
v -0.001467 0.171799 -0.029595
v -0.033056 0.171728 0.022791
v 0.037774 0.171778 -0.024908
v 0.032233 0.171770 0.027941
v -0.030294 0.171768 -0.027325
v -0.092643 0.879329 0.022170
v 0.011606 0.243353 0.024245
v 0.011606 0.243353 -0.024351
v -0.092643 0.879329 -0.022276
v 0.002095 1.000049 0.017751
v 0.002095 1.000049 -0.017857
v -0.000000 0.225950 0.026276
v -0.021384 0.851477 0.021229
v 0.000000 0.225950 -0.026383
v -0.021384 0.851477 -0.021335
v 0.131613 1.024537 0.013226
v 0.131613 1.024537 -0.013333
v -0.122422 0.704689 0.025466
v -0.122422 0.704689 -0.025573
v -0.035266 0.677865 -0.024870
v -0.035266 0.677865 0.024764
v -0.039194 0.310088 0.028182
v -0.039194 0.310088 -0.028288
v 0.007510 0.310088 -0.028275
v 0.007510 0.310088 0.028169
v -0.026703 0.243347 0.024283
v -0.018351 0.225950 0.026276
v -0.018351 0.225950 -0.026383
v -0.026703 0.243347 -0.024389
v -0.116921 0.898009 -0.000053
v -0.003147 1.040198 -0.000053
v 0.168229 1.100949 -0.000053
v 0.000000 0.225950 -0.000053
v -0.153800 0.716443 -0.000053
v -0.071379 0.310088 -0.000053
v -0.031333 0.225950 -0.000053
v -0.053804 0.243347 -0.000053
v -0.055643 0.411706 0.027849
v -0.055643 0.411706 -0.027955
v -0.006750 0.411905 -0.027965
v -0.006750 0.411905 0.027859
v -0.087360 0.411706 -0.000053
v -0.109054 0.572203 0.026800
v -0.109054 0.572203 -0.026906
v -0.022271 0.541844 -0.027078
v -0.022271 0.541844 0.026972
v -0.144546 0.577275 -0.000053
v 0.058880 0.816667 0.020548
v 0.058880 0.816667 -0.020654
v 0.041512 0.672875 0.024465
v 0.041512 0.672875 -0.024572
v 0.046129 0.309067 0.028182
v 0.046129 0.309067 -0.028288
v 0.049916 0.243347 0.024283
v 0.018351 0.225950 0.026276
v 0.018351 0.225950 -0.026383
v 0.049916 0.243347 -0.024389
v 0.031333 0.225950 -0.000053
v 0.042887 0.411878 0.027849
v 0.042887 0.411878 -0.027955
v 0.041288 0.522060 0.027304
v 0.041288 0.522060 -0.027410
v 0.086763 0.209103 0.000000
v 0.086763 0.250591 0.000000
v 0.040545 0.186733 0.034107
v -0.040545 0.186733 0.034107
v -0.000000 0.187267 0.046933
v -0.051983 0.250042 0.046933
v 0.051983 0.250042 0.046933
v -0.000000 0.250042 0.046933
v -0.040545 0.186733 -0.034107
v 0.040545 0.186733 -0.034107
v 0.000000 0.186734 -0.037914
v 0.051983 0.250042 -0.046933
v -0.051983 0.250042 -0.046933
v 0.000000 0.250042 -0.046933
v 0.054806 0.253454 0.000000
v 0.000000 0.253461 0.000000
v -0.054806 0.253454 -0.000000
v 0.047452 0.183822 0.000000
v -0.047452 0.183822 -0.000000
v 0.084339 0.211448 0.042519
v 0.084339 0.248246 0.042519
v 0.084339 0.211448 -0.042519
v 0.084339 0.248246 -0.042519
v 0.051983 0.187267 -0.046933
v 0.054806 0.183854 0.000000
v -0.051983 0.187267 0.046933
v -0.054806 0.183854 -0.000000
v 0.000000 0.187267 -0.046933
v 0.051983 0.187267 0.046933
v -0.000000 0.186734 0.037914
v -0.051983 0.187267 -0.046933
v -0.000000 0.162216 0.037914
v 0.000000 0.162216 0.000000
v 0.000000 0.162216 -0.037914
v -0.047452 0.162216 -0.000000
v 0.047452 0.162216 0.000000
v 0.040545 0.162216 -0.034107
v -0.040545 0.162216 0.034107
v 0.040545 0.162216 0.034107
v -0.040545 0.162216 -0.034107
v -0.070072 -0.121105 -0.025264
v -0.068750 -0.088409 -0.025264
v -0.070072 -0.121105 0.025264
v -0.068750 -0.088409 0.025264
v -0.069387 -0.125520 0.000000
v -0.067728 -0.084473 0.000000
v -0.057635 -0.121105 -0.048436
v -0.056314 -0.088409 -0.048436
v -0.057635 -0.121105 0.048034
v -0.056314 -0.088409 0.048035
v -0.056950 -0.125520 0.000000
v -0.055291 -0.084473 0.000000
v -0.000349 -0.121105 -0.060663
v 0.000972 -0.088409 -0.060663
v -0.000349 -0.121105 0.058402
v 0.000972 -0.088409 0.058402
v 0.000336 -0.125520 -0.001131
v 0.001995 -0.084473 -0.001131
v 0.057794 -0.121105 -0.043407
v 0.059115 -0.088409 -0.043407
v 0.057794 -0.121105 0.041145
v 0.059115 -0.088409 0.041145
v 0.069785 -0.125520 -0.001131
v 0.071444 -0.084473 -0.001131
v -0.154621 0.122108 0.000000
v -0.114136 0.185163 -0.000000
v -0.141518 0.175093 -0.000000
v -0.150535 0.233939 -0.000000
v -0.203077 0.134054 -0.000000
v -0.214090 0.222748 -0.000000
v -0.140031 -0.117146 -0.025264
v -0.195331 -0.012470 -0.025264
v -0.204139 -0.109548 -0.025264
v -0.154538 -0.005529 -0.025264
v -0.122693 -0.084823 -0.025264
v -0.145989 -0.068724 -0.025264
v -0.116703 0.188048 0.036838
v -0.159252 0.123944 0.025264
v -0.147338 0.180157 0.028654
v -0.195331 -0.012470 0.025264
v -0.140031 -0.117146 0.025264
v -0.204139 -0.109548 0.025264
v -0.122693 -0.084823 0.025264
v -0.154538 -0.005529 0.025264
v -0.145989 -0.068724 0.025264
v -0.197798 0.133446 0.025264
v -0.146295 0.231121 0.032430
v -0.205872 0.219521 0.027363
v -0.141606 -0.121127 0.000000
v -0.200843 -0.014251 0.000000
v -0.210896 -0.116389 0.000000
v -0.159252 0.123944 -0.025264
v -0.116703 0.188048 -0.036838
v -0.147338 0.180157 -0.028654
v -0.146295 0.231121 -0.032430
v -0.197798 0.133446 -0.025264
v -0.205872 0.219521 -0.027363
v -0.149698 -0.005548 0.000000
v -0.119997 -0.081231 0.000000
v -0.137972 -0.065031 0.000000
vn 0.6890 0.0812 -0.7202
vn 0.6871 0.0112 -0.7265
vn 0.9986 0.0151 0.0506
vn 0.9967 0.0774 0.0257
vn -0.6684 0.1031 0.7366
vn -0.6549 0.0137 0.7556
vn -0.9995 0.0095 -0.0294
vn -0.9960 0.0875 -0.0192
vn 0.6600 0.0912 0.7457
vn 0.6207 0.0141 0.7839
vn -0.0422 0.0098 0.9991
vn -0.0153 0.0767 0.9969
vn -0.6492 0.0950 -0.7546
vn -0.6186 0.0072 -0.7857
vn 0.0097 0.0057 -0.9999
vn 0.0031 0.0725 -0.9974
vn 0.9916 0.1287 0.0146
vn 0.6768 0.1572 0.7192
vn -0.0092 0.1426 0.9897
vn -0.6791 0.1838 0.7107
vn -0.0028 0.1354 -0.9908
vn 0.6819 0.1479 -0.7163
vn -0.9856 0.1687 -0.0080
vn -0.6771 0.1774 -0.7142
vn 0.6872 0.0077 -0.7265
vn 0.9981 0.0091 0.0612
vn -0.6410 0.0146 0.7674
vn -0.9994 0.0130 -0.0309
vn 0.5978 0.0089 0.8016
vn -0.0552 0.0079 0.9984
vn -0.5956 0.0090 -0.8032
vn 0.0149 0.0046 -0.9999
vn 0.0095 0.0176 0.9998
vn 0.0198 0.0210 0.9996
vn 0.0218 0.0183 0.9996
vn 0.0128 0.0161 0.9998
vn -0.6163 0.0498 -0.7859
vn -0.5113 0.2541 -0.8210
vn -0.5334 0.2258 -0.8152
vn -0.6188 0.0232 -0.7852
vn -0.5113 0.2541 0.8210
vn -0.5334 0.2258 0.8152
vn -0.2875 0.3270 0.9002
vn -0.1876 0.3048 0.9338
vn 0.0198 0.0210 -0.9996
vn 0.0218 0.0183 -0.9996
vn 0.0275 0.0190 -0.9994
vn 0.0250 0.0224 -0.9994
vn -0.0629 0.2729 0.9600
vn 0.0250 0.0224 0.9994
vn 0.0275 0.0190 0.9994
vn 0.0128 0.0161 -0.9998
vn 0.0095 0.0176 -0.9998
vn 0.0053 0.0117 -0.9999
vn 0.0020 0.0113 -0.9999
vn -0.6269 -0.1146 -0.7706
vn -0.6276 -0.1436 -0.7652
vn 0.0020 0.0113 0.9999
vn 0.0053 0.0117 0.9999
vn -0.6539 -0.1688 -0.7375
vn -0.6557 -0.1330 -0.7432
vn -0.6555 -0.1386 -0.7424
vn -0.0000 -1.0000 -0.0000
vn -0.0005 -0.0588 0.9983
vn -0.0002 -0.0275 0.9996
vn 0.0003 -0.0242 0.9997
vn 0.0006 -0.0584 0.9983
vn 0.0006 -0.0584 -0.9983
vn 0.0003 -0.0242 -0.9997
vn -0.0002 -0.0275 -0.9996
vn -0.0005 -0.0588 -0.9983
vn -0.6539 -0.1688 0.7375
vn -0.6555 -0.1386 0.7424
vn -0.6557 -0.1330 0.7432
vn -0.6276 -0.1436 0.7652
vn -0.6188 0.0232 0.7852
vn -0.6163 0.0498 0.7859
vn -0.6269 -0.1146 0.7706
vn -0.2875 0.3270 -0.9002
vn -0.1876 0.3048 -0.9338
vn -0.0629 0.2729 -0.9600
vn -0.6445 -0.1506 0.7496
vn -0.6410 -0.1631 0.7500
vn -0.0004 0.0047 1.0000
vn 0.0001 0.0052 1.0000
vn -0.6410 -0.1631 -0.7500
vn -0.6445 -0.1506 -0.7496
vn 0.0001 0.0052 -1.0000
vn -0.0004 0.0047 -1.0000
vn 0.0074 0.0200 0.9998
vn 0.0158 0.0248 0.9996
vn 0.9997 0.0230 -0.0000
vn 1.0000 0.0066 -0.0000
vn 0.0158 0.0248 -0.9996
vn 0.0074 0.0200 -0.9998
vn 0.0001 0.0106 -0.9999
vn 0.9745 -0.2244 -0.0000
vn 0.9256 -0.3786 -0.0000
vn 0.0001 0.0106 0.9999
vn 0.9990 0.0443 -0.0000
vn -0.0015 -0.0590 0.9983
vn -0.0008 -0.0294 0.9996
vn -0.0015 -0.0590 -0.9983
vn -0.0008 -0.0294 -0.9996
vn 0.9983 0.0575 -0.0000
vn 0.9982 -0.0599 -0.0000
vn -0.0009 0.0045 1.0000
vn -0.0009 0.0045 -1.0000
vn -0.0000 0.9974 0.0726
vn -0.0000 1.0000 -0.0000
vn -0.0001 1.0000 -0.0000
vn -0.0001 0.9974 0.0726
vn 0.6131 -0.7900 -0.0000
vn 0.6108 -0.7870 -0.0865
vn 0.0768 0.9947 -0.0685
vn 0.0770 0.9970 -0.0000
vn 0.0001 0.9974 0.0726
vn 0.0001 1.0000 -0.0000
vn 0.9801 -0.0000 -0.1985
vn 1.0000 -0.0000 -0.0000
vn -0.0000 -0.0000 -1.0000
vn 0.0935 -0.0000 -0.9956
vn 0.0001 0.9974 -0.0726
vn -0.0000 0.9974 -0.0726
vn -0.0001 0.9974 -0.0726
vn 0.0935 -0.0000 0.9956
vn -0.0000 -0.0000 1.0000
vn -0.0935 -0.0000 0.9956
vn 0.0665 -0.0000 -0.9978
vn 0.0505 -0.0000 -0.9987
vn -0.0763 -0.0008 -0.9971
vn -0.0715 -0.0007 -0.9974
vn -0.0715 -0.0007 0.9974
vn -0.0763 -0.0008 0.9971
vn 0.0505 -0.0000 0.9987
vn 0.0665 -0.0000 0.9978
vn 0.6108 -0.7870 0.0865
vn 0.0768 0.9947 0.0685
vn 0.1352 -0.0000 0.9908
vn 0.9984 -0.0000 0.0569
vn 0.1352 -0.0000 -0.9908
vn 0.9984 -0.0000 -0.0569
vn -0.0214 -0.9998 -0.0000
vn -0.0097 -0.9981 -0.0615
vn -0.0093 -0.9981 -0.0610
vn 0.0214 -0.9998 -0.0000
vn 0.0097 -0.9981 0.0615
vn 0.0093 -0.9981 0.0610
vn -0.0000 -0.9989 -0.0477
vn -0.0097 -0.9981 0.0615
vn -0.0093 -0.9981 0.0610
vn -0.0000 -0.9989 0.0477
vn 0.0097 -0.9981 -0.0615
vn 0.0093 -0.9981 -0.0610
vn -1.0000 -0.0000 -0.0000
vn -0.9801 -0.0000 -0.1985
vn -0.0935 -0.0000 -0.9956
vn 0.9801 -0.0000 0.1985
vn -0.9801 -0.0000 0.1985
vn 0.9018 -0.4321 -0.0000
vn -0.0352 0.9919 -0.1220
vn -0.0180 0.9998 0.0002
vn -0.0510 0.9987 0.0007
vn -0.0284 0.9964 -0.0796
vn -0.0344 0.9919 0.1224
vn -0.0267 0.9964 0.0801
vn -0.0842 -0.9965 0.0002
vn -0.0891 -0.9869 -0.1349
vn -0.0318 -0.9955 -0.0894
vn -0.0578 -0.9983 0.0008
vn -0.8771 0.0355 0.4790
vn -0.8805 0.0356 -0.4726
vn -0.0883 -0.9869 0.1353
vn -0.0298 -0.9955 0.0900
vn 0.0008 -0.9964 -0.0845
vn 0.0020 -1.0000 -0.0004
vn -0.1781 0.0072 0.9840
vn 0.0488 -0.0020 0.9988
vn 0.0606 -0.0025 0.9982
vn 0.0022 -0.9964 0.0847
vn 0.0018 1.0000 -0.0004
vn 0.0007 0.9972 -0.0754
vn -0.2087 0.0084 -0.9779
vn 0.0454 -0.0018 -0.9990
vn 0.0328 -0.0013 -0.9995
vn 0.0019 0.9971 0.0755
vn 0.0106 0.9999 -0.0000
vn 0.0106 0.9969 -0.0785
vn 0.2845 -0.0115 -0.9586
vn 0.0106 0.9969 0.0785
vn 0.0119 -0.9961 -0.0879
vn 0.0119 -0.9999 -0.0000
vn 0.2845 -0.0115 0.9586
vn 0.0119 -0.9961 0.0879
vn 0.9602 -0.0388 -0.2764
vn 0.9992 -0.0404 -0.0000
vn 0.9602 -0.0388 0.2764
vn 0.9744 -0.1017 0.2005
vn 0.9957 -0.0922 -0.0000
vn 0.7207 -0.6933 -0.0000
vn 0.6683 -0.7148 0.2058
vn 0.1222 -0.9925 -0.0000
vn 0.1123 -0.9875 0.1104
vn -0.1964 0.9740 0.1129
vn -0.1958 0.9807 -0.0000
vn -0.8228 0.5683 -0.0000
vn -0.7389 0.6264 0.2484
vn -0.9979 -0.0648 -0.0000
vn -0.9726 -0.0613 0.2244
vn -0.9726 -0.0613 -0.2244
vn -0.7389 0.6264 -0.2484
vn -0.1964 0.9740 -0.1129
vn 0.1123 -0.9875 -0.1104
vn 0.6683 -0.7148 -0.2058
vn 0.9744 -0.1017 -0.2005
vn -0.1447 -0.0262 0.9891
vn -0.1385 -0.0452 0.9893
vn -0.0783 -0.0532 0.9955
vn -0.0850 -0.0555 0.9948
vn -0.0191 -0.0223 0.9996
vn -0.0146 -0.0171 0.9997
vn -0.1385 -0.0452 -0.9893
vn -0.1447 -0.0262 -0.9891
vn -0.0850 -0.0555 -0.9948
vn -0.0783 -0.0532 -0.9955
vn -0.0146 -0.0171 -0.9997
vn -0.0191 -0.0223 -0.9996
vn 0.9710 0.0969 -0.2187
vn 0.9949 0.1008 -0.0000
vn 0.9866 0.1631 -0.0000
vn 0.9542 0.1577 -0.2543
vn 0.5987 0.7650 -0.2372
vn 0.6163 0.7875 -0.0000
vn 0.3464 0.9381 -0.0000
vn 0.3556 0.9119 -0.2048
vn -0.0734 -0.9785 -0.1929
vn -0.0758 -0.9971 -0.0000
vn -0.0921 -0.9958 -0.0000
vn -0.0898 -0.9707 -0.2227
vn -0.9711 0.0919 -0.2201
vn -0.9955 0.0943 -0.0000
vn -0.9991 0.0418 -0.0000
vn -0.9760 0.0356 -0.2147
vn -0.9760 0.0356 0.2147
vn -0.9711 0.0919 0.2201
vn -0.0898 -0.9707 0.2227
vn -0.0734 -0.9785 0.1929
vn 0.3556 0.9119 0.2049
vn 0.5987 0.7650 0.2373
vn 0.9542 0.1577 0.2543
vn 0.9710 0.0969 0.2187
vn -0.0229 -0.9969 -0.0750
vn -0.0230 -0.9997 -0.0000
vn -0.0229 -0.9969 0.0750
vn -0.2043 0.9743 0.0947
vn -0.2052 0.9787 -0.0000
vn -0.2043 0.9743 -0.0947
vt 0.019677 0.513301
vt 0.019641 0.524874
vt 0.020428 0.524353
vt 0.020532 0.512994
vt 0.009710 0.513071
vt 0.009914 0.524438
vt 0.008751 0.524619
vt 0.008685 0.513155
vt 0.019401 0.513081
vt 0.019093 0.524424
vt 0.014848 0.524554
vt 0.014720 0.513155
vt 0.009875 0.513044
vt 0.010207 0.524422
vt 0.014440 0.524391
vt 0.014530 0.513036
vt 0.021620 0.505809
vt 0.020543 0.505472
vt 0.014658 0.504931
vt 0.008774 0.505472
vt 0.007697 0.505809
vt 0.019603 0.534312
vt 0.020344 0.533691
vt 0.010107 0.533750
vt 0.008839 0.534002
vt 0.018879 0.533706
vt 0.014963 0.533863
vt 0.010469 0.533759
vt 0.014397 0.533705
vt 0.028845 0.880355
vt 0.025953 0.911805
vt 0.036800 0.904396
vt 0.038656 0.874466
vt 0.046219 0.924700
vt 0.044137 0.947462
vt 0.038413 0.946775
vt 0.039771 0.924884
vt 0.031190 0.967215
vt 0.034205 0.971945
vt 0.025953 0.911805
vt 0.026924 0.932342
vt 0.016750 0.944168
vt 0.023749 0.975866
vt 0.019897 0.991743
vt 0.026924 0.932342
vt 0.028845 0.880355
vt 0.039912 0.853459
vt 0.028456 0.853285
vt 0.047679 0.908981
vt 0.040690 0.909519
vt 0.028456 0.853285
vt 0.039912 0.853459
vt 0.041366 0.844133
vt 0.051307 0.860019
vt 0.043915 0.862284
vt 0.036574 0.844133
vt 0.035834 0.838744
vt 0.033335 0.838744
vt 0.029801 0.838744
vt 0.025080 0.764064
vt 0.028882 0.798625
vt 0.044321 0.788879
vt 0.034285 0.764062
vt 0.040690 0.909519
vt 0.031190 0.967215
vt 0.042559 0.881321
vt 0.049965 0.879841
vt 0.027485 0.822561
vt 0.042468 0.814907
vt 0.042559 0.881321
vt 0.027485 0.822561
vt 0.037538 0.882025
vt 0.033164 0.911607
vt 0.042559 0.881321
vt 0.042559 0.881321
vt 0.041037 0.903712
vt 0.041037 0.903712
vt 0.033164 0.911607
vt 0.040387 0.845519
vt 0.035754 0.952050
vt 0.040387 0.845519
vt 0.038953 0.930413
vt 0.116318 0.943057
vt 0.118471 0.945210
vt 0.130648 0.933025
vt 0.126517 0.932859
vt 0.163338 0.886102
vt 0.163172 0.890233
vt 0.139608 0.870524
vt 0.140179 0.866549
vt 0.123646 0.929758
vt 0.119515 0.929924
vt 0.099962 0.906765
vt 0.103937 0.906194
vt 0.131692 0.942109
vt 0.133845 0.939956
vt 0.220033 0.760048
vt 0.236855 0.767138
vt 0.236855 0.819757
vt 0.220033 0.819757
vt 0.121292 0.760047
vt 0.121292 0.819757
vt 0.022551 0.760048
vt 0.022551 0.819757
vt 0.173370 0.900431
vt 0.076793 0.903531
vt 0.086991 0.893333
vt 0.103937 0.906194
vt 0.164973 0.887736
vt 0.164692 0.891083
vt 0.085190 0.890836
vt 0.085471 0.894183
vt 0.086825 0.889202
vt 0.173706 0.900095
vt 0.164692 0.891082
vt 0.173706 0.900095
vt 0.076457 0.903196
vt 0.085471 0.894183
vt 0.005729 0.819757
vt 0.005729 0.767138
vt 0.202659 0.796588
vt 0.200505 0.793222
vt 0.226628 0.819345
vt 0.223262 0.817191
vt 0.200505 0.793222
vt 0.135560 0.848055
vt 0.140881 0.848259
vt 0.191269 0.855441
vt 0.195752 0.855915
vt 0.226306 0.819139
vt 0.218686 0.812615
vt 0.226628 0.819345
vt 0.223262 0.817191
vt 0.223262 0.817191
vt 0.218686 0.812615
vt 0.191269 0.855441
vt 0.140881 0.848259
vt 0.202659 0.796588
vt 0.223262 0.817191
vt 0.202659 0.796588
vt 0.202550 0.796417
vt 0.218161 0.812090
vt 0.202659 0.796588
vt 0.202659 0.796588
vt 0.218161 0.812090
vt 0.202550 0.796417
vt 0.223262 0.817191
vt 0.200505 0.793222
vt 0.226628 0.819345
vt 0.226268 0.819114
vt 0.226628 0.819345
s 1
usemtl Material
f 10/1/1 3/2/2 8/3/3 15/4/4
f 11/5/5 4/6/6 7/7/7 14/8/8
f 16/9/9 2/10/10 6/11/11 13/12/12
f 9/13/13 1/14/14 5/15/15 12/16/16
f 14/8/8 7/7/7 1/14/14 9/13/13
f 12/16/16 5/15/15 3/2/2 10/1/1
f 13/12/12 6/11/11 4/6/6 11/5/5
f 15/4/4 8/3/3 2/10/10 16/9/9
f 21/17/17 15/4/4 16/9/9 18/18/18
f 17/19/19 13/12/12 11/5/5 20/20/20
f 23/19/21 12/16/16 10/1/1 22/18/22
f 19/21/23 14/8/8 9/13/13 24/20/24
f 24/20/24 9/13/13 12/16/16 23/19/21
f 18/18/18 16/9/9 13/12/12 17/19/19
f 20/20/20 11/5/5 14/8/8 19/21/23
f 22/18/22 10/1/1 15/4/4 21/17/17
f 3/2/2 30/22/25 25/23/26 8/3/3
f 4/6/6 29/24/27 26/25/28 7/7/7
f 2/10/10 31/26/29 27/27/30 6/11/11
f 1/14/14 32/28/31 28/29/32 5/15/15
f 7/7/7 26/25/28 32/28/31 1/14/14
f 5/15/15 28/29/32 30/22/25 3/2/2
f 6/11/11 27/27/30 29/24/27 4/6/6
f 8/3/3 25/23/26 31/26/29 2/10/10
f 48/30/33 40/31/34 33/32/35 45/33/36
f 61/34/37 57/35/38 36/36/39 46/37/40
f 57/35/41 33/36/42 37/38/43 58/39/44
f 42/40/45 36/32/46 38/41/47 44/42/48
f 58/39/44 37/38/43 43/43/49 59/44/49
f 33/32/35 40/31/34 43/42/50 37/45/51
f 46/33/52 36/32/46 42/40/45 47/46/53
f 71/47/54 46/33/52 47/46/53 72/48/55
f 74/49/56 61/34/37 46/37/40 71/50/57
f 73/51/58 48/30/33 45/33/36 70/52/59
f 64/53/60 62/54/61 50/55/62 56/56/60
f 63/57/63 55/58/63 41/59/63 60/59/63
f 34/60/64 52/61/65 49/62/66 53/63/67
f 56/63/68 50/62/69 51/61/70 35/60/71
f 54/58/63 63/57/63 60/59/63 39/59/63
f 53/56/72 49/55/73 62/54/74 64/53/72
f 70/64/75 45/37/76 61/34/77 74/49/78
f 38/65/79 58/39/80 59/44/81 44/43/81
f 36/36/39 57/35/38 58/39/80 38/65/79
f 45/37/76 33/36/42 57/35/41 61/34/77
f 49/55/73 65/66/82 69/67/83 62/54/74
f 52/61/65 68/68/84 65/69/85 49/62/66
f 62/54/61 69/67/86 66/70/87 50/55/62
f 50/62/69 66/69/88 67/71/89 51/61/70
f 65/66/82 70/64/75 74/49/78 69/67/83
f 68/68/84 73/51/58 70/52/59 65/69/85
f 69/67/86 74/49/56 71/50/57 66/70/87
f 66/69/88 71/47/54 72/48/55 67/71/89
f 48/30/33 77/72/90 75/73/91 40/31/34
f 86/74/92 87/75/92 89/76/93 88/77/93
f 42/40/45 44/42/48 76/78/94
f 75/73/91 43/42/50 40/31/34
f 78/72/95 47/46/53 42/40/45 76/78/94
f 89/79/96 72/48/55 47/46/53 78/72/95
f 76/80/97 44/43/98 43/43/98 75/80/97
f 73/51/58 88/81/99 77/72/90 48/30/33
f 80/55/100 87/75/92 86/74/92 79/55/100
f 85/57/63 60/59/63 41/59/63 83/58/63
f 34/60/64 81/63/101 79/62/102 52/61/65
f 84/63/103 35/60/71 51/61/70 80/62/104
f 82/58/63 39/59/63 60/59/63 85/57/63
f 81/56/105 84/56/105 80/55/100 79/55/100
f 77/82/106 78/82/106 76/80/97 75/80/97
f 52/61/65 79/62/102 86/69/107 68/68/84
f 80/62/104 51/61/70 67/71/89 87/69/108
f 88/77/93 89/76/93 78/82/106 77/82/106
f 68/68/84 86/69/107 88/81/99 73/51/58
f 87/69/108 67/71/89 72/48/55 89/79/96
f 97/83/109 105/84/110 106/85/111 95/86/112
f 114/87/113 113/88/114 111/89/114 90/90/113
f 101/91/115 104/92/116 91/93/116 112/94/115
f 96/91/117 104/92/118 105/95/110 97/96/109
f 99/97/119 107/98/120 125/99/120 126/100/119
f 100/101/121 99/97/122 126/100/122 123/102/121
f 104/92/118 101/91/123 103/96/124 105/95/110
f 105/84/110 103/83/124 102/86/125 106/85/111
f 92/97/126 119/101/127 121/102/127 128/100/126
f 119/101/127 93/103/128 127/104/128 121/102/127
f 101/91/129 113/88/130 117/105/121 103/96/121
f 103/83/121 117/106/121 120/107/131 102/86/132
f 95/86/133 115/107/134 94/106/127 97/83/127
f 97/96/127 94/105/127 118/88/135 96/91/136
f 118/88/137 114/87/113 90/90/113 109/89/137
f 104/92/116 96/91/138 110/108/138 91/93/116
f 109/89/139 110/108/139 96/91/136 118/88/135
f 110/108/140 109/89/140 90/90/120 91/93/120
f 113/88/130 101/91/129 112/94/141 111/89/141
f 91/93/120 90/90/120 111/89/142 112/94/142
f 107/109/143 99/110/144 113/88/145 114/87/143
f 108/111/146 93/112/147 115/107/148 116/113/146
f 99/110/144 100/114/149 117/105/149 113/88/145
f 92/115/150 107/109/143 114/87/143 118/88/151
f 119/116/152 92/115/150 118/88/151 94/105/152
f 100/117/149 98/118/153 120/107/154 117/106/149
f 93/112/147 119/117/152 94/106/152 115/107/148
f 98/118/153 108/111/146 116/113/146 120/107/154
f 126/100/63 125/99/63 122/102/63 123/102/63
f 123/102/63 122/102/63 124/119/63 129/104/63
f 125/99/63 128/100/63 121/102/63 122/102/63
f 122/102/63 121/102/63 127/104/63 124/119/63
f 108/120/155 98/103/156 129/104/156 124/119/155
f 98/103/157 100/101/121 123/102/121 129/104/157
f 107/98/120 92/97/158 128/100/158 125/99/120
f 93/103/159 108/120/155 124/119/155 127/104/159
f 44/43/98 59/44/160 43/43/98
f 131/121/161 135/122/162 141/122/163 137/121/164
f 135/122/162 133/121/165 139/121/166 141/122/163
f 134/123/167 130/124/168 136/124/169 140/123/170
f 133/121/171 132/124/171 138/124/171 139/121/171
f 130/124/172 131/121/172 137/121/172 136/124/172
f 132/124/173 134/123/167 140/123/170 138/124/174
f 140/123/170 136/124/169 142/124/175 146/123/176
f 139/121/177 138/124/177 144/124/178 145/121/179
f 138/124/174 140/123/170 146/123/176 144/124/180
f 137/121/164 141/122/163 147/122/181 143/121/182
f 136/124/183 137/121/183 143/121/184 142/124/185
f 141/122/163 139/121/166 145/121/186 147/122/181
f 143/121/182 147/122/181 153/122/187 149/121/188
f 142/124/185 143/121/184 149/121/189 148/124/189
f 147/122/181 145/121/186 151/121/190 153/122/187
f 146/123/176 142/124/175 148/124/191 152/123/192
f 145/121/179 144/124/178 150/124/193 151/121/193
f 144/124/180 146/123/176 152/123/192 150/124/194
f 148/124/195 149/121/195 153/122/196 152/123/196
f 150/124/197 152/123/196 153/122/196 151/121/197
f 167/121/198 154/125/199 156/122/200 168/121/201
f 168/121/201 156/122/200 155/126/202 166/127/203
f 176/128/204 157/129/205 159/130/206 177/131/207
f 177/131/207 159/130/206 158/132/208 175/133/209
f 185/134/210 158/132/208 159/130/206 186/135/211
f 186/135/211 159/130/206 157/129/205 184/136/212
f 182/137/213 155/126/202 156/122/200 183/121/214
f 183/121/214 156/122/200 154/125/199 181/138/215
f 166/127/216 176/128/217 177/131/218 168/121/219
f 168/121/219 177/131/218 175/133/220 167/121/221
f 184/136/222 182/137/223 183/121/224 186/135/225
f 186/135/225 183/121/224 181/138/226 185/134/227
f 161/139/121 163/140/121 165/141/121 162/142/121
f 162/142/121 165/141/121 164/143/121 160/124/121
f 173/144/127 169/139/127 171/145/127 174/146/127
f 174/146/127 171/145/127 170/147/127 172/121/127
f 163/140/228 187/125/229 189/122/230 165/141/231
f 165/141/232 189/122/233 188/148/234 164/143/235
f 160/124/236 178/149/237 180/150/238 162/142/239
f 162/142/240 180/150/241 179/151/242 161/139/243
f 169/139/244 179/151/242 180/150/241 171/145/245
f 171/145/246 180/150/238 178/149/237 170/147/247
f 172/121/248 188/148/234 189/122/233 174/146/249
f 174/146/250 189/122/230 187/125/229 173/144/251
f 154/125/199 167/121/198 173/144/251 187/125/229
f 181/138/215 154/125/199 187/125/229 163/140/228
f 155/126/202 182/137/213 120/107/252 116/113/253
f 115/107/254 166/127/203 155/126/202 116/113/253
f 157/129/205 176/128/204 95/86/255 106/85/256
f 158/132/208 185/134/210 161/139/243 179/151/242
f 175/133/209 158/132/208 179/151/242 169/139/244
f 102/86/257 184/136/212 157/129/205 106/85/256
f 178/149/237 160/124/236 130/124/168 134/123/167
f 185/134/227 181/138/226 163/140/121 161/139/121
f 160/124/121 164/143/121 131/121/121 130/124/121
f 164/143/235 188/148/234 135/122/162 131/121/161
f 167/121/221 175/133/220 169/139/127 173/144/127
f 115/107/134 95/86/133 176/128/217 166/127/216
f 170/147/247 178/149/237 134/123/167 132/124/173
f 172/121/127 170/147/127 132/124/127 133/121/127
f 188/148/234 172/121/248 133/121/165 135/122/162
f 182/137/223 184/136/222 102/86/132 120/107/131
