# Blender 5.0.0
# www.blender.org
mtllib Sabre_03.mtl
o Sabre_03
v -0.032289 0.074751 -0.027007
v 0.033956 0.074730 0.027264
v 0.038159 0.078546 -0.025281
v -0.034530 0.074845 0.023723
v -0.001010 0.074499 -0.030332
v 0.002773 0.075846 0.028993
v -0.041928 0.076398 -0.000969
v 0.042586 0.074121 -0.001524
v -0.034146 -0.018336 -0.026337
v 0.039260 -0.016226 -0.025699
v -0.035349 -0.018148 0.024849
v 0.000642 -0.018410 -0.031493
v 0.002450 -0.017435 0.030854
v -0.041637 -0.017403 -0.000707
v 0.044311 -0.018846 -0.001020
v 0.037183 -0.018106 0.026387
v -0.000000 -0.094381 0.043183
v 0.046055 -0.094381 0.033537
v -0.054481 -0.094381 -0.000000
v -0.046055 -0.094381 0.033537
v 0.054481 -0.094381 0.000000
v 0.046055 -0.094381 -0.033537
v 0.000000 -0.094381 -0.043183
v -0.046055 -0.094381 -0.033537
v 0.041812 0.171765 -0.001810
v -0.041248 0.171736 -0.000865
v 0.003756 0.171777 0.027768
v -0.001467 0.171799 -0.029595
v -0.033056 0.171728 0.022791
v 0.037774 0.171778 -0.024908
v 0.032233 0.171770 0.027941
v -0.030294 0.171768 -0.027325
v -0.088699 0.805958 0.022170
v 0.011606 0.243353 0.024245
v 0.011606 0.243353 -0.024351
v -0.088699 0.805958 -0.022276
v -0.027537 0.910834 0.018695
v -0.027537 0.910834 -0.018801
v -0.000000 0.225950 0.026276
v -0.031792 0.788546 0.021809
v 0.000000 0.225950 -0.026383
v -0.031792 0.788546 -0.021915
v 0.073461 1.009550 0.013226
v 0.073461 1.009550 -0.013333
v -0.089260 0.639331 0.025466
v -0.089260 0.639331 -0.025573
v -0.019436 0.640135 -0.025438
v -0.019436 0.640135 0.025332
v -0.039194 0.310088 0.028182
v -0.039194 0.310088 -0.028288
v 0.007510 0.310088 -0.028275
v 0.007510 0.310088 0.028169
v -0.026703 0.243347 0.024283
v -0.018351 0.225950 0.026276
v -0.018351 0.225950 -0.026383
v -0.026703 0.243347 -0.024389
v -0.116223 0.819405 -0.000053
v -0.041518 0.943413 -0.000053
v 0.090259 1.092600 -0.000053
v 0.000000 0.225950 -0.000053
v -0.122749 0.638228 -0.000053
v -0.071379 0.310088 -0.000053
v -0.031333 0.225950 -0.000053
v -0.053804 0.243347 -0.000053
v -0.039888 0.409456 0.027849
v -0.039888 0.409456 -0.027955
v 0.005629 0.411905 -0.027965
v 0.005629 0.411905 0.027859
v -0.071605 0.409456 -0.000053
v -0.065580 0.523514 0.027304
v -0.065580 0.523514 -0.027410
v -0.008026 0.522307 -0.027395
v -0.008026 0.522307 0.027289
v -0.102942 0.523293 -0.000053
v 0.027216 0.770631 0.022170
v 0.027216 0.770631 -0.022276
v 0.025407 0.636134 0.025466
v 0.025407 0.636134 -0.025573
v 0.046129 0.309067 0.028182
v 0.046129 0.309067 -0.028288
v 0.049916 0.243347 0.024283
v 0.018351 0.225950 0.026276
v 0.018351 0.225950 -0.026383
v 0.049916 0.243347 -0.024389
v 0.031333 0.225950 -0.000053
v 0.042887 0.411878 0.027849
v 0.042887 0.411878 -0.027955
v 0.033509 0.522060 0.027304
v 0.033509 0.522060 -0.027410
v 0.086763 0.209103 0.000000
v 0.086763 0.250591 0.000000
v 0.040545 0.186733 0.034107
v -0.040545 0.186733 0.034107
v -0.000000 0.187267 0.046933
v -0.051983 0.250042 0.046933
v 0.051983 0.250042 0.046933
v -0.000000 0.250042 0.046933
v -0.040545 0.186733 -0.034107
v 0.040545 0.186733 -0.034107
v 0.000000 0.186734 -0.037914
v 0.051983 0.250042 -0.046933
v -0.051983 0.250042 -0.046933
v 0.000000 0.250042 -0.046933
v 0.054806 0.253454 0.000000
v 0.000000 0.253461 0.000000
v -0.054806 0.253454 -0.000000
v 0.047452 0.183822 0.000000
v -0.047452 0.183822 -0.000000
v 0.084339 0.211448 0.042519
v 0.084339 0.248246 0.042519
v 0.084339 0.211448 -0.042519
v 0.084339 0.248246 -0.042519
v 0.051983 0.187267 -0.046933
v 0.054806 0.183854 0.000000
v -0.051983 0.187267 0.046933
v -0.054806 0.183854 -0.000000
v 0.000000 0.187267 -0.046933
v 0.051983 0.187267 0.046933
v -0.000000 0.186734 0.037914
v -0.051983 0.187267 -0.046933
v -0.000000 0.162216 0.037914
v 0.000000 0.162216 0.000000
v 0.000000 0.162216 -0.037914
v -0.047452 0.162216 -0.000000
v 0.047452 0.162216 0.000000
v 0.040545 0.162216 -0.034107
v -0.040545 0.162216 0.034107
v 0.040545 0.162216 0.034107
v -0.040545 0.162216 -0.034107
v -0.070072 -0.121105 -0.025264
v -0.068750 -0.088409 -0.025264
v -0.070072 -0.121105 0.025264
v -0.068750 -0.088409 0.025264
v -0.069387 -0.125520 0.000000
v -0.067728 -0.084473 0.000000
v -0.057635 -0.121105 -0.048436
v -0.056314 -0.088409 -0.048436
v -0.057635 -0.121105 0.048034
v -0.056314 -0.088409 0.048035
v -0.056950 -0.125520 0.000000
v -0.055291 -0.084473 0.000000
v -0.000349 -0.121105 -0.060663
v 0.000972 -0.088409 -0.060663
v -0.000349 -0.121105 0.058402
v 0.000972 -0.088409 0.058402
v 0.000336 -0.125520 -0.001131
v 0.001995 -0.084473 -0.001131
v 0.057794 -0.121105 -0.043407
v 0.059115 -0.088409 -0.043407
v 0.057794 -0.121105 0.041145
v 0.059115 -0.088409 0.041145
v 0.069785 -0.125520 -0.001131
v 0.071444 -0.084473 -0.001131
v -0.147547 0.110386 0.000000
v -0.101632 0.175004 -0.000000
v -0.137800 0.151340 -0.000000
v -0.138031 0.216746 -0.000000
v -0.186706 0.122331 -0.000000
v -0.175606 0.176166 -0.000000
v -0.125704 -0.102167 -0.025264
v -0.179351 -0.012470 -0.025264
v -0.163523 -0.061713 -0.025264
v -0.147215 -0.005529 -0.025264
v -0.108366 -0.073101 -0.025264
v -0.136436 -0.042696 -0.025264
v -0.104199 0.177889 0.036838
v -0.151289 0.112222 0.025264
v -0.140832 0.153978 0.028654
v -0.179351 -0.012470 0.025264
v -0.125704 -0.102167 0.025264
v -0.163523 -0.061713 0.025264
v -0.108366 -0.073101 0.025264
v -0.147215 -0.005529 0.025264
v -0.136436 -0.042696 0.025264
v -0.182440 0.121723 0.025264
v -0.133791 0.213928 0.032430
v -0.171325 0.174485 0.027363
v -0.127278 -0.106148 0.000000
v -0.183693 -0.014251 0.000000
v -0.166671 -0.064899 0.000000
v -0.151289 0.112222 -0.025264
v -0.104199 0.177889 -0.036838
v -0.140832 0.153978 -0.028654
v -0.133791 0.213928 -0.032430
v -0.182440 0.121723 -0.025264
v -0.171325 0.174485 -0.027363
v -0.143402 -0.005548 0.000000
v -0.105669 -0.069508 0.000000
v -0.132701 -0.040976 0.000000
vn 0.6890 0.0812 -0.7202
vn 0.6871 0.0112 -0.7265
vn 0.9986 0.0151 0.0506
vn 0.9967 0.0774 0.0257
vn -0.6684 0.1031 0.7366
vn -0.6549 0.0137 0.7556
vn -0.9995 0.0095 -0.0294
vn -0.9960 0.0875 -0.0192
vn 0.6600 0.0912 0.7457
vn 0.6207 0.0141 0.7839
vn -0.0422 0.0098 0.9991
vn -0.0153 0.0767 0.9969
vn -0.6492 0.0950 -0.7546
vn -0.6186 0.0072 -0.7857
vn 0.0097 0.0057 -0.9999
vn 0.0031 0.0725 -0.9974
vn 0.9916 0.1287 0.0146
vn 0.6768 0.1572 0.7192
vn -0.0092 0.1426 0.9897
vn -0.6791 0.1838 0.7107
vn -0.0028 0.1354 -0.9908
vn 0.6819 0.1479 -0.7163
vn -0.9856 0.1687 -0.0080
vn -0.6771 0.1774 -0.7142
vn 0.6872 0.0077 -0.7265
vn 0.9981 0.0091 0.0612
vn -0.6410 0.0146 0.7674
vn -0.9994 0.0130 -0.0309
vn 0.5978 0.0089 0.8016
vn -0.0552 0.0079 0.9984
vn -0.5956 0.0090 -0.8032
vn 0.0149 0.0046 -0.9999
vn 0.0018 0.0198 0.9998
vn 0.0099 0.0264 0.9996
vn 0.0157 0.0233 0.9996
vn 0.0042 0.0193 0.9998
vn -0.6050 -0.0417 -0.7952
vn -0.5480 0.1749 -0.8180
vn -0.5606 0.1481 -0.8147
vn -0.6044 -0.0453 -0.7954
vn -0.5480 0.1749 0.8180
vn -0.5606 0.1481 0.8147
vn -0.4036 0.2880 0.8684
vn -0.3382 0.2777 0.8992
vn 0.0099 0.0264 -0.9996
vn 0.0157 0.0233 -0.9996
vn 0.0242 0.0246 -0.9994
vn 0.0162 0.0296 -0.9994
vn -0.2590 0.2637 0.9292
vn 0.0162 0.0296 0.9994
vn 0.0242 0.0246 0.9994
vn 0.0042 0.0193 -0.9998
vn 0.0018 0.0198 -0.9998
vn 0.0007 0.0115 -0.9999
vn -0.0000 0.0106 -0.9999
vn -0.6042 -0.1264 -0.7867
vn -0.6068 -0.1316 -0.7839
vn -0.0000 0.0106 0.9999
vn 0.0007 0.0115 0.9999
vn -0.6539 -0.1688 -0.7375
vn -0.6595 -0.0801 -0.7474
vn -0.6592 -0.0884 -0.7468
vn -0.0000 -1.0000 -0.0000
vn -0.0005 -0.0588 0.9983
vn -0.0002 -0.0275 0.9996
vn 0.0003 -0.0256 0.9997
vn 0.0006 -0.0584 0.9983
vn 0.0006 -0.0584 -0.9983
vn 0.0003 -0.0256 -0.9997
vn -0.0002 -0.0275 -0.9996
vn -0.0005 -0.0588 -0.9983
vn -0.6539 -0.1688 0.7375
vn -0.6592 -0.0884 0.7468
vn -0.6595 -0.0801 0.7474
vn -0.6068 -0.1316 0.7839
vn -0.6044 -0.0453 0.7954
vn -0.6050 -0.0417 0.7952
vn -0.6042 -0.1264 0.7867
vn -0.4036 0.2880 -0.8684
vn -0.3382 0.2777 -0.8992
vn -0.2590 0.2637 -0.9292
vn -0.6418 -0.0729 0.7634
vn -0.6392 -0.0820 0.7646
vn -0.0000 0.0041 1.0000
vn -0.6392 -0.0820 -0.7646
vn -0.6418 -0.0729 -0.7634
vn -0.0000 0.0041 -1.0000
vn -0.0003 0.0199 0.9998
vn 0.0024 0.0296 0.9996
vn 0.9983 0.0581 -0.0000
vn 0.9970 0.0779 -0.0000
vn 0.0024 0.0296 -0.9996
vn -0.0003 0.0199 -0.9998
vn -0.0005 0.0104 -0.9999
vn 0.9949 -0.1004 -0.0000
vn 0.9810 -0.1939 -0.0000
vn -0.0005 0.0104 0.9999
vn 0.9990 0.0443 -0.0000
vn -0.0015 -0.0590 0.9983
vn -0.0008 -0.0294 0.9996
vn -0.0015 -0.0590 -0.9983
vn -0.0008 -0.0294 -0.9996
vn 0.9983 0.0575 -0.0000
vn 0.9996 0.0293 -0.0000
vn -0.0000 0.9974 0.0726
vn -0.0000 1.0000 -0.0000
vn -0.0001 1.0000 -0.0000
vn -0.0001 0.9974 0.0726
vn 0.6131 -0.7900 -0.0000
vn 0.6108 -0.7870 -0.0865
vn 0.0768 0.9947 -0.0685
vn 0.0770 0.9970 -0.0000
vn 0.0001 0.9974 0.0726
vn 0.0001 1.0000 -0.0000
vn 0.9801 -0.0000 -0.1985
vn 1.0000 -0.0000 -0.0000
vn -0.0000 -0.0000 -1.0000
vn 0.0935 -0.0000 -0.9956
vn 0.0001 0.9974 -0.0726
vn -0.0000 0.9974 -0.0726
vn -0.0001 0.9974 -0.0726
vn 0.0935 -0.0000 0.9956
vn -0.0000 -0.0000 1.0000
vn -0.0935 -0.0000 0.9956
vn 0.0665 -0.0000 -0.9978
vn 0.0505 -0.0000 -0.9987
vn -0.0938 -0.0049 -0.9956
vn -0.0757 -0.0039 -0.9971
vn -0.0757 -0.0039 0.9971
vn -0.0938 -0.0049 0.9956
vn 0.0505 -0.0000 0.9987
vn 0.0665 -0.0000 0.9978
vn 0.6108 -0.7870 0.0865
vn 0.0768 0.9947 0.0685
vn 0.1352 -0.0000 0.9908
vn 0.9984 -0.0000 0.0569
vn 0.1352 -0.0000 -0.9908
vn 0.9984 -0.0000 -0.0569
vn -0.0214 -0.9998 -0.0000
vn -0.0097 -0.9981 -0.0615
vn -0.0093 -0.9981 -0.0610
vn 0.0214 -0.9998 -0.0000
vn 0.0097 -0.9981 0.0615
vn 0.0093 -0.9981 0.0610
vn -0.0000 -0.9989 -0.0477
vn -0.0097 -0.9981 0.0615
vn -0.0093 -0.9981 0.0610
vn -0.0000 -0.9989 0.0477
vn 0.0097 -0.9981 -0.0615
vn 0.0093 -0.9981 -0.0610
vn -1.0000 -0.0000 -0.0000
vn -0.9801 -0.0000 -0.1985
vn -0.0935 -0.0000 -0.9956
vn 0.9801 -0.0000 0.1985
vn -0.9801 -0.0000 0.1985
vn 0.9802 -0.1983 -0.0000
vn 0.0764 0.9887 -0.1290
vn 0.1351 0.9908 0.0002
vn -0.0510 0.9987 0.0007
vn -0.0284 0.9964 -0.0796
vn 0.0774 0.9886 0.1294
vn -0.0267 0.9964 0.0801
vn -0.2114 -0.9774 0.0002
vn -0.1900 -0.9725 -0.1344
vn -0.0318 -0.9955 -0.0894
vn -0.0578 -0.9983 0.0008
vn -0.8771 0.0355 0.4790
vn -0.8805 0.0356 -0.4726
vn -0.1894 -0.9726 0.1349
vn -0.0298 -0.9955 0.0900
vn 0.0008 -0.9964 -0.0845
vn 0.0020 -1.0000 -0.0004
vn -0.1781 0.0072 0.9840
vn 0.0488 -0.0020 0.9988
vn 0.0606 -0.0025 0.9982
vn 0.0022 -0.9964 0.0847
vn 0.0018 1.0000 -0.0004
vn 0.0007 0.9972 -0.0754
vn -0.2087 0.0084 -0.9779
vn 0.0454 -0.0018 -0.9990
vn 0.0328 -0.0013 -0.9995
vn 0.0019 0.9971 0.0755
vn 0.0106 0.9999 -0.0000
vn 0.0106 0.9969 -0.0785
vn 0.2845 -0.0115 -0.9586
vn 0.0106 0.9969 0.0785
vn 0.0119 -0.9961 -0.0879
vn 0.0119 -0.9999 -0.0000
vn 0.2845 -0.0115 0.9586
vn 0.0119 -0.9961 0.0879
vn 0.9602 -0.0388 -0.2764
vn 0.9992 -0.0404 -0.0000
vn 0.9602 -0.0388 0.2764
vn 0.9831 -0.1120 0.1448
vn 0.9950 -0.0999 -0.0000
vn 0.8130 -0.5822 -0.0000
vn 0.7820 -0.6081 0.1368
vn 0.3584 -0.9336 -0.0000
vn 0.3428 -0.9347 0.0945
vn -0.5608 0.8176 0.1307
vn -0.5898 0.8076 -0.0000
vn -0.8908 0.4544 -0.0000
vn -0.8708 0.4630 0.1653
vn -0.9959 0.0904 -0.0000
vn -0.9817 0.0892 0.1680
vn -0.9817 0.0892 -0.1680
vn -0.8708 0.4630 -0.1653
vn -0.5608 0.8176 -0.1307
vn 0.3428 -0.9347 -0.0945
vn 0.7820 -0.6081 -0.1368
vn 0.9831 -0.1120 -0.1448
vn -0.1611 -0.0244 0.9866
vn -0.1562 -0.0289 0.9873
vn -0.0947 -0.0470 0.9944
vn -0.0915 -0.0471 0.9947
vn -0.0252 -0.0273 0.9993
vn -0.0196 -0.0213 0.9996
vn -0.1562 -0.0289 -0.9873
vn -0.1611 -0.0244 -0.9866
vn -0.0915 -0.0471 -0.9947
vn -0.0947 -0.0470 -0.9944
vn -0.0196 -0.0213 -0.9996
vn -0.0252 -0.0273 -0.9993
vn 0.9762 0.1569 -0.1499
vn 0.9867 0.1626 -0.0000
vn 0.8670 0.4983 -0.0000
vn 0.8577 0.4883 -0.1610
vn 0.5600 0.8285 -0.0000
vn 0.5541 0.8155 -0.1670
vn -0.5357 -0.8277 -0.1669
vn -0.5350 -0.8448 -0.0000
vn -0.8558 -0.5173 -0.0000
vn -0.8495 -0.4994 -0.1701
vn -0.9849 -0.1730 -0.0000
vn -0.9717 -0.1632 -0.1705
vn -0.9717 -0.1632 0.1705
vn -0.8495 -0.4994 0.1701
vn -0.5357 -0.8277 0.1669
vn 0.5541 0.8155 0.1670
vn 0.8577 0.4883 0.1610
vn 0.9762 0.1569 0.1499
vn 0.1733 -0.9821 -0.0733
vn 0.1738 -0.9848 -0.0000
vn 0.1733 -0.9821 0.0733
vn -0.4093 0.9061 0.1075
vn -0.4116 0.9113 -0.0000
vn -0.4093 0.9061 -0.1075
vt 0.019677 0.513301
vt 0.019641 0.524874
vt 0.020428 0.524353
vt 0.020532 0.512994
vt 0.009710 0.513071
vt 0.009914 0.524438
vt 0.008751 0.524619
vt 0.008685 0.513155
vt 0.019401 0.513081
vt 0.019093 0.524424
vt 0.014848 0.524554
vt 0.014720 0.513155
vt 0.009875 0.513044
vt 0.010207 0.524422
vt 0.014440 0.524391
vt 0.014530 0.513036
vt 0.021620 0.505809
vt 0.020543 0.505472
vt 0.014658 0.504931
vt 0.008774 0.505472
vt 0.007697 0.505809
vt 0.019603 0.534312
vt 0.020344 0.533691
vt 0.010107 0.533750
vt 0.008839 0.534002
vt 0.018879 0.533706
vt 0.014963 0.533863
vt 0.010469 0.533759
vt 0.014397 0.533705
vt 0.029273 0.874758
vt 0.026620 0.909460
vt 0.036800 0.904396
vt 0.038656 0.874466
vt 0.046219 0.924700
vt 0.044137 0.947462
vt 0.038413 0.946775
vt 0.039771 0.924884
vt 0.032744 0.965410
vt 0.037192 0.967812
vt 0.029048 0.929873
vt 0.016750 0.944168
vt 0.023749 0.975866
vt 0.019897 0.991743
vt 0.029273 0.874758
vt 0.040387 0.845519
vt 0.028400 0.849397
vt 0.048231 0.903040
vt 0.041037 0.903712
vt 0.028400 0.849397
vt 0.040387 0.845519
vt 0.041366 0.844133
vt 0.051307 0.860019
vt 0.043915 0.862284
vt 0.036574 0.844133
vt 0.035834 0.838744
vt 0.033335 0.838744
vt 0.029801 0.838744
vt 0.025080 0.764064
vt 0.028882 0.798625
vt 0.044321 0.788879
vt 0.034285 0.764062
vt 0.041037 0.903712
vt 0.042559 0.881321
vt 0.049965 0.879841
vt 0.027485 0.822561
vt 0.042468 0.814907
vt 0.042559 0.881321
vt 0.027485 0.822561
vt 0.042559 0.881321
vt 0.042559 0.881321
vt 0.116318 0.943057
vt 0.118471 0.945210
vt 0.130648 0.933025
vt 0.126517 0.932859
vt 0.163338 0.886102
vt 0.163172 0.890233
vt 0.139608 0.870524
vt 0.140179 0.866549
vt 0.123646 0.929758
vt 0.119515 0.929924
vt 0.099962 0.906765
vt 0.103937 0.906194
vt 0.131692 0.942109
vt 0.133845 0.939956
vt 0.220033 0.760048
vt 0.236855 0.767138
vt 0.236855 0.819757
vt 0.220033 0.819757
vt 0.121292 0.760047
vt 0.121292 0.819757
vt 0.022551 0.760048
vt 0.022551 0.819757
vt 0.173370 0.900431
vt 0.076793 0.903531
vt 0.086991 0.893333
vt 0.103937 0.906194
vt 0.164973 0.887736
vt 0.164692 0.891083
vt 0.085190 0.890836
vt 0.085471 0.894183
vt 0.086825 0.889202
vt 0.173706 0.900095
vt 0.164692 0.891082
vt 0.173706 0.900095
vt 0.076457 0.903196
vt 0.085471 0.894183
vt 0.005729 0.819757
vt 0.005729 0.767138
vt 0.202659 0.796588
vt 0.200505 0.793222
vt 0.226628 0.819345
vt 0.223262 0.817191
vt 0.200505 0.793222
vt 0.135560 0.848055
vt 0.140881 0.848259
vt 0.191269 0.855441
vt 0.195752 0.855915
vt 0.226306 0.819139
vt 0.218686 0.812615
vt 0.226628 0.819345
vt 0.223262 0.817191
vt 0.223262 0.817191
vt 0.218686 0.812615
vt 0.191269 0.855441
vt 0.140881 0.848259
vt 0.202659 0.796588
vt 0.223262 0.817191
vt 0.202659 0.796588
vt 0.202550 0.796417
vt 0.218161 0.812090
vt 0.202659 0.796588
vt 0.202659 0.796588
vt 0.218161 0.812090
vt 0.202550 0.796417
vt 0.223262 0.817191
vt 0.200505 0.793222
vt 0.226628 0.819345
vt 0.226268 0.819114
vt 0.226628 0.819345
s 1
usemtl Material
f 10/1/1 3/2/2 8/3/3 15/4/4
f 11/5/5 4/6/6 7/7/7 14/8/8
f 16/9/9 2/10/10 6/11/11 13/12/12
f 9/13/13 1/14/14 5/15/15 12/16/16
f 14/8/8 7/7/7 1/14/14 9/13/13
f 12/16/16 5/15/15 3/2/2 10/1/1
f 13/12/12 6/11/11 4/6/6 11/5/5
f 15/4/4 8/3/3 2/10/10 16/9/9
f 21/17/17 15/4/4 16/9/9 18/18/18
f 17/19/19 13/12/12 11/5/5 20/20/20
f 23/19/21 12/16/16 10/1/1 22/18/22
f 19/21/23 14/8/8 9/13/13 24/20/24
f 24/20/24 9/13/13 12/16/16 23/19/21
f 18/18/18 16/9/9 13/12/12 17/19/19
f 20/20/20 11/5/5 14/8/8 19/21/23
f 22/18/22 10/1/1 15/4/4 21/17/17
f 3/2/2 30/22/25 25/23/26 8/3/3
f 4/6/6 29/24/27 26/25/28 7/7/7
f 2/10/10 31/26/29 27/27/30 6/11/11
f 1/14/14 32/28/31 28/29/32 5/15/15
f 7/7/7 26/25/28 32/28/31 1/14/14
f 5/15/15 28/29/32 30/22/25 3/2/2
f 6/11/11 27/27/30 29/24/27 4/6/6
f 8/3/3 25/23/26 31/26/29 2/10/10
f 48/30/33 40/31/34 33/32/35 45/33/36
f 61/34/37 57/35/38 36/36/39 46/37/40
f 57/35/41 33/36/42 37/38/43 58/39/44
f 42/31/45 36/32/46 38/40/47 44/41/48
f 58/39/44 37/38/43 43/42/49 59/43/49
f 33/32/35 40/31/34 43/41/50 37/40/51
f 46/33/52 36/32/46 42/31/45 47/44/53
f 71/45/54 46/33/52 47/44/53 72/46/55
f 74/47/56 61/34/37 46/37/40 71/48/57
f 73/49/58 48/30/33 45/33/36 70/50/59
f 64/51/60 62/52/61 50/53/62 56/54/60
f 63/55/63 55/56/63 41/57/63 60/57/63
f 34/58/64 52/59/65 49/60/66 53/61/67
f 56/61/68 50/60/69 51/59/70 35/58/71
f 54/56/63 63/55/63 60/57/63 39/57/63
f 53/54/72 49/53/73 62/52/74 64/51/72
f 70/62/75 45/37/76 61/34/77 74/47/78
f 38/38/79 58/39/80 59/43/81 44/42/81
f 36/36/39 57/35/38 58/39/80 38/38/79
f 45/37/76 33/36/42 57/35/41 61/34/77
f 49/53/73 65/63/82 69/64/83 62/52/74
f 52/59/65 68/65/84 65/66/84 49/60/66
f 62/52/61 69/64/85 66/67/86 50/53/62
f 50/60/69 66/66/87 67/68/87 51/59/70
f 65/63/82 70/62/75 74/47/78 69/64/83
f 68/65/84 73/49/58 70/50/59 65/66/84
f 69/64/85 74/47/56 71/48/57 66/67/86
f 66/66/87 71/45/54 72/46/55 67/68/87
f 48/30/33 77/33/88 75/32/89 40/31/34
f 86/69/90 87/70/90 89/48/91 88/62/91
f 42/31/45 44/41/48 76/32/92
f 75/32/89 43/41/50 40/31/34
f 78/33/93 47/44/53 42/31/45 76/32/92
f 89/45/94 72/46/55 47/44/53 78/33/93
f 76/36/95 44/42/96 43/42/96 75/36/95
f 73/49/58 88/50/97 77/33/88 48/30/33
f 80/53/98 87/70/90 86/69/90 79/53/98
f 85/55/63 60/57/63 41/57/63 83/56/63
f 34/58/64 81/61/99 79/60/100 52/59/65
f 84/61/101 35/58/71 51/59/70 80/60/102
f 82/56/63 39/57/63 60/57/63 85/55/63
f 81/54/103 84/54/103 80/53/98 79/53/98
f 77/37/104 78/37/104 76/36/95 75/36/95
f 52/59/65 79/60/100 86/66/84 68/65/84
f 80/60/102 51/59/70 67/68/87 87/66/87
f 88/62/91 89/48/91 78/37/104 77/37/104
f 68/65/84 86/66/84 88/50/97 73/49/58
f 87/66/87 67/68/87 72/46/55 89/45/94
f 97/71/105 105/72/106 106/73/107 95/74/108
f 114/75/109 113/76/110 111/77/110 90/78/109
f 101/79/111 104/80/112 91/81/112 112/82/111
f 96/79/113 104/80/114 105/83/106 97/84/105
f 99/85/115 107/86/116 125/87/116 126/88/115
f 100/89/117 99/85/118 126/88/118 123/90/117
f 104/80/114 101/79/119 103/84/120 105/83/106
f 105/72/106 103/71/120 102/74/121 106/73/107
f 92/85/122 119/89/123 121/90/123 128/88/122
f 119/89/123 93/91/124 127/92/124 121/90/123
f 101/79/125 113/76/126 117/93/117 103/84/117
f 103/71/117 117/94/117 120/95/127 102/74/128
f 95/74/129 115/95/130 94/94/123 97/71/123
f 97/84/123 94/93/123 118/76/131 96/79/132
f 118/76/133 114/75/109 90/78/109 109/77/133
f 104/80/112 96/79/134 110/96/134 91/81/112
f 109/77/135 110/96/135 96/79/132 118/76/131
f 110/96/136 109/77/136 90/78/116 91/81/116
f 113/76/126 101/79/125 112/82/137 111/77/137
f 91/81/116 90/78/116 111/77/138 112/82/138
f 107/97/139 99/98/140 113/76/141 114/75/139
f 108/99/142 93/100/143 115/95/144 116/101/142
f 99/98/140 100/102/145 117/93/145 113/76/141
f 92/103/146 107/97/139 114/75/139 118/76/147
f 119/104/148 92/103/146 118/76/147 94/93/148
f 100/105/145 98/106/149 120/95/150 117/94/145
f 93/100/143 119/105/148 94/94/148 115/95/144
f 98/106/149 108/99/142 116/101/142 120/95/150
f 126/88/63 125/87/63 122/90/63 123/90/63
f 123/90/63 122/90/63 124/107/63 129/92/63
f 125/87/63 128/88/63 121/90/63 122/90/63
f 122/90/63 121/90/63 127/92/63 124/107/63
f 108/108/151 98/91/152 129/92/152 124/107/151
f 98/91/153 100/89/117 123/90/117 129/92/153
f 107/86/116 92/85/154 128/88/154 125/87/116
f 93/91/155 108/108/151 124/107/151 127/92/155
f 44/42/96 59/43/156 43/42/96
f 131/109/157 135/110/158 141/110/159 137/109/160
f 135/110/158 133/109/161 139/109/162 141/110/159
f 134/111/163 130/112/164 136/112/165 140/111/166
f 133/109/167 132/112/167 138/112/167 139/109/167
f 130/112/168 131/109/168 137/109/168 136/112/168
f 132/112/169 134/111/163 140/111/166 138/112/170
f 140/111/166 136/112/165 142/112/171 146/111/172
f 139/109/173 138/112/173 144/112/174 145/109/175
f 138/112/170 140/111/166 146/111/172 144/112/176
f 137/109/160 141/110/159 147/110/177 143/109/178
f 136/112/179 137/109/179 143/109/180 142/112/181
f 141/110/159 139/109/162 145/109/182 147/110/177
f 143/109/178 147/110/177 153/110/183 149/109/184
f 142/112/181 143/109/180 149/109/185 148/112/185
f 147/110/177 145/109/182 151/109/186 153/110/183
f 146/111/172 142/112/171 148/112/187 152/111/188
f 145/109/175 144/112/174 150/112/189 151/109/189
f 144/112/176 146/111/172 152/111/188 150/112/190
f 148/112/191 149/109/191 153/110/192 152/111/192
f 150/112/193 152/111/192 153/110/192 151/109/193
f 167/109/194 154/113/195 156/110/196 168/109/197
f 168/109/197 156/110/196 155/114/198 166/115/199
f 176/116/200 157/117/201 159/118/202 177/119/203
f 177/119/203 159/118/202 158/120/204 175/121/205
f 185/122/206 158/120/204 159/118/202 186/123/207
f 186/123/207 159/118/202 157/117/201 184/124/208
f 182/125/209 155/114/198 156/110/196 183/109/210
f 183/109/210 156/110/196 154/113/195 181/126/211
f 166/115/212 176/116/213 177/119/214 168/109/215
f 168/109/215 177/119/214 175/121/216 167/109/217
f 184/124/218 182/125/219 183/109/220 186/123/221
f 186/123/221 183/109/220 181/126/222 185/122/223
f 161/127/117 163/128/117 165/129/117 162/130/117
f 162/130/117 165/129/117 164/131/117 160/112/117
f 173/132/123 169/127/123 171/133/123 174/134/123
f 174/134/123 171/133/123 170/135/123 172/109/123
f 163/128/224 187/113/225 189/110/226 165/129/227
f 165/129/227 189/110/226 188/136/228 164/131/229
f 160/112/230 178/137/231 180/138/232 162/130/233
f 162/130/233 180/138/232 179/139/234 161/127/235
f 169/127/236 179/139/234 180/138/232 171/133/237
f 171/133/237 180/138/232 178/137/231 170/135/238
f 172/109/239 188/136/228 189/110/226 174/134/240
f 174/134/240 189/110/226 187/113/225 173/132/241
f 154/113/195 167/109/194 173/132/241 187/113/225
f 181/126/211 154/113/195 187/113/225 163/128/224
f 155/114/198 182/125/209 120/95/242 116/101/243
f 115/95/244 166/115/199 155/114/198 116/101/243
f 157/117/201 176/116/200 95/74/245 106/73/246
f 158/120/204 185/122/206 161/127/235 179/139/234
f 175/121/205 158/120/204 179/139/234 169/127/236
f 102/74/247 184/124/208 157/117/201 106/73/246
f 178/137/231 160/112/230 130/112/164 134/111/163
f 185/122/223 181/126/222 163/128/117 161/127/117
f 160/112/117 164/131/117 131/109/117 130/112/117
f 164/131/229 188/136/228 135/110/158 131/109/157
f 167/109/217 175/121/216 169/127/123 173/132/123
f 115/95/130 95/74/129 176/116/213 166/115/212
f 170/135/238 178/137/231 134/111/163 132/112/169
f 172/109/123 170/135/123 132/112/123 133/109/123
f 188/136/228 172/109/239 133/109/161 135/110/158
f 182/125/219 184/124/218 102/74/128 120/95/127
